<mxfile host="Electron" modified="2024-01-26T09:11:23.585Z" agent="Mozilla/5.0 (Windows NT 10.0; Win64; x64) AppleWebKit/537.36 (KHTML, like Gecko) draw.io/21.2.8 Chrome/112.0.5615.165 Electron/24.2.0 Safari/537.36" etag="jr-zTVrSYeSFsOpw64L4" version="21.2.8" type="device">
  <diagram name="Page-1" id="2XWkQP5S-hDbL94sL5Vg">
    <mxGraphModel dx="1418" dy="820" grid="1" gridSize="10" guides="1" tooltips="1" connect="1" arrows="1" fold="1" page="1" pageScale="1" pageWidth="3300" pageHeight="4681" background="#999999" math="0" shadow="0">
      <root>
        <mxCell id="0" />
        <mxCell id="1" parent="0" />
        <mxCell id="OFI7zE9tUY9UPtECGpIP-1" value="Property change signals" style="rounded=0;whiteSpace=wrap;html=1;fillColor=#dae8fc;strokeColor=#6c8ebf;fontSize=30;" vertex="1" parent="1">
          <mxGeometry x="310" y="40" width="850" height="120" as="geometry" />
        </mxCell>
        <mxCell id="OFI7zE9tUY9UPtECGpIP-2" value="" style="shape=image;verticalLabelPosition=bottom;labelBackgroundColor=default;verticalAlign=top;aspect=fixed;imageAspect=0;image=data:image/png,iVBORw0KGgoAAAANSUhEUgAABBsAAAFeCAYAAADE7xe8AAAAAXNSR0IArs4c6QAAAARnQU1BAACxjwv8YQUAAAAJcEhZcwAADsMAAA7DAcdvqGQAAI9HSURBVHhe7d1fbBRnni/8X4a58mZORuqG7hs8TC5M49hOJpONVtiAkdhNNu8KGNZrcUbzro7EsoCENFrpXEVc+AJxuToXSIAQI505Gi3L67GAM7vJvsO+GLDR2WxmswIHmpZOhDi5sE33MJEmk9mrvL9fPc/TXVVdVV31VHW5u/39SCR2u7vr+f889dRTT7008fobX1NCw8M76Nmzp/o3AAAAAAAAAICWb+j/AwAAAAAAAABkApMNAAAAAAAAAJApTDYAAAAAAAAAQKYw2QAAAAAAAAAAmcJkAwAAAAAAAABkCpMNAAAAAAAAAJApTDYAAAAAAAAAQKYw2QAAAAAAAAAAmcJkAwAAAAAAAABkCpMNAAAAAAAAAJApTDYAAAAAAAAAQKYw2QAAAAAAAAAAmcJkAwAAAAAAAABkCpMNAAAAAAAAAJApTDYAAAAAAAAAQKa2lMrlOf1zbK+88m364ovf6N8AAGBwlWn61H+lH75bphd3V2hdvwqdlfafph//6D0qvVikR91IuNIETf9ff0Hv/OA9emfvNO3hf6Plb9Lnn35GX+q3+I3Nnqa/4vePln9Nv/p0Tb/aH7qZnv2cLgAAAL0Kkw09Z4Jmzpyiw3rgGPZvdEuVfvX0t/ozAINNnWS8ipPdDfEqvfXuLio0qrT0cfhJLPiV6Q//dC9tH6rTk3sf0dOsE650gE4cf4d2FoZoSL8khgrD9OZrZXrxcUBd4c/84E8qzvuHqEG1vsrPLqZnX6fLJlfiMdNf/gUdfve91vio/E36j/pntB6QiWOzc/RXP+D3vfbN4HweP0rv//UMf0/w5GrXJxBh4GD8ApsdbqPoNaVtVNA/RmnUV/VPAIOuTLsqRSn09Fy/AjkybVJjnXC9N4ltVJSEa1TpceYJV6bpI1NOvjRqC3Tl7Byd0/+u3KhSrbpIK+qNXmsr9KQhP9T5PSt9lp9dTM++TpfNS07i3j9+hEYK3D+4FEam6ODx0zRd0i80lVUZEvyZrfrHFq5XUxX1Y2B/o/siLid1nDVCLBi/AGCyoceURitqALl8sTl4DPo3/1C9H2DwmZMMnOxuBNMm1R4/UC9APN2cpCmN0U4nUxbo0rUHnu9fe3iV5m+HTUav0uIF6UPOR7ynR3V10quP02WTkomGY5PqxL9242Jrwu3yRbpfk3cUafeRA+Sdb1B9SYNP/IKU9s/Q7kKd/86/BJazbk4gwmDC+AUAkw09ZutWNUOPlQsA2vgojfD/cLK7MVSbhCt5iW0rqonj59kn3KacAOpiekKfKR2gw3qi4f7l8zT/cLV1Ire2SovXLtJ9mTAoVGiXe7ZBT1g1qlVqUJGKnpmICdrD39mo1flzIeUMq7wgKYxfAOilidff+Fr/HNvw8A569uyp/g2yIxuxnaTdhSrdPHs1eBlsmFKZxvbN0OSIGpA5GlW6v7RIi9wRh1FXB8jpsBel95T7H4/sbS1L5O+4ucBhyaxn5XDOesPZqC3R8p1btLLtKL1/qNgKi0OnSWOBzl2Txpo/v3+aJifVYFvIMuLrnqt7MdPRued5igr8efXdaXjDWRo/QHumpjgd1V8bnI7LEelonQ+J8z1dOEVp/CgdnuL0bx6wTrXlu3TvtvcKq1uy+PHfTrn+Fsmdx3nnewbHS5p/HcMeM0yx+b8vTv1zS1Lfs8k/m/JpLzx+z0fVldfajeCVaMnCGbdO+NJO7j8/pJeFuzWW6MqFWxHpofMiUbvrZZcP9umZyAamS3wZ1Iec25d8xhMmDHwCF1EWzMoHWSV6yaxW0fleW16iwuQUNVyfV++v080bRAflPUHfrT/v+c4uK3Ea7tq3l3b66sT1axHlNFG+u8r0HaJpPtZu/pzzfs6rRW572l5rHthbHxKPJ1KOX+T37rZLNsezHb+0qHSsuL6jzsfhtJR+MyxiAD0MKxt6illulezeLmk8Txw/SQfdDbYoVGj3oZN0Yn9Zv9CuedWSGzDpbNvuf5QvzKpxk4HMmfZwmvsrZ3bJ4E+FpUkvF3auMpjPuxp6URg5Qoc9cVylx1VZJum/cuHGnYhzzzM39k4nkpIJJ+fh9CwPWg61OlxR4LwIvodUsckHq3xPFU7pROf4M+6OWhRpZPIIHTvlX7Lakih+cvUoVkfNPHUl73xPdzyr/Ot4ddeuDQnn+r7Y9U9LXN+TpGed7t/x5599+bQSGb+jtMe5t7tK1baTIYtwJqkTLqVi8GcanfYlsGp3Dct8sE7P5DYmXZLqv/Yll/GEzgOZGLoXURbW6pJ2fMit25z/C5XvHL5H69wH8t+KJg30qoblRSKnXQouZ6bc5LPylE9spY/mNJQTfXceSp04dia4n06e7zpPaZRm9LEc/P6d++S7vK/t3jehfhYpxhOpxi95tUs2x7Mev2icLiod3d/BaWT6zfGguAH0NjyNopeUxmnP94dp6POP6cO4j97ihunH3HjKLtoyw/p3F/6ePry7SPfuVqm25WV6c7hIQ8M7aMuToN27yzS69y3a/lWVlv7jbTr2x8PqOxb4Oz5Q3/HixVNaWc/iqRfc0P/NO7RdfuRBws2f/YR+7hxjkWovyvSdyjBtlxa84dvx/tW36R0eZH71BzvoLZmN5r/f/Nk8f/YXKnzlt5zOYOj3z+ieK82+/NarPDjltPx9yFM7xv+Mfvg9GVzM0wdZPNVDh1N2gt9e+B3VbvyUrs//QuXFk19TaccuKgwN0fZv/doTTsUiH2zz3TqcnH9neOA4JFcBPqTr/2TCpj63hT+3nb/z5cAduhPG78vP6FdOXOQfh2mvPAlhia787U90HF3/fLuJ553v1sezzL/Sa9P8tyH6/JNfBO+EbtOGRNHf99VXQ1Rp1r/zuu6G1z/b+h4/PX9KP19x/z1N+bTRKX4V2u5krq89sw1n7Drh3e38y6cfuf7G/zhsctIeWn4My3bXPh9s09NO/ulip7/al3zGE6W336NJDmPtlz+hf43KKz5RdCaoGo91XpinmTyjTz74lOi1t6hY/9hJ17HZU85qjVs/fUpFE4e2cmY+X6Xl+W4/VaDsXFE/4BR6rkvuflrSkfOwODxMO3f4nqhhk+8mT/nkVla0XJHP6Pogrw35XmulJ7MdT6Qcv+TWLtkcL8X4xcn3P3/XeeKOpOUlTkv1Xk6XFy+rfrMSkC4APQ4rG3qIuQ+XRo7Q+2fm2v+1zbxyA8oNtpAlf96NwlZp7fZVurKsrozsHA2aDTUz2hU6fEiWp15U39H8klVaCVzKltzYLDf08gN3LOcueJeCyYZml25U1S++eyHNlQRnplg2zbwgS/JMmDh8d5acKxRtHj4i2SPKfVWjRacbdwDXM1oK2bxSJp2KbDLG6daMx9oDml/Q4SxsC7iqlzQf7PPdNpwq/7ijvSwbqLnDxvhzi/pzrStFbinKWdJ7ZHPOd7vj2edfx/0TMr6v3bRJ3vqn/hZV/2zrO63XVTkKTE8eiPGALyj/0pXP5OLEz0kXX/wyCWeK+8abV3Y7FA/bdtc2frbpmZVup4u1vmpf8hhPJH8aRCusOnyuq8lOupYO0CQXPlnVsNJ8T1A5a/98t6iNKvmHoH5a0pHz8NLlBbq54L6VwjLfdZ46xzKf0e2w5zXNnfd24wn78pl3u5S6vtu21Y0q3fPUFU4XaQfPXnTi0LqNBaA/YLKhh6iOPoKvwSrt3+sM0OT+wbD7FtceqUFa4GDFNITckDZuqI6iK3RnbjquKP5NdEyaOAOXiBPE9sHPOtWdiLef3Jt0qy1F3ZubjBmk3fd0/i5ratlmoIT5kCbf7cI5QRU5IA8iDx4PmASTf3Kfr/PeAGnKmR4Ixd9cKd98tzmeff7px7bxQCRsJ/QxZwkwvyWjZb6t+seDwrj1L0V9bz6CMDA91QC8Pf9Sls+kYsbPySpPu5RROK0nlMwj2DrvpG/X7lrGzzo9s9LtdEmjj9qXXMYTZkKj7r3dMoA5UWyGVYdP3SqzqtKVje1Tt6EsS36a9wTln4lflya8WtQtHc79/FH7h/BJsntSzjbfTTp5ypHpd12vtaUnsxlP2JfPnNsllrq+Jx6/6HJZmKLDsxNU8ld6meAILRAAvQuTDT3DPP9ZdlfWj3Dy//MNxExD/+RReCMYyQxaIxr9LDQf5xlxP6zqyPxXK0yayP2TwXFsfnfb4Mc02v7dqPUu1rWFDOPcyrtOA6BACfPBPt8tw6l3U7aWopypwW38q1j55rtIfjzr/Gveqxw22HXlb+z0iuKuf84LbYLqn319FyY9/c/A1wPwoPxLWz4Tih8/b7pkFU5TJ5LX/6irtm6W7a5l/KzTMzNdTpdU+qh9yWk84ei4uiBgBYQJn86b58/rnK57XasaOuSf+XxXJrxczKRG7VH4pqABbPPdfM6dp0H9rnqfuy9wlYfoiuNhXT5zbpeyqO/Jxy9EK9cu0s1a3dkL4pgzOXKaZvZPtE02AvQTTDb0DDPgifv85pgNfUQHaT9oTaZz5+IaGHji0nnZYlBHaaw8lqXaRSo2J8fDN9NKR4czanAQcVUkWT6kyXe7cJqBvlzdDpwEc/0Lmv23L2d2g5n88l1JdrwU+ddxsJu0DenErv7Z13fFOQmgClXG1e9CLYMN2hQyfflMKn783APzrMJpVyccetDd+SqbXb7bxs82PTPT5XRJq1/al7zGE7E0J05aYVXls5U3zgaSBY5zo3UbSlT+mfKd3URSiI75EMQ2381Vf/fngr5Lv89T9nV5SDSeSFE+c26XbI/XYttWr9LKtfN07vJFurksKzz0BpbOpIP3Ng+AfoHJhl7RlSV6+h5n1t5B2jaE3RDSqJsZ6ThXWoLeYO7/NvfhjU87y7DNVYzM6HBGDQ7UUs2gAW038iEk31OF05WOiaSJX4zBTJC88t3I/HjB+ddpsFvqWF8S6tgm2eZt9CCuuYu8SU+9zF42wYu6V9WufHZDdPzShbPzADiM/2QrVMp2N/t8sI9zHHmli7W+aF+6FPc25rYS/8onL9OPtVbLBExwcrrWavKYRXMLgI5DyGSKOrHs0oRXLgLy3bTxnj42oN8N6gtSjifCRY9fcmuXUtf3gHRMYk3vzSETIZcXqNaQSYeZ0CeaAfQyTDZ0NOE8Lkfu6wp8FE9GmsuxIhpuL7280ncF0M29yVD7I6K6O4Br574y4yaPd9Kbg/ka9eaMdGhH1SEO+v7vQmWMSqYDc13FyEqnQZrsvHzQiWDQQCVpPtjnu204myd/TjoGK42XQ/6WopyZAU5SOeV7U6Lj2edf5FU3eUa83nQrfhsSzbRJdvUveX1v8myKx+mpr+I691QHSFc+bSWPXybhTDEp3Sw/HT5o2+6mi1+K8pJSt9Mltb5oX7oU9zat+E2GjMckrE4/5kmjgPCt3aL5a1dpsZkG5j1B5Szoyn6XmMmlyWkaU6+0K/mX1Vvme9AKgqBJhID32Y0n0o9f8mqXUtf3xOMXPteQfRr0bx6y2eaSf4VTEG4fZk+r8xX+LoBegcmGDpyBjm4xohqrtFRHH9FwB1DLK4lGDvmevcsdkfPMY7mnkwcPgZv3pBi0JqWWRUs4j9KYKwFL4wdo5pQ8Z1n97h/ERA1+HKZTDL3XV3dshSLt0h1Y++Zy6Zm8GzkkE1LuzkI9J/v95s7LV9tnuC3ywTbfrcOpT/5k0yJ5FrUnD80xD52kPUGDhyzK2chemnbFUx2Tw6F/b5dPvrckO16qesuDDXnOeTML+DPOs8P5M7WaqmdJ2pAotvXPtr63uDbF01dxA+uOkaZ8WrCOXwbh7DwBFMZchfOepJXGJzzhENbtrmX80peXNHJIl9T6oH3JcTxh4leYnIkfPx2+yLwx7wkqZznGr7lJLpfJg6ekTrjjqPvq40fosG+yxSbfgyYM4r5mO55IN37Jr13KrL7HHL84G2fKPg2nVLp4mh/+zIxe7RHFmagZUflSkOP62jCAjfLSxOtvfK1/jm14eAc9e/ZU/zbIys6zjqVzd9QW2jZpzIY5TpVuno0YVAcYm51rDsbacYMd9pic8aNOZyCbOWVxH3M0bijlGcf6N48Gx7lapIOT5Atr5zQpydUWGQTdmAvdkMq8x9GV/NPh5LSWe+sKpqz4hKazZT4kz/dswhlGnpV9ndO2railKme++uezsfnulfR4VvU2NA/U+x+PShj89chWmvpnU9+9VPpwWW3IFbUluhK1K7uwLZ9WUsQvZThNutjksaeMunjzL2W7axW/9OUljVzSJSVPGHuxfdGfzWc8IfGT1QvteabUOQ/kaRj6V6HDF5U3acq1kVnelw7QiYgn0zRqS1yP2tvEpPke1J6o19zlPKjs69f4O23GE8nLZ97tUhb13XyH/tUn6HOeeh6Ew+l/FKmb9/Mh9RxgA2BlQ6RVWlxSj+BxBj0Bm5Nlw34J4sq1OboizyB3Aqnx99SWuVE6G97QBM1Ud88Dmr+8QPf1lRGHhPHGRT6JuKrjXPctY+2cJh1nnpl5hJIs5evG5oCtcN6lSxfULsKerOBBwc3L4Ru+2eZD8nxPF056eFXfN+jKQ9b8XEgHmK6ccf3jsHrKDWtIXeRjRg3qup/vXkmPZ1VvOQ8k31q872/Wh6DPJpam/tnUdy919UsGsTxgCrwC62NZPu2kiF+qcHa6Rzja2u35wPLjXqqcut21il/68pJGLumSUq+3L/mOJyR+51X89O+GKme+iQamwhedN1H5Z+IXLcO8X7tFl86299MyDr0vj2EMmGgQyfI9qD3Rr3nKeVDZTzeesB+/5NUuZVHfk49f1m7LxpCqLfQkjaSNtIcd+rFWOyHc+QqwsbCyAQabvkJA3bri0u3vz0q/hDMrecd3s6UvAOQH7UsIsyqGT+BCrkBDF6A89jCz6iTGikCAnGBlAwwuuc+NO0T3o62y1uk5y72iX8KZiRzy3SPv4wHA5oH2JcIDurcsV45lfwP//fj6B8jcphpP9Buzz1FX96kCSAaTDTA4XBspyeZiJ47LFY+Yy7AtdXPpbJb6JZxW8s73DShnALBJoH1JRG6DuS9rxwtTdPC4enKY/Dt25IB3kz3IzECPJ/qZrDiRvSlqC5G3mQLkDbdRwIAI3ownsw2bAnXeRKg39Es4beSd7xtRzgBgc0D7YkeegDBDkyOyoazSkJUgWEbeBYM8nuhXXP73T9PkpJpokD0oAHoJVjbAQIqziWB6nTcR6g39Es708sn3lryPBwCbB9qXuFadTSMvnZ2jc/rfJUw0dMnmGU/0C2eirUK0zG0FJhqgF2FlAwAAAAAAAABkCisbAAAAAAAAACBTmGwIICs3AAAAAAAAAMAOJhsAAAAAAAAAIFOYbAAAAAAAAACATGGyAQAAAAAAAAAyhckGAAAAAAAAAMgUJhsAAAAAAAAAIFOYbAAAAAAAAACATL008fobX+ufY5NHQz579lT/NngGPX6QzNjsaTo4UqRGbYEuXXugXw0wfpTeP1TRv7TUbszR/EP9SxDbzwFsgNj1oV+g/uWutP80HZssIo0BNq0yTZ86SbsLVbp59iqt6FehM7Sf0G+2lMrlOf1zbK+88m364ovf6N8Gz6DHr01pgmb+8i/o8Lvv0Z69086/0fI36T/qn9H6l/o9LmOzc/RXP+D3vfZNqn38GbW9RQbvfz3D31OmF3dXaF2/bEhD+eMfvUelF4v0yP/HXlM6QD/4kwoN8Y9D1AiOr1Z6bZreHJZ3ulVpeb49DdxsP9ePVN6/GlguoA8kqA/9YjPVv95Qpj/80720fahOT+59RE/7vQAl0Ow7dT/b/PfaGI2++nv6/NO1vq9PGyGXfsWMa8LGPc7J83+lH74bPO7ZHMo0tv/P6Ad/OkPvvKvKdvhY8lV6691dVGhUaWkA+pH8bN72E/oXbqPY5KSTfv/4ERopFPUrSmFkig4eP03TJf1CU5mKBf0jf2ar/rGFO9wpfZWwUafn6ieXMu2qyLHqVO+H3nhthZ405Ic61aortOa8GGzt9nk6d3ZO/7tI9+VzgWngZfu5/qPzfiDjtkkkqA/9YvPUv16xTfUhfJLxeBAKkFtpgqZnD1Bbt+lw9Z1+3JcWRo7QsVNHaUy/BHHl06+UinqMVKjQrsAM1uW69qjvrtKX9h+lmfGy/s1OafwonThzkg5OVqjgKudqLBlQrkvbyHlbY30g+pH8DHD7CQMLkw2bmFmK5Zw43LhIV8yA+zIPuGvyjiLtPuIfOKmGrsEde5DS/hnaXajz3/mXwE6k3xrKVVq8IOlynuZvr+rX4jDxTNqR2n6uHwxy3DYL2/rQL1BGu25ATzKck63jR7j/0y/4lcZop1O2llp9rf535cYSOXN4fCI7uT/dSd/mk0+d3bpVTWg0eFy0czQgj3S5bjzvxzUNRRo5dJJOhE6URXPGkocqKv61Bbpy2ZTti3RzWcaKFTo4O+G81yiNqvfXHg/ArXh5wiQN9CFMNmxWpQN0WE803L/MJw4PV1sN1xqfUFzTV/j8s/imQ61WnU636OmZJmgPf2ejxp0Lvymw090sDeX4KI3w/xJ3pLaf6weDHDcYDCij3betqPqQvjwpCyCrGU7NqZOtRpXuL9wK7tt0vIP6vrWHt+jSjarzc2HrNuf/EFMudXaCKnIQzl9Z2RWUR+bkuVHvv0nYtdvzdJPHbbIK4diZ08lWObjGkrKHgOzjs9Ys4Ku0cvu8M5l2xbe/jzN5w5/pixWuvWTQ2k/YFLBBZIDB3yDSbMzDHXTEBjNm5UNj+SJdMlcx9WZqteUlKkxOUcP1efX+Ot28QXRQ3hP03frznu/MVNimQ2UaG5cBwjqtPHQfd4JmzhyhkdoCnZPOUIevjVyNuhAyiAyg0oKciZzFBLMqtp9LqjR+gPZMVVy3z9SpUavS8p1btNLhuHIF7zB/trVUkgcZy3fp3m0eZOhXFE7bU3vbbtEJltEmUTzwOXF8igomP9uElw/n9Yb6nEqfKQ67+muDB5nLC/z+zPOEy+XsDE2O6BMR1qgtqXzYJmWxmGlZSJzvqetD0vh588H5/P5pmpSlueoN/PkFus5/Cz52uvTsfv3LM36uY90hmt63l3bz5+SE6T6X5UWun22vBRw0fn13Cw/n81HVr2S6uVmJj7fPezwnTkuLtOhp7420+aA4acP1Qz7T6f2qbEXEO6LtaiuXss/SEVfbynG9GdQ+pUwXm3bQprwki59tv6Lj1mlDwqB80K8Rj1uu0wyHlcc5vu+Q/TgOjqiLN+31qD/qreT34UMcd/5Zwnf9Wqc23qRp9FiynT8vkta/JOkpvOXa+XxO/UpftJ8AXYaVDZuRaznnvYjGaq2ubpVwz+Kr+xbrVH+07iz7LBTNDLhe1bC8SLRLTk6qVA34bnPfY+6z/+PTdPDQETo4NeZZJljaz4MW/r+5KtK8L9OnkfD+9OasfZIPMdvPJcKd3zEeUHgHa9yp6X06wq9qyCBPX8FrdpyiSCOTcr+xbwmmrGKJNSBkWd1v23HW3yy59R1P14kG/316ljtzJ33031ihUAnZwyQFGcDKPa6uAYVo5oNTjzIsCxb5nqo+RMbvaHD8TD5I/pnPuwaEQu5tPxy01DyD9Ox6/cs1frqs0yjNyPJ+/pyDy/LOfXrJv+u13fu8y5wT13ejQ77vcfbsCe4fbMhg/sTx9uM5cZKl4YFpmSIfhH81w2V9RVf/OUjHK7lm5UMAd7mUE/O2fZbkg76Dp0oXq3bQsrywRPGz7ldW6XFVxjT+FZlufFJ6RE62+STYTDQI06/wuEWNiypUGXf+opn9OALajn6pt8xZYSO3PsRd5cDjKue2oQ5jyXaufrjr7SDrWrsb0o85+qP9BMgDnkYRYNDjV3r7PZocHqLaL39C/xo28BHcQDsNW+Mx3ftUWlKzC+4z+uSDT4lee4uK9Y/pV09/S2Ozp5xZ6ls/fUrFvW/R9q+Cdhg2n+/mTu8v044/5OPLTr3NHaF5APHn7/Jr/ONXHPZmuHR4vlqi6/+gXvvy6Ud07+5i69+LspMGn3/yiwRPzpigvT/YRYXaXfq5k25x2X4uCZMWdard+Cldmv+FjmuVai9epu9Uhml7ZQdteeLf5Zg7TlkBIp9b/pCu/9Pf04cf6DR68mvasmMXbS8M08vuJ4x8+Rn9qpmWv6bSXtl5eomu/O1P6MPm6/pfRrtRmycLhOZXaZz2fH+Yhj7/mD50p/Grb9M7nM9DHIfthd85aXOd08YJJ8evxPErDA3R9m/9WteFtDg9/+Yd2i4/cprc/NlP6Oc6PWtc5px8kJEGn8hks1O3Xb7b14dW/OSKzK0Ff/wqwfHT+fDVH+ygt+RqEP/95s/m+bMS3iq9KL/lDBqHfv/Mlw9ZpGcO9S/P+JmyzidmcpX2ygWuszr/5LUh32utdl5Y1HdHp3Byvks7HJkPCfAJ9Y95MO98Jcfn7yQ+EkYp11te5raA4zkc0J5Z54Mk61H60Q/30E4+qHPM//7P9GnHiJRpVPpFp+8M6vtafVRt6e99aao/K33qf7xNx/54WB13weQJh/fFU1pZ/61+P0uZLsnbQdvyIhLGL0W/8uW3XuWyznXi91Vn3NJm/M/oh9+Tiybz9IHr76pf+Z3a/f+zbzjHHPmGOw30kxXa2o5+qbduv6X1Tz/i8H1T1dfKW84TJT7/tL2+jk3POPWk41jST8fxq6+GqNKsf+d12nShnc+g3U3Uj1nnQ6f4Zdx+AuQEKxs2neRPg2hdJW6/KuyseigdoMkRfnl5kVaa7wnak6H987lwZrW50Xf2knA9QcPMdkdcpW2u5EjUkep9LZrpFpPt52xwZ3XPs4x2ldYeXlVXNQKWA47NcscpV3v4b/Oy/M/997UHtLigNjhrrXTxyWmvjrhXD/1p3LyCL4NW2fzQs4fJA5rX8aPCttCrQkmo9GQ8cDx34ZZnWbKTD/r+7czTK2G++8WtDyZ+ctJw6Vp4/Px1z+SDc+Vy+SKnjSydNuFdpZU7Oh98MknPHOpfrvEzV8qlTJur7uuywZ3vNc0db9v6Hiec6vhZlGsemPMJtZAlxd6VBVyub1+lK87mdO0b+tnmg/R16raJOt2/cbHjaoaWsL6vzOddB2hGL0WXfGm/Qqw/SxU+tiyf1sdtHpjD66nT6dMlaTtoW16UpPFzSdqvPHxEsvd18L4YOt047td9t3h6Vzw9oKp8ycho6wkLIW1Hv9TbIGaVw329yqH9qr/ex8LiKrvZ38Jb/9TfouqfVXqytO1u0n7MNh/ixE+VgyzaT4D8YLJh0zEdu+k4w5kGunnLg+lQnYZ1leq6dR7bp5YdLksHHTVgTzowyIgTPj7JqvpmOFS46/TkUchAxkzM8GcTPTnDteQyEdvPJaLzrcCDh9kJKrWdOXPH2xZXM6iQJbRz9P6ZgH9yj6vz3hA6bt3dxEsvZY3IrzFnyWN7GpvBZOjmbmvqtqFM6Mk5M3CMkl162eS7X8z64Iqf3AMbJTgfON5ywhGxp4unfckqPXOof3nGz7TftSVXmTb10PVaWztvW99jhtNJ46D+ISFzC5zs/xN27/LaIzU4959cWuWDW0NO1hPQmxhK/TvmScuTrVsVuF7d5BOMtqpl+k0+UWrcUBMAUdKnS9J2MGX/kDB+Hon7lXXdDrZPGjdvqXTXF4fZHLI1UbTyWE4yXbdSBLUd/VJv07K4eNSqf3O5tPNp291k/Vh/tJ8AecJkw2bVsYMIWAHh61CfP5eVAnudBlKtauD2MmpHZvP5XBtK1fDLBIk3vrpDqN2NuJprrkYlmxxRJ7TJZ/ttP5fUyjVzT+YROuZ0hqdpZj+fgOq/tzED5RRU3DpfEU9Fr1QJzy/XfbWecETcb9sFzTqS9YqaDhLne5t49cE+fiYfpA4EDwiD2pes0rP79S/f+JkTR/drQfVQvc8Vb8v6Hj+c3vjZMvELnywOY5cPjrVbdF2uLpp9D2TiTv8piol3u7qz6aKsknCutupXPUy/GTF54JY+Xbh8RFVwv7T9Q8L4uSXvV8ykq/8pW/qJCrWF9jAEXSTRKyRGdqn9EoLC0S/1Noyz58eZk87+EHILgX+1RzNdEnPXP+eFNlm2g7n3K33SfgLkCZMNEKx54ta6iulvWJ2Nkgo8UJCZX90RBXWURj4NZWvFhVBXK9SqC7PhpUN3CJFXROK8p43u2BLP9tt+zsYqn3iep3OX+eRzWa5w6Q2LnJPP9uWVJt/kKoT72fBB/4KvGlgOYpPqOJllTpb9V+b167VHwYN9keGqnM4nA66JvkzTK1m+t4lZH+zjZ/InvA4EtS/ZpGce9S/P+Jmra+7Xguqhfp8rTLb1PX44w08y4ovZpgS2CXb5YDjLmS8vOI+GdibuTh3tuHGs+r6gND1Ply5cDXkyhGJONMPT1S2DdEnYDqbtH5LFz82uX1GrEopUbC7qCNkU0ghMq4BbKXzh6Jd6247Tw9kcVE5+6/x9cltLyEoXK3m38/kerz/aT4B8YbJh0zHLCF17FwRQtxhw+9ycZQ1oWNdlHwR5jJbpiHSnGLLMWjWmeTaUOsyewZPsRM2d6RQPcBrROyirTsPbAXVmOrakJ6W2n0thjU8+b/PAWTo+HjzXGnLyORM6cI5zn2ewGIPYDJhOPmwyq2SuOPjTWL8eteLG1IdkE0+2Og+OUkmY74ZdfQjQnMj0xS8sf5rsTi7ipWcO9S/P+JmTQk+dC6iHEZNo9vU9TJfLdRvdzjNPm5BFPsh91xfm6IpZ5XB8LmKVg/k+m77PtkxEiU4X23bQrrykiV9AeY5D73/QDK9+ooJZneln2j3/SWBz0oLHE044Epfr3qu3sn+IezWD2bcjkLmlpsNYsk1E2BXbMhHSvnSr3Q3rx7T+bz8BsoPJhk3HXPmv0GTI1Ux59NRBZ9ThXjoX0NCt3aL5a3JVRv/efE9Qo94+E991ziCiTvfv+AZG2zpvDCmas91JOqAYA7ZAtp9LZIJmwgbEsvnXkv+Kj9J8BGrF+9hQt9J4OXw5sRlcdFnQ1QlDyrRcqRH+NO40SSE7uzv1IdOJsvZ0VuT52nqTqNDBUVJ2+e6XrD60bz7nkEcGOlcRmS9+Jh/CJ3SiBlsp0zOH+pdr/IKuxgbFMeB96ep7XuW61Y95H0HYUto/E7jpYrp88Iq3yiH+97VL+tn06ZK0HUxXXlKkjW2/srZCTyS/nPC2Ljy03SaghbZ7zqSFtHNjThyCxxP9Um8lPNJHStscdzWDXt0RMZaU7/Ufz9wukFc7n7bdTdqP9Uf7CZAvTDZsQmpGnhvDyRnvM5SlAZUOR+5d5A7Hs0mU7tgjT9DNe9ydotFxNjt7FVmeGbDKosivNze0DGVmu70daWl8gsbCehAX6Wia7ytxR+FO5wi2n4vDuaXEGRCfdvLdEw3O+xl9tauNvj/V2dzs1AFP/EumzBw6SXtCBrdNI3tp2hUf9Vn+Pv17NorOc8ebQZR4ybOuuUw7TyNh/sG0Gkxy8A7N0QnPHgZqAPZ+c2f3kHuqE3L2OmEjh45601LvSq8G9CH1yIJ1vnvErw+t9kWe5S9/52PqcuI8I975nvbBX9RkkcMMun1tUJbp2c36l2f8gk4c475mW9/zLtemnI0cUuW6yYQxqB9jtvkQyr/K4Yjv+fn6+6z6Pot+M126yOcStoNp+ocsxgWJ+xWzb0ORdumJl/ZNIY2IVQvNSQt9r72vX+mXeitkAupgnNUMPuYpDk5b75vQNns+SFjcr+fdztsez7Yf65f2EyBPL028/sbX+ufYhod30LNnT/Vvg2fQ4ydk8CCdSzCZ2ZYOR/8quOOQwYbchxa2iZNz9VhO6oLeoz/fSdT3xzU2O9dsmD3f5w6DPFqoww7DJj5+0WHkkzd5vrL+ranBnXjQTuNNtp9LJixOTZwushNy2/E65J88Gkp2bA4OZ5mmubM0nbNfFnnuCA0jD6wvn6fHoxJ3cn5ubQqqw8bvkatUhZAwyuZl0fe5JhGS16JRpZvVIh1sC2c61vnukqQ+uOugmwxml59XAuJnygjH/2zwpE54+5JFena7/uUbP5X+qtx7X3MfPyJMVvU9/3IdVs4Ub/yVNPkQg5xM7NtGj11XhVN9n86HpO2PdbrYtoO2/YNl/BSTl/pXn6j09rRlHLbQsUDpAJ9YTlEh5D2t7wlK036ptxKPo7SnvsjplbyP86RlG3+6pKl/Nu1LuvoeVo/C+zGtT9pPgLxgZcMmJRvFOVdi9O+GNKLOs4F9ja6aSY+YHWZRM8hmJj5a9PcnF77sPXxJXcva7Xln9/6WOtWWFyL3eZClhfOXl6jmSlhnt/GlTlfJbD+XzNpt2SBwwXl2tjvvGw21dDL0hPPhVX1/vzs9THmZ8z3L3W+VFi+o53W7Sfzks4kH4GE4jEH5JVdqpHNulk9PQM0Syrt0icMon/eki4lfZhMNQvJa5UGTSf8LV/UVNH8407HOd5ck9WHlmlzp5fIsx5NjOOkoS3NXqJjhJl5KFunZ7fqXZ/yC7kEOukIbESar+p5/uVbljPsxT6FW5dLUe680+RCDrHLwLT9P832BV7BjsE8Xy3bQsn+wjZ9i36+YR3/KGCFwU0gjcHPIltb3BJXrfqm30rZf5fSy6+NM3+I9JpcfPqFuL2t5toMiXX1P3o9pfdJ+AuQFKxsCbIaVDS1mNjV85hdgYOkrV5TpygUIp9ubjFfsAEAKm60dRLsPqaAfA0gCKxs2vQd0b1lmUit0sO3+Mv0DwIAKer42dI96FC2nd9z74QGg6zZVO1jiE0W5NYJPFMM2hQSIgn4MIBlMNoCzPFp205YNbQ4en6P3z6h/x/wbXQEMmFRLpqGdXDE8c5pmPBvMMbMxlnNvb6fNWQEgTwPdDpbcG9rKigZZyVkn/waZAE3oxwAyhdsoAmyu2ygM2XF6hiZH1D2KoiEz/1giBgOr8+ZRkJBenmzakHZBG6kBwMYZ5HbQxE3/qllt1gmbB/oxgExhsiHA5pxsANhscN9ld7RPXDobXVXv0r3bnTeiBIA8DXI76J1skM0jlxeu0goaIegI/RhAVjDZEACTDQAAAAAAAAD2sGcDAAAAAAAAAGQKkw0AAAAAAAAAkClMNgAAAAAAAABApjDZAAAAAAAAAACZwmQDAAAAAAAAAGQKkw0AAAAAAAAAkClMNgAAAAAAAABApjDZAAAAAAAAAACZ2lIql+f0z7G98sq36YsvfqN/GzyDHr+sjc2epr/6wXs0Wv41/erTNf1qlso0feq/0g/fLdOLuyu0rl/tPf0STgCAZLrfzvcn9H+9oWfL5/hRev+vZ2jP3mnPv9KLRXqEzASATQArGyCd0gGaHCk6PxYK26jk/NRZaf9pev/MURrTv0fbRsUC/69Rp+fqhdz0SzihNyQrLzAo+iXfrcNp2c4PvAHv/2SiY2z/UTpxao7Dq/6dmD1AY71WAHLJBzulogqXV5WqD/WPAAADDpMNkM7aCj1pyA91qlVXKN71hDLtqnAHHHfwVNpGMtaixnrM789Kv4QTekPC8gIDol/yPUU4rdr5TWCA+7/S+FE6ceYkHZys8Am8fpEVRqbo4PEem1jLIx8srd0+T+fOzul/F+m+hBN9BABsIphsgJRWafGCdKLnaf72qn6tE3OlJt7gqTTKgx3+f+3xA/VCbvolnNAbkpUXGBT9ku9pwmnTzm8Gg9n/yRX/Y4fUcRu1BbpyuXWyfHO5zq9W6ODshPPe3tD9fMgG+ggA2Hww2QD5Gx+lEf5f3MHT1q1F/m+d6nnf39gv4YTekLC8wIDol3xH+ewNvd6vlA7Q4Ul1zNqNObp07QGtNc+MV2nl9nm6cmOJrvDrfW0j6gPqIABsQi9NvP7G1/rn2IaHd9CzZ0/1b4NnsOMnm02dpN2FKt08e5VW9Kvy+tj4Nv7/Oq08dF8ZmKCZM0dopLZA52RwIZsdHarov7k0ePBx4VbIbD1/x6m9NFKQAUwn7eHyhlfuIZ2mSVnaqd8hV16uy4BI/25vY8Mpy1YPT/H7zQdksLd8l+7dziJuhg5nQ+VnafwA7Zma4jirvzYaVVpe4PCHHNC54jVJdP/yeVqU95Q4zY640ow/fzPo8yVOj30zzn21zejxe+8vLdKip7wZ6cIpbNIzWfxsy0tYHfThQf+J41NUMHUvFW96yu/Jyie/f9abf43aEi3fuUUr26RNKLbSzH2sO0TT+/bSbrmfWvKb026R063ttYCD5lMfFFW+Kq68rHP8uIxJ/NoOlqadMJKkZ0s+5ZNZtfMiz3JmI6zu8XE3ff8nzPH4hPjGHM0n3lcgaf55y0vsdj73fDDSlc+2+gsAsAlgZQMo49N08NAROjg15tlcqbSfO2f+v5mJD97siDvcqPsk5Z7TWB08a7uX0Sw75Nfl5MvcQ6r+6CiMHKHD+8v6txQ2LJwyCJpTy1bdH6AijUweoWOnDmS3IVtpjHbyMRoc3ulZWSrbGtiJQqFCB4+fpumQAzavsnFmy8Dp/eM8EHenmXyXryA49/4e5/RwDdAcfKzdh07SiaA0SRVO+/RMFD/r8rJKj6uyFLlIxdCM5UH4kSk+HA96nZO2lEx6Pl/nnxOWT/N+X/6pe7dP08wuGfSrNFN0XaBRmuH0cyYVBOfZzn1SFryv7d7nX46dY30QXD5V+XLnJcfVxG/clyap2gmWOD1b8imf/FGbdl50rZwdjUyX1ND/KZwOMtEgJ+33kk402JRry3Y+/3xgKeqt4a6/AACbBVY2BNh8KxtaVzO8Vwb06xRxtUBfYYh/FYRPJORKUccrZJp08MennM6feKBQ8Fy5k6sM0vnzj5lc/XXLK5z6ODwAca7aPnrQWrJamuATTj4x43yxu8oUwHNFSJbJzvOgclXFz7lKKicv/HNgerrKw1LRORl0rqrdMWHmeI6T98qg63jeK3BlHshP0zEeOEs42q70WIczTXpaxK8pYXnR8WssX6RLQfcYd/p7Uub7POVzkcunfHec8sk4bjcXWlf6nZUH/J2SDZ52Q9cF53X+PlluvebOT/9rnmOmyT8bpu1TZWy+mbdcPvnES8UvoHw2Jcx3m/RsyrF8+um86pju+n1pylnzSnHsdEnC5Df6vyBjs3PO9yWvX5blWqefkrQ/cul2PtjGz0N/R0Z5BQDQL7CyAbi3lKsL3NHX1IBmq365edUh4mqBusJQj38/qVxdkP8n3BzLuSLBJ17nLpiBllillTtL5GxCnbWcwjk2KwMYHkDyycy8LA93H2ztAS0uqM8VitlcuWpeEZJBkWymZQZ2go83r49HgY8PM1esKzy4KvLAjk+EedDUCjPH03Oiw4MrPZCUQaDzXuc3wce9fZWuOJuNFWnnqDd+tuFMl55J4+eSsLzQw0dU4/8VtsrSbT+dbhz36xltxmfS01s+zXd3Kp9MBsg8iG6VaU7Oh1fp0o2q+sUd7218UiT/l7wzeb5eV9/vfk1zroJredeHJj6Jk5OcFi5vEj/ZEC90ooElzHer9GzKsXz6xG3n05YzmTy5dC08XTqurLCB/k+boIpTOJM/ltG2XNu2837dzod09VbTx3S3dwAAmwEmG4DG9k05V0yqvnWDzuvcgT95FHbCYx4dVaXHcXpsoU9Ekm2Oxe+Xk9WIE6/MO/BcwmkGd7JUtPUcc88/c4U4I2YZ5/2FkKsva+vhg1czQOOBb+OGGhhGMUuQ5ep82NWmtUdVdfLoO+m2C2fK9EwYP4+E5UXuDa87EW8fRDeXbi/FueIWT6t8Rq+U8JTPkjy7nv+vJwiiuONtTiA84Tfp43rNvK9RN+HJvz7ICZvKhyk6PDtBpbYzGj6hi8qEJPlumZ5NuZZPt/jtfNpyJiuforTKSnbQ//k0Am4hiJKiXKfqj5q6nA9p662hj9mNMgwA0Msw2bDpqQG+XL3xDjD0wL92N2IjI3M/afyrZWPmvsZYY6OyvpIXfqXFXPnJugPPJZx6Z+r8mHByvOJmmJsZLEVMHriZgWT4YD2MZTjTpmfC+LklKy/CnORWaJf7BJcHts5O8LWFxGEI5y6fwXkRVD6bryW8smvy3f1aUPqo97nqTO71QVm5dpFu1urOve/HnEmO0zSzfyLySqqRJN9t07Mp1/LpFredz7ecZQP9X5OZzErIPv9S9kdN3c2HrMqnOmZ4XgIADCpMNmw6+iRHU1dRq7R8e5XW6rKkXYvziKbEj3FKOrgwg4jwKy1BJzbp5RNONUDh9LthnmEe/i/qqlZ8Opy1RwG7bGtmwBkwcDMDtHiTBzHT0JxAea7M2YUzbXomi5+b3aB55bEsvS1Ssbmoo5ztppBNduXTvNbxyq4n3mZ1gvu1oPTR73OFKf/6YKzSyrXzdO7yRbq5LCtt9EaUzqRD1O0ayfLdLj1b8i6fTbHb+TzLmS30f1mzz790/VFTl/Mhm/KpjxmRlwAAgwqTDZua7iQ9nb3skM8nPVM8sG1E70gdZzbfK8bgwq3jQCPlIDpUvuHM/P7zMHpQFrXkVi0dDhq4dSOtdTljQSs+7MJpm55p4pewvBh6H4NmePVO8I3lxWTf04lOz+zrUcDJkKkLnrQISJ+IOpNbffBbW6WV27JPwxydu7xAtYZMOsyEPpnFOt9DBaRn0waUTy12O9+tcqb3Tsj+RA39n4e5ZcG9b0UmQsp1ynbe6Ho+dBRVbw3znrC8BAAYXJhs2Myck5s63b/j68i3dd4YSzSvqsTtPc3gKSazfDF8oBGnk7eQUzjNlbRCxfu4NbfSeDnWcu44zJXj0CW340fVzuaBSz2TprW5glihyrjzQpvS/pnmDvDuQb1tONOlZ4qylLC8NK2t0BNOIxXe1glOVptCGiY97eqRe+WFm+yErzdNcw+gg1aqBJ1UBLwv7/ogqytmZJ8G/ZuHbE635F954mOV7wnTs2kDyqcWt51PW878m8Q6nCeQqBPOzE/U0P/5PKCq7FrLbfZk6IqesPqXvFyn649aup0Pim291WJMrAAADCpMNmxiFVmWG7CpUpFfl6XcsrQ0nLmq4h2YlMYnaKzT2cDIXpp2Pbu+JAPK2QM0pn83moOIsP7ZdOAdBoXWuh1O/UQC2Zzu2Cn+Xle6qWPJc8dP0p6Qk/WkVDg5Wofm6ITnnnQZMJ1uPoKsduNq+xUfM0BLMOBXtwnI8U7TjCsdnRMIiZvsTcDp5t8czDqcadLTIn5tYpaXFrNvQ5F26YmXLDeFNGzL5/Pn6uR/5NBRb1qOH6CZU/qRe8w9gA46gYj7Wt71wVlCL/s0nFLl03U4/uMEzehVNx3FzHeb9GzakPIp4rfztuXMtBOFyZNOfR8rcV7o/D5xXD3qVISfdNtB/9fOPN3CyQvfRJw84vHEmZNO3XS/bluuU/VHTd3Ph1T11kcmUpvfweV8zHV8AIBB9dLE6298rX+ObXh4Bz179lT/NngGPX7mWdpC7o9ubjbGg4nmM6/lEU8d7hsv7TcnjF6e7/Qot55nHsD7OfPequt56F7m+OHHs5VjON1pHsB5jj7nQ/rBpA4nD17lnvRCSNxk87nA++F1OEP/HsJd1trV6X7bYwWzCWeY0PS0jJ+SpLx4eepQjDqXXJryqZ8Lr3/z4JO0m9UiHZwkTx6q/Pbmq3rNffyIMOVWH5SwNqyJj+d/VGdL0nxPnp5NG1Q+RVgaeT+XppyFtxON2hItP6+Ep4sF9H/RoutEUJttU651/GzbeZfu5oNIUW+bQr5DnnBxIfsJZgCAXoKVDZta+PLEOFeR1m7PO7u4t9SptrwQcZ/rKi1euEj3PZ/h/lY67Mv+Dr7zEtGOV36s5RjOh1f1/eG+Y/EgW47lPEdfv5aOCeddusRxk3xz7nLQmscLGdh1XPIaYuXaHF25UeW00y8IjquUE3muevvgLF04bdPTNn5KkvLiZR79KXUx200hjTTl8wHNc1p64iV5d+MiD5Cv6u/jzzUTNOgecv2a5/gRYcqtPihrt2VjSBVHTzkz8Yw8XtJ8T5qeLRtVPkW8dj5dO6jaiSWqST5Imjj5zSea11aomNnmkH7o/4KYOuGtg5wvMvEW2GbblOuU7bxLd/NB2NfbFvkOLt+uSMrx7i91aVUmAEAPwcqGAIMeP9iESgfoxPEpIqsroznql3BmZbPFFyARfUUYV4AHC9o9AIBNAysbADaB5rPCra6M5qdfwpmJEp9I8YC70IVNIQEGgXo0JbcH3dqXBzbEpmrnAQA2OUw2AGwC3bvlJFv9Ek4rJfcGZnJlT+7hbd8gE2DTkCvcZ07TjGeDQKY3iFT34nfarBH6zUC38wAA4IHJBoCBF3QvfS/ql3DaKNP0kZP0/pk559+xQ/r58TeiNhUD2AyKNDJ5hI7puuH8k6dQjKgT0vuXgzdIhH41yO08AAD4YbIBYOB13mysN/RLONOLuzkfwEBbu0WXzrZvEChtQPgmstDfNk87DwAA2CAyEDaIBAAAAAAAALCHlQ0AAAAAAAAAkClMNgAAAAAAAABApjDZAAAAAAAAAACZwmQDAAAAAAAAAGQKkw0AAAAAAAAAkClMNgAAAAAAAABApjDZAAAAAAAAAACZwmQDAAAAAAAAAGQKkw0AAAAAAAAAkClMNgAAAAAAAABApjDZAAAAAAAAAACZwmQDAAAAAAAAAGQKkw0AAAAAAAAAkClMNgAAAAAAAABApjDZAAAAAAAAAACZwmQDAAAAAAAAAGQKkw0AAAAAAAAAkClMNgAAAAAAAABApjDZAAAAAAAAAACZwmQDAAAAAAAAAGQKkw0AAAAAAAAAkClMNgAAAAAAAABApjDZAAAAAAAAAACZwmQDAAAAAAAAAGQKkw0AAAAAAAAAkClMNgAAAAAAAABApjDZAAAAAAAAAACZwmQDAAAAAAAAAGQKkw0AAAAAAAAAkClMNgAAAAAAAABApjDZAAAAAAAAAACZwmQDAAAAAAAAAGQKkw0AAAAAAAAAkClMNgAAAAAAAABApjDZAAAAAAAAAACZwmQDAAAAAAAAAGQKkw0AAAAAAAAAkClMNgAAAAAAAABApjDZAAAAAAAAAACZemni9Te+1j/HNjy8g549e6p/GzyDHr+WMk2fOkm7C1W6efYqrehXIRtjs6fp4EiRGrUFunTtgX61j40fpfcPVfQvLbUbczT/UP8CAKmV9p+mY5PF7tWt0gRN79tLO7l9KuiXGrUlun7tFq3p3wHSGLj+D7oK4yWAwbWlVC7P6Z9je+WVb9MXX/xG/zZ4+il+Mij98Y/eoz17p+P9e+2bVPv4M/rS+fSr9Na7u6jQqNJS8zXIROkA/eBPKjTEPw5Rw5Xm/av02jS9OSwxcqvS8vwKrevfAPqZak9fpRd3N7JMl+kP/3QvbR+q05N7H9HTrBsObptOHH+HdhaGnPbJGCoM05uvlenFx6jPoFjXhwHs//pRb7RnMWC8BDDQcBvFZtNYb125Km1TV7Xcr0E21lboSUN+qFOtujIQ6bt2+zydOzun/12k+xK/Rp2eqz8D9Lky7aoUe6BMb6OiNMyNKj3OvOEo0/SRKafdlyuIV5r1eY6u3KhyW7WIFW6gpagPA9j/9Z9eac9iwHgJYKDhNooA/R6/uEtw474PoN0EzZw5QiN8wnIOS2RhIPRImXZWHkxRoRvh6OZ3w4BBG9/fkH+9A3kBmxtWNgygrVuL/N861Tus1Yr7PoA246M0wv+rPUbHCQOiV8r0NrWPQuN59g1zabTifDfqLXSENr6/If96B/ICNjmsbAjQ3/HTM6jUadNH/+aQZRrbP02Tk2owKmSZ7fVrD0KXtJXGj9LhKX6/+YAsgVu+S/duR33mAO3hz4wUZKJD1Pk4VVq+c4tWOqydszmercThDNkMiBpLdOVCnE3XOP1nZ2jSt2Gbc7xt8t1Fun/5PC02v0jnX8PMlCfNv6TH81KrYijyPW5p8t2OXfza4lXi+nRkbyvcDa4vC1xfAsKcZ/lMk3/Jwpm2nNmli30+JEkX/s5Tru+MFN6e2uV7eDifj2a54ixuHEPiV+Jw7vOGU9L+/tIiLT5c1S+0S1OPkvGWT9XOTPFx1F8bfJzliONYhzNxuqQLp+h+PUpRHzhs6fo/y/jl3q8klbL9TFTOUuRfShgv9ft4CaC7sEFkgL6OX2mc9nx/mIZqd+nnn0a1Sq7NIf/Pq/SjvzlC3xsu+jYM20Xf2VKlXz39rX7FkE7tFP3x9/j9nv1vhqgwvIve9GxC6cIdzI8PvUkFz4eGnI3Jdn5/jEovntGjdf+xhOXxbFmEM3gzIO6QPvlHutOWfj6ytFnSP2DDtp3fL1PpGzIAe0affODaWKj0R/TO1DB9Vb1Dv/rqj9Tn4+Zf5PE4ft8Ybj+ez3fffo92dnhPk3W+W0oRP3e8XuIBwo8Pf98bbtm0r+1zOZdPm/LisAhnmnKWIl2s8iFpvktbyQM6T9DCSDvZFlbL+HXIv5f/gMM5xAPLLDYSix1HTk/fJnJy8vejH77bFk4aKtL2yls0Gpjnil09smDKZ6NB33rtPTokJw/uw3BYJe+3PAneaNMmnFbpkiqcOdWjFPUhVf9nG7+8+xUbKdrPxOUsdXtmySIfMF6K0A/lGiAhrGwI0Nfx44ZKZowbyxfp0u3wK09OA3p8ilv3OlGh6Ew6tK5wyCzuSTrorPsyM8EGDwyclRP6qsOjB7Rm5jRKEzR95AjtLvDH2q7K6ZnlAn/uxjz/zYSNO4fxaTrMYS7wd7bP/Noez5ZtOH10PnQOl4kfZ4WZKdff61zpcY7H/DP+Jp89+bfIn5Xwxsk/xt95cyHm8Tz0d7R9d5CM0jO2NPHTYSX+21KRjkn6ytWOO6bMcbqOE614rijlXT4ty4ttOFOXM5t0SZMPzKpc68+H/t3PNn5pw5lGgjjqfBfeK35cb/dP0zE+WZYJiuB6a5N/llzhlPBIG3OPv9c5DOfDDOeDs3qgrXwKi3Dapot1OG3LmUiTDwnKShAd387tnm38dNxy61cs6XRI3H7alrOmlPkXW0b5kLi8SLpgvATQL7Bnw4ApFdWyq0bdNFLBzL27BW54afkinbvgXsK5Sit3lsjZHNhnbFYaXm6oubGbl+WN7gZv7QEtLqjPFYpl9ZofN/IyyGrhAdfDq3Tp7EXnO/0NaOrj2UoYTj+VD533w1Dx48NxR3TpWqsjE87xblSdnxu+HZpNPnvzz4S3U/4x6fi4cww7XuQTSvRTTBLdU54yPeNKFz/9FACqcKcuy9gvOs/7bpU5TldPHPIvn7blxTac6cqZbbrY5gOzLdcJn8xjG7844XTSsxtPCIodRx4c86BWyODfSXvnN8H19vZVurLMg3Yq0s7RbPLPlimfzmD/LOcFf2/zMJwP8zofqLCNSs6LbknDaZ8utuHMux41pXxSVbL+L0X7mVO/Ysuu/Uxb/1jeTxrDeCk8nXt4vASQF0w2DJhkm0PqzixiBYS3gZygitPyVujg8Tl6/0zAP9np3Hmv3yrVnVHDFB2enaBS28iPG/y2BjTN8WzZhNPPPHKqw6PrSgdo0uk5l5wrF1H8k0et/OMBZNz8cx3vSofjRW5kZDaw6zChpWSRnjGljZ8ZoPGApHFDnRBEy7l8WpcX+3BalbO06ZI0H7Io17pMx9vAyzJ+McMpn0s0MI0r5saTpf171YCeB+VhVxnXHqlJkcLWbeoFt8T1yJ7p7+4vhFxVXFsPPIlwJAxnmnSxC2fO9cgtUX3wi9n/pYpfjv1KCjbtZ+r6J1LlXxIYL4nIdO7V8RJAjjDZMFBM512nemSDVNZXPKpUDenMzMoHTwOpd9S1tXLtIt2s1akwcoSOOYOL0zSznxtU/fc2KY9nK3E42+grSh2uKjTTOOK50sEz/u78C+7AgvLP/nheY7vkqkt42fFLn57xpI6fGRREDPI8ci6f1vGzDqddOUudLgnzIYtyrcp0dLlvsoxf/HD60jMjJo5PHkV/tzkx7vS+UEnrkTVTPjnfwhI0SsJw2qeLZThzrkduiepDm3j9X9r45dWv2LNrP1PXP5Yu/5LBeCk6nXt1vASQJ2wQGaBv42ezOWTkxlLc4d1rbVhlNvVxVkPML9K9u+H/gjcO+y2tf/oR3XtSpRe/f5mKw8O0XTaA2jtGpS3P6JF/g6TUx7OVLJxtxvfT4UqRakt/T48iOiGTxv/+T/9f4OZl0kn+4Z/upe1D/o2F7PLP/nhuZRrd+xZt/yrJBlMp0zOmtPEbm57p8HmvvMunbfzsw7kx7UTSfEhfrnWZjiz3Lbbxix/OjDaH9Igbx5jve/VteofbuIZsuObLw6T5Z0+Xz6j+zvSJn39MH/rekyycadLFLpx516OWZPWhTcz+L337mU+/Ys+m/Uxf/1LnX2IYL4Wns86LHhwvAeQJKxsGibmS0WkJrlleGTqTHH0lJvT+ybjWVmnlttx/NkfnLi9QrVGkkckZmg6Zuk19PFsJw2nEme2OpTTGnR3/v1Gn5+oVxVwRssy/cOYKg+94HjGvWgWxTM/sRMXPNs02sHz6hZUXLXE4U5Yzu3Sxz4dwncq1/nvtUaJHwWWf73Hqn60sv7tM01NytU6+zn+lsBv5F0KXz6j+bmyfWobfvsy5G+EMSZdU4dyIemRXH4yk/V/qerTh/UqIrvXTUfVPpMs/axgvBTDv6cfxEkB2MNnQNRM0c0qWQM3Rif1ZD0qDqUY7rANqMcvDwu8zC25E1+qyKREPDipjoUu6SuPlgL9xWsj9Z/o3D9kca0k22SlS0Xf7of3xbNmF088sg4zXcYVs8uTsxK3vV/V1VCafk+afEhZ+2ZFZb4YU1THGGDi3ZJOeydjGL87AwSv/8imSlxfbcNqWs3TpkjwflBTl2ky+xpQufinrn62OE8yGvmeYKlQZd15oU9o/4zwhQO5lvte2NNg2/5Lr2N+NH1U7zAcuYU4aTvt0sQ3nxtQjlrA++MXt/+zjl0W/wifss6fV+Iy/qxvs2s+09Y+lzL/4MF7q2F73/HgJIB+YbOgSpyHSLX5UZ5qlZqPdoV3r+D7TQPrvVXv4iGry/8IUHTt1gMZckSpJY8+d97FDJ2mPr5N0NjyS+89OnaYZ/+CBPzejZ+nbWB7PlnU4PcwseYUmXZNMpfEJT/jFymPpPDh6kyfpxH75Ox9Tx+vEcfXIL+HvJG3z7/lzNbgbOXTUm5bjB2jmlH70E4vTMUqZbn4Hh3uM08svm/SML1X8Yp+MueRcPm3Li204824nHBb5kFm5HtlL065yrMLK4de/N1nGL8v6l1TnCeYWU85GDql622TiNqnKReBmhzb1yJIqnxJOmdB3D9LlRIBPJJs7+l9tv8JrEU7bdLEOZ871qE3c+uARv/+zjV8W/Ypzwj6i8qUg8fSHLQO27Weq+udmlX/xYbykfu/X8RJAnl6aeP2Nr/XPsQ0P76Bnz57q3wZP+viZZ+XqX+WxOR12s02PGyPnecBVunk2YHDVZMIW/r7SftWhyb2UbRtL6ecVh/E+E7rFfGco/pzs+NvWeVoez5Z1OF3CviMoPcdm55qdlpvzDOnnFTo4Sb5nKqfJP1NGAjT4+6rFgOP5hXyH7Nh8oX3wk0V6xpcifrqcyWZqUbtVt8m5fCYvL1ricG5MO2GXD2nLta+99skuflnUPzuq3PAJSszvDitnSsT3WOWfDZ1nHJYGFakQkneh4bAMZ/J0ySacYbKtR4ZFfXBJ0v/Zxi9tv+L9fPx6EV+69tO6/jnS5V8SafNBJCkvyfu/NPkw6OMlgPxgg8gA6eP3W3r6H2UarRRpSBqlD/+Z1uPtDGOvy5tDNq2v0L0nv6bSjq1UGBrSL6rG/tbCT+iDj9YCv/PLp7Lhza9py7e20lBhiMwnG406ff7Ln9L12/87uAG1PJ4t63C6fPn0Gb0o7+A0NJ+uU235Q7r3L+1hXf90kWovvkkvf0Pe+zv6/PN/o+WFf+R4rdNohpsdKWv0SMdtuwkbx6sm8fqH/0W/++7b9OZwvcOmUvId3+T8GOb8UK80OCz/vvQRfbrevnFRFukZn338zGZln3/yi8hNqtrkXD6TlxctcTg3pp2wy4e05Zrb64+rtIXrbPPzTMr1rZ/xQPIz/YKbVfyyqH82km8Yp8pZmb6zlfswEz0J6ycf0vWf/k/6NCjzmHU9SkyXz88/pP/23+847W3R3b6YfFgJ3kzNNpzJ0yVdOPOtR4ZFfXBJ0v/Zxi9tv/LlV/+JRmW85PwWv17El679tK1/Srr8SwLjpX4eLwHkBysbAgx6/KAf6BnxkBlwAC+UF9hESgfoxPEpoq6voEipX8K5KZlVJ2gz+x/6P4Behj0bAHqQc/8e/7/tfniAACgvsJkEPRe/F/VLODel8WnnVoPaEk5O+x36P4DehskGgI0gV7zOnKYZz4ZhzLMJVJWWcTUMBMoLQFPHTd96RL+Ec9OR9lT2iqgtZLZ/AXQR+j+AvobbKALgNgroOr28NmQPJ9aNTaugb6G8AGidN33rDf0Szs2kTGP7p2lyUk00XLrW7Y27IRPo/wD6GjaIDDDo8YMe8OVn9Ku71bYNw+JvAgWbCsoLgNZ507fe0C/h3DzGZv8LTQ7/jpZ/dt7ZfBL6BPo/gL6GlQ0BsLIBAAAAAAAAwB72bAAAAAAAAACATGGyAQAAAAAAAAAyhckGAAAAAAAAAMgUJhsAAAAAAAAAIFOYbAAAAAAAAACATGGyAQAAAAAAAAAyhckGAAAAAAAAAMgUJhsAAAAAAAAAIFOYbAAAAAAAAACATGGyAQAAAAAAAAAyhckGAAAAAAAAAMgUJhsAAAAAAAAAIFOYbAAAAAAAAACATGGyAQAAAAAAAAAyhckGAAAAAAAAAMgUJhsAAAAAAAAAIFOYbAAAAAAAAACATGGyAQAAAAAAAAAyhckGAAAAAAAAAMgUJhsAAAAAAAAAIFOYbAAAAAAAAACATGGyAQAAAAAAAAAyhckGAAAAAAAAAMgUJhsAAAAAAAAAIFOYbAAAAAAAAACATGGyAQAAAAAAAAAyhckGAAAAAAAAAMgUJhsAAAAAAAAAIFOYbAAAAAAAAACATGGyAQAAAAAAAAAyhckGAAAAAAAAAMgUJhsAAAAAAAAAIFOYbNiEhod36J8AAAAAAAAAsofJBgAAAAAAAADIFCYbAAAAAAAAACBTmGwAAAAAAAAAgExhsgEAAAAAAAAAMoXJBgAAAAAAAADIFCYbAAAAAAAAACBTL028/sbX+ufY5NGJz5491b8NHsQPoI+NH6X3D1X0Ly21G3M0/1D/MmhKEzS9by/tHClSQb/UqC3R9Wu3aE3/DgCDqbT/NB2bLPZWG1c6QCeOT3F7VKf7l8/TYuYNUZmmT52k3YUq3Tx7lVb0qwAA0Fu2lMrlOf1zbK+88m364ovf6N8GD+I3SCZo5swpOrx3mvZE/BvdUqVfPf2t/gz0s9Jr0/Tm8JD+zajS8vwKrevfBoozqH+HdhaGyB3rocIwvflamV583F/xHpudo7/6AdfL175JtY8/oy/1600ymfTXM1xvOW53BzRP42imwxhtefIRPW1LKNgcyvSHf7qXtg/V6cm93ikHpbffo0mnHX5Gn3wQr57KpMmPf/RqzHr9Kr317i4qNKq0FNROAABAT8BtFDDYStuaV3qjNOqr+ifod2u3z9O5s3P630W63+AXG3V6rv48YMo0fUSuHspKhgW60oz3HF25UaVadbHPrviVqWgqbKFIW/WPLRzfKb1qZWDzNA5XOlCRitv0j7AJbVN1hk+6H/fQMqatW4vqh9j1tEy7KvyZuO83fXtjHau3AAB6GCYbYKCVRivqRGz5ousEtP3fwC6v3/TMQHxAB6SlMdop8ast0KVrDzxxXHt4leZv99skmsqvBp9wBCntn6HdhTr/nX/ZzCcZ49NOOty/sUSSFIViWb0Om0+Pn3Q3qisxw5WsrTZ9e+3xA/UCAAD0JEw2wEAzV1ewcmGTGh+lEf7foA5IB27ArU+cGtUqn0QXqVhSLysTtGeySI1anc+u+T3PN+sNFHpVg1zJfrjuTDbAJrZN7dPSW/XBrFCq05NHMfvehG216tvrVN+091EBAPQHbBAZAPEbFCk2kCqVaWzfDE26NtyTwf39pUVafBg+eFIbdVFrQ6zSBM0c2UsjBbOklMOywGHJ8BJUafwoHeaTj0IzoHWqLd+le7e9V7qVDmliNldsLNGVC0GbC3K6zHrTRTYiXL5zi1a2yWeLrs3A9LEaC3TuDjkbGO7mzznpyGmwyCePba81D+j67LUHHMcDtGdqitNR/bXB71+OkY5t+RFDsvTMG5enU67yFCokf3u9XOvyV1teosLkFDVcG96pMNTp5g2ig/KeoM3wksbPbGJXU+WsXXR9UeWy4sqPOtcHLptSHzqVTdtyZtLIib/sSXOERkLDr6TJP7twJmkn8hSWnxzecbkXZZ1WPOUkPH3zbSfC0/P5qORtyOaQieu7t911jrt/miYnOZ7qDXzcBbrOf4uOo/4eCutHRNy2TLTnlzcfk4YzPD1D+7FO44gObUmvlJfg+pdVvgMAtMPKBhhgZllmsnu7ZVBw4vhJOugeoIlChXYfOkkn9ocvWW5ebeEeWQb47x/ngap7MCVfmFlvLYO1OTrGJx6tAYwo0sjkETp26gB5Lgw7Vmlxqcr/r9CkPx4yWHImGnhQFTRAlL+faU+XwsgUHTx+mmZ2yT3kKu6KTn8apRlOB2dSQXA67twnaex9bfe+CfWz0LcHNPg7pmd5MH2oNdEgCvx+OeZ0ewQ93PnRmU165kyu/McanLfrh3JdKurjPFJX7Fu3B+hVDcuLRE45q1LVd2JlFb+OV4Uj2hA+niqX7vzg7zP1YTwsPdOUM/6sU0eX6J4T/3WqOwm1LbJs2uWfZTgTtxM9YHyaDh46QgenxjxxKu3nk2H+v/dqe87tRGR6HqU9ss9BVvXBtLtSH8xxXSecojByhA5HtBWKvh0q6haKJG1ZW/1z1cuk4UxcPlfpcVVu6/KvtHLjk3Vn75w63b/jn2jopfISUv8yy3cAgHZ4GkUAxG9AlMZpz/eHaejzj+nDT2OObHmA9mMeFMge2jKT/3cX/p4+vLtI9+5WqbblZXpzuEhDwztCdn8v0+jet2j7V1Va+o+36dgfD6vvWODv+EB9x4sXT2llPYunXvAARq64DcnVkQ/p+j+ZY/C/J7+mLTt20fbCML38YpH4vM1rvU5bXnuLdu582bXrN3/f37xD2+UK0t8GXb0xf2d8onPzZz+hn+vj1V6U6TuVYT6e/M21M7hJfx5QytWeK5KW/F4ZHMtrQ77XqPGY7pl8evVtesd5n3zv76h246d0ff4XKi84fiWOX2FoiLZ/69etz7SZoL0/4PfV7tLPO+Z/ivTM05ef0a+c8ij/OB32ym7sS3Tlb3+iy6n559vNvS/KtdlVX3av/5SIy2ix/rHzlJix2VPOlcVbP31KRRMW9w70lvEzTy75/JNfBOdraBvCJxd//q7zBAApm5e4bKp05+O9eFnVh0pQeqYrZ6X9f0F/zOGt/fIn9K/O31+mHX/I6cF15PPQHfxt8s82nBbtRK50enG8njTTy+Ql//gVl71muHR5/GqJrv+DeS3vdqJTelZUuP3paVvfdbv71R/soLfkKrxMPP9sno8p5ZvLSZn7Dc6/od8/i2h3ma43jbB6JWK3ZfzPX1b093/11RBVmuE8r9MmKpx25fPLb73KfRS3A78PeWrV+J/RD78nk6E/pZ+vZFGPbFnWv6zyHQAgAFY2wMAy97PTyBF6/8xc+7+2KwrcUfMATciSVO+Ge6u0dvsqXVlWVzh2jgbN8Jsr+RU6fEiWtV5U39H8klXfEl17Y7M8gJGJgcvnaV6WYbr7/7UHtLgQtXGcf3WDLKGU75PnoQcvE1XHYzxwPXfBu0RcNiK8dEO+j7k399JXjWXQc8Wk5Xpd3WPufk1zX11WV7iZvO8sx5HTrflejt+8jl/kFV1z/3+Me5nTpecGib0xXL+U6/ZVBIWt2zieB2iSC5+salhpvscdZ/v4dbzvu9PKBx6U3/PEnY8n9eHsRacs+W8TSFfO1OoO71XsVbWyIVLy/LMNp1U7sdGcq7p8MujsBeJ6Aoq52uu6Op93OxEnPZ3sz6g+mHbXWXEgmypf4P5gzZQNLid3dLvbydotrgMJNl6O3ZYppm/3hlP9LSqc1uVT91tOe9SG+08+QZe+6rpvQ95eLC8OX/wyy3cAgACYbICBpU4kIvg7XL1kVp5cETZIWnukBneBgw4zYOIOu3GDBxcZTSy0m6CKM6KQWwkCJlHkn9w76rw3xMNF55GQhclpmp6V+1FloiHkHmp9smcmCKK4lxubAUxtyXVLhj55c79m3ufexNOcBN5fCLnfdy3GxnjmRLHj5qAZpOdG6HgLgNI35dpMDjknd62T6LF9kvZVWpaBvHmPe2LKOn56E7tG+CMDx5wlx/yWtjKkw1eYosOzE1Rqm/HiAXrbd6YrZ614Bj3ONGKJd+L8swynZTux0ZzyxWWg6rtPRpU79waHObcTMdPTKcKZ1IdWn+lMSEU8ySbOBG4ipl9ItDmkhHMufjjTlM+1FXriJFj75LZ6Qg5/xt3POXqzvAh//DYs3wFgU8BkAwyo1m7Y9y8HP+7Sv4mTOcGNvXu2nzn5ixjkZULv2p1Oa3XDbv6yGp+EhG3W1nx8aMT9t2rCwHuF2KSn+zV18hb0PvfV2lbepbmvWx2r/V7mNpmkZ/5MWnYqr31Trn2TQ8+fy5Xmvc4A2pxgN8tiwMRU4vjpK9fhV1Nd5TBgjL1y7SLdrNWde5mPOScTp2lm/0T4SptU5ay1qsGZdHFx0kkmG4Iuuoqk+WcZTtt2YmOpE0IJs3euQZ8o1u622sWc24n46cnvyaI+NMu7tJnBnw2qf1kI6hfCucPpvNAmKJzpyqeZXHStfHHoellbaK9bPVte/PHbuHwHgM0Bkw0woMxy6/Crll4xT3DNwD1ghj/uyV9aZoApV3UCJ1Fc/8KvUuilnzF0HryWaZfsueBJO3NVx/1aUBrr93k2ANN5V3sUeEuHw1yt7XSiGLSxn0826Zm3mOU17vt6plxzOHUQ1upqWbvcx22WJ5uy2Bosp4hfRJyVTm3IKq1cO0/nLl+km8typVhv+OZMOrQvi05TzprLo+Uqqe/qqDyJIErS/LMNp107kTfvbSdqFYCawHHKm6FPFANXauXUTsRPT4uJ2sCyb8p7eJvZXv+yELctM+zCmbZ8qkm9ClXG1e9C1cugTSF7ubz447dR+Q4AmwUmG2AwdTwZtdE6QW+f4U86YEovzX2eY+bWiRsLVOPfR6bS7IgdMFgx6e+ZMNDvc78WlE96oB9+Esjhd5Y4e08GvEyY4ud/VvfN5qPzADG+XijXAQPhdbmPXh7TZ5Yn67DEnkA0guNnTgbCrtaVzJXJTmVobZVWbss+DXzicJnrU0MmHWZCn5SSuJyZ5dEdBH+vff5lXx+yLLNZ0GXO00bJ7Site/DVEz+8eqedsE3PkPresbx3qy0I6BeixJ1oThzO6PQ0k1HN/Nf1srE8H7oqUPR8edmwfAeAzQKTDZCzCecxUHJFLupRe2k1l/1FnLB6mSte3isXbubezOBBaH4D6eagp+J9TJtbabwc+rex2Tk6yKML59aJhw/onmwWVpiiPSHxVsKWacvzvPVVV/dgJejKWdAkQsD7Op0Eyk7rEv6oZbRxJiyMtOmp8AB+9rQq17OuR3h2S+zJtH4p1wHHWbtF89euchnVvzff446zffyirtbJ4yHlUXWivQxxGyb7NOjfPNYe0Lxze1J7fbEtZ2Zizdn0zXdF1PmnN30L3rwuef6lqw8J24k2Odaj8Wk14eq/Kr2tfWNIkU07kVTS9LSvD80r8R0ncDNuC0xbFpPp2+3CmaJ8PnzkTMyresbl1HnUZfttTUZ/lJcNzHcA2DQw2QC5cjo8PbKI6oTTUicS0j+GnLAGWHmsBu0jh057n5FfmnAGwGq5csimhbFP/jKgBz0yQSDP6B5zJWLJhPXQycDJAzmJkhN19/3ba7fvRq5uUMtHJV2Oeo81foBmTsnzvNXvnSYM4r5m8m7kkExIuU/qZMDEJyLNndaDn5zhJmWsGeYSf96dr0aK9DScAfyICndhZG/oVe2sdB5wt/RFudbHibrfuPke38l/qvjx4Hz3PlcZ4884z8TnzzhPJ2D+NsRZei/7NJxSx/NktXxeXzVuY1POmqsaqnQzbNM384SXoCez2OSfZX2waSf88qxHFbm9JGCVTJFfDzyJzKCdSMI2PW3rQ8el8mYCN6qOpiH57QqvSlNOZ/27YRvO9OVzXU3kSD1zJqo69EF9Ul42PN8BYOC9NPH6G1/rn2MbHt5Bz5491b8NHsSvW8o0zZ2ec1VFyJW6Drsm2zHH4QH62c4npG7mqn8wHqCFPbFh/KhzEiwn8bnc16+PF0aerX6d09Yd1BJ/xrlaG5DuMgkhg9Dg8PMJlDwrXP/mwYP1m9UiHZwkT9qodPSml3rNnSdB+aRf47SWe+ALpqz4dE7nkDA3lujKhYCTTov0dDPpp0SUk4wEpW+Uni/X+jhyf3PYJoYmjYPeYxW/0DxX7388KsfzlmvDm98BuLzIjvBtSZqwnJl4Rae/LutBZds2/xKGU0neTvjlUY/cZcVTltxxDmgjHVbpYss+PZPXh859ZlT9S8c3LvDxHi9NONOXT5Wu3Dc1ZEVeSF/i1vPlZSPzHQA2C6xsgBypJyA4V+Gk8wvYVCkb9sv+Vq7N0RV5drkTSI2/p7bMJw9nwwchQVfou+rhVX1/uLqaYTRqS3Tz8pzv2eocPh70OBMNckISMIg2qxvkUZj+K0lED2iej3VfX+l1SJrcuMiDras6jd33cwbd46lf8+RJUD6Z1+7SpQtqt39PVpj4dTxxkjAvcfroX1mDy9z9pZCrMwnT0888Sk5xx7sbkt9D2+vlWh0n4uoai7oCZxU/znMpXy3e9zePF/DZtduyMaSqE55DyjGlXoSVlyTljOusc8LIddb//H4vc8XVv1N+ivyzqg9J24l2+daj8NuwQlcMpWwnkrFPz+T1oXOf2fEKuDUeF3Bb74knk/Za0tR7gpsmnOnLp1o1IpPgdQp9LLNbz5eXjcx3ANgssLIhAOIHsEFKB+jE8Smibl9J7wqzKiPGFS8ACIF6BAAAMCiwsgEAekZfP8/b3MfbfHoCACSGegQAADAwMNkAAD2jb5dsyooMuU2ltoD7WgFsoR4BAAAMFEw2AECP6MfneZdpbP9RdetH2KZyANAB6hEAAMAgwmQDAPSIzptV9Zqx2RmarBAt682+ACA51CMAAIDBhA0iAyB+AAAAAAAAAPawsgEAAAAAAAAAMoXJBgAAAAAAAADIFCYbAAAAAAAAACBTmGwAAAAAAAAAgExhsgEAAAAAAAAAMoXJBgAAAAAAAADIFCYbAAAAAAAAACBTmGwAAAAAAAAAgEy9NPH6G1/rn2MbHt5Bz5491b8NHsQPcjV+lN4/VNG/tNRuzNH8Q/1LDGOzp+ngSJEatQW6dO2BfjVbpf2n6dhkMXHYuiXb8JRp+tRJ2l2o0s2zV2lFvwqd9Vq5EHnUh1xl1E50H+rRpoR+zFo3wzNw7eAGQ78CkBxWNgB0RZnG9h+lE6fm6P0z6t+J2QM0VtJ/dikVi/ontypVkzT0pQM0yR2gKBS2UcBhMrF1qxyjTvV19fvGKtOuSqfwxM8Hom1ULPD/GnV6rl6AWOLkQ85yqg95yqSdyAXq0WaEfsxWF9vPAWwHNxT6FQArmGwAyFhpnE9uz5ykg5MV7pD0i6wwMkUHjx+lMf27sXb7PJ07O6f/XaT7DX4x6UB9bYWeyOd4wFKrrtCa82LWyuokQgZF3TlAQuakpkqPA8KTNB+otI2ctzXWu5R+gyo6HzZELvUhX5m0E3lAPdqU0I/Z6mL7OYDt4IZCvwJgBZMNABlylkMe4pNb/lmW2V253GrEby7X+dUKHZydcN4bzAw8kg7UV2nxghznPM3fXtWvZaw0RjslbLVHvbE0OuKkxiYfSqPq/bXHWGqaSE+eXOZQHzaUbTvRfahHgH4sga62n4PeDuYN/QqADUw2AGSldIAOT6rlkHK/m9zPt9ZssVdp5fZ5unJjia5E3ec3Pkoj/L+eHKhvK6qT9+c9slY+LDyW+dBbS2v7SK+Vi82gh9sJ1CNAP5YA2k/oFb1cb6GvYYPIAIjfACmVaWzfjHOfnXTojkaV7i8t0uLDoJlpvblZY4HOOSejcs//NE3KUnz1BudK+XU5gdW/K2ZTNG6oU2ysozaKIrp/+TwtRk0th2zqQw0+ib5wK9asdKk0Qbv27aWdrrRp1JY4bsGfj97EqhX/xvJFuhQw6y+3NRye4nRsZkSdast36d5tf1q6cfrPevNPwrh85xY9Hw0Kj20++De1i5vvRng4V7ZJXhV9eWpbzoykx2vJJx/SKY0foD0cxpGCuZ+0zserqvgFBTJ1feif/BOx24nceevRcycfpzgf1V8b3PYuL3D9igizXfnkzyVsz5SE+VA6QCeOT1GB81blu5+/HfFKXK5dbNPFll16KujH/HJqP1OmZ5ryaSddO5gU+pV+7Veg320plctz+ufYXnnl2/TFF7/Rvw0exG8wyKDgRz98l75XGKIh/ZpjqEjbK2/R6JYq/erpb/WLWumP6J2pYfqqeod+9dUf0Ym/OULfGy56Pj9U2EXf8X92/M/oh9/jDow7oev/8Bl9qV9O6rtvv0c7C8/okw9WKOo6R+m1aXpz2BMrR+OTf6Q7/ji1kQ7pv9B//pPv03Zf2gwVhunNvWO05clH9NQXCRW2Oj255//bBM2c+r/pDe7dajcu0v/4F/8ATf5+iv6Y02fImxFUGN5Fb772Tap9HJBmMrCX9A8I487vl+nlPximwhAPFOZdaWWdD6/SW+/uogKfDC39n1fpR3HzXUSGc4xK3+Bw+vPUtpyJDulS+oYMhIPKUI75kAbX2x8fepO/03O0Vnq+eEaP1r1pkqo+2KRn1/IvpLz4xG0n8qfrEQ/gG3v/kg59T8qG/hMb4rZX4hjUvliXT8v2zCofXn2b3qkUqSH5HliuXO2IP6wW5VqxTRdblunpgn7MJcf2M1V6WpdPSxm0g4mgX+njfgX6HSYbAiB+A8DpWCpOoyszwX934e/pw7uLdO9ulWpbXuYOhBvw4R3tgxE9mPzqD3bQW3L1ggeNN382Tz//4BfOZ1+U3+LGmBvw3z+je5+2pn7Hpmec12u//An9q3UrPUF7fyAD9bv0c9d3B/ny6UccHomP/veiTHs43J9/8gvuMPWbAqmZ8wPbJWXqPKj6KV2f/0UzbV5w2hSHuXPa4R84lWl071u0fcjfOUoH9w6/rr5rvm21CA/QzhyhEfn78od0/Z84Hz7QYX7ya9qyYxcPFIfp5ReLvnDz5+R75cfGEufBTzgP1OdqHNfvVCp8TPmbd1BvnQ+lcdrzfe7kvxqiSjPfz+tjhud753AOc/zkb76TD8ty5j6eXLG4tRCQLkHHyzkf7HH5/PN3m+XpEpdNJ4xSb1+8rNKz0l5v7euDZXpmkH+JyotH/HYid7oeyQDX5GGzfeFyVuJyJoP97d/6dXu6WJVP2/bMLh/MyUdouTLx//xj+tATP7tybZ8utmzT0w39WEuncpZt+5kqPa3Kpy27+mfPLn7oVwCygT0bYABxw6uXvsnSROeefec3sUprt6/SFWeTwCLtHC2rlzXzGKCCLLNbvkjnLsiSXzPwWKWVO0vkbEbsMUEVudEt7eOC9EZRNvduqnB3vk+6tH/GWSIqHdIV2eSIB1XutFnhtLl0eYFuLviWCAZtqiUDNFlSzMeVZXftAzR5JjUP0DhdbsrfZZmp+0vXHtDigkrPQtGbD+pzTJYrX/AucVx7yGG8UVX54NnIyD4fzKZ23nxXfwvP93jhdPg2XLIrZ63jyQTapWvhx2v4dsrONx8ywIOie57yxOVUjicbfMZY4hm3PtimZ9r8S1pePFK0E91m6lFg+8LlbF6XM/I9Ns62fNq2Z7b50HE/ik733ycs17bpYsu6f3BDP9YUp5w59SHr9lOLm55NKdvduGzrX2roV8LTs4f7Feh/mGyAgVPav1c19NxYh90DufZIdfKFrdvUC5oaTHKbfSP4fk0jsEFO+7ggM1Cthx83mH5ON3ek0Y/OmqA9kxI/HjRxhxT6Vh48uTsrh28QLbeovO8aoAV30ubkv0IHj8/R+2cC/jnf4cODv0knA3kgGXhftBLaMVrkQyvf5+Lne8xwCv+GS1blzHU8uWczircMbVA+WFmlulMxp+jw7ASV2h5kzgOuyDIuYtYH6/RMn39Jy4uHdTvRfeZk/H7YyejaesBg2bJ82rZn1vmgH5kYUa7GdqlJ7va8sSnXtuliK0X/4IZ+TNmQ9tMtbnqKLNrdmLJqBxNBvyL6tV+B/ofJBhg4ZsD75FHywY4zmORBTDXg6oYwV+48DbJ5dFVKaqBqszoi5uOKTDgtHvllZtwl3s4mQmbTpKiOV+9snFQzjSOeY+0OT5N1Prjz3XmhTVC+xw+n/0qIXTmzPl7e+ZDSyrWLdLNWp8LIETrmDO5P08x+HiDqv3cWrz70Tf752LcT3WbShcMflfB+luXTtj2zzgdzVTy0XLniH5B/icu1bbrYStE/uKEfUzaq/WxJ9hjD9O1uPFm1g0mhX4lOz97tV2AQYLIBBkzMAa/vCodiOpPwK+NmIiPLTlDR4bZZHaEHQx2vAgTGOR4T78LUnLNztiwPvCm3ohSmaM+4eo+fGUjJaoFzZ6P/uWfxO08W6SsMmXWMdvkeP5z+spjv8fonH4xVHhiep3OXeXC4LCuQijQyyQNEZ3AYY7l4zPrQL/nnlaKd6DqdLlEngeZE0TVgty2ftu2ZdT50PJ4pF2EnrsnKtXW62ErRP7SgHzPil7MuneDFTc+mlO1uTNm0gzbQr/RnvwKDAJMNsAmVaXpKXdHwXFHQnUmsK1fuN5ilwYUibXVesGE6mnhXIdzUYMjbAWXLLCPlQR6H0Xkk2LUHtHL7LtX41ZGpA5FXB7K6n7glpFO2zYeAEyCvkHzvKCSctuWsk+aV1+ABQ275kJU1HhzKvdcykL+8QLWGDA5naLrDpajM6kNYenYr/2Klp3070XW6HkWdBI7tU8vNgwbs2ZdPW8H5YE46w65ClzqWCy1hue6ddInDvnyiH8uWdXpatrvZ6W66oF8JYl9vAeLAZAMMGH1vHlWoEnalwrW51D3XFQUzmAyfuQ5rtB9QVUYrfMzJ0BnycvRyPd3RpLla07EDWq87J+OFyWkaU6+0KwUsKzQn43yM+5fdV28e0L2Iq0JrddmEk/9cGQuNe2k8LF2KVPRup6HJ4870ZkhtHaNdPphliMnzXSQPp305E+2bmjo436aP6PuGfcfLPx9sTdCM3E+rf/NYe0DzS7LJVVh4WmLXB0fy9Eybf6nS07qdKNP07Gnn/vITnMbdYOpRGLk//qATQe+VXOvyadueOZLnQ9BVRcO9JL89b+zKdbp6ayFVemrox3zybD+94reD2bS7yeSZLuhXOqZninoLEAcmG2DgrDxWO++OHDpNMzwIaJKGngfcsnzSGXD4NjGLGkw6TIMccG+c2SW4MHnSGcy7OzYZZJ84c5KOnYq+ciJkQDNm3lTijsId/kBmttt7gl0an2h9j7G2Qk8kkLLR1amj/Hd32kinxCcjx4/QYf+Julm2ujzftoHWWtRVoYePnL/JIE7i7g5PyeTFoZNtA7znz9XgbuSQhNH50VEaP0Azp07qE5bgjtEmH2zz3Tactscz5dqJ237JXx7g6nQ8wfnmTKCxtsHKBuSDDWdjV7mf9pSqt+48kro7o1cjRYtfH2zTM+/yEiRpO+FMsI5IuPmzI3u7cpVSpUsrPVuHUG2LORmv3bjqvc3Csnzatmfp8qFIu/e54ibl8pRakl+rqe/1r3ywLte26WLLtn8IgH4s//bTK356ZtPuxod+xfnzQPQrAHG9NPH6G1/rn2MbHt5Bz5491b8NHsSv/43NzjUb2XZBO0+r53bvLlTp5lnfYFhzrl7JoPLGXOBTLszfg0Xtdi2405PneOvfmmSH4agdt1nYcQPDWTKP+Qomz4S+fs17vLjxdpal+u8dlt2+zSZcAeSeWdmx2Ru/kLQQDc6fapEOTlJoeibLhzT5bhPOdOUsrFxLvi0/58F3WLpsQD7YiM47xuGUHbejDhf2HdmkZ97lxc+unfCmSae2yIZOF6ryiVmFRgIbGHnG/TynScBtCFblk1m0Z9b5EBpGlZ6PRyWNg/PPulzbpostq/R0syufIkm93Qz9WFpJ0tO6fFrJP12yiF+S9Nws/QpAXFtK5fKc/jm2V175Nn3xxW/0b4MH8et/658uUu1Fmb6ztUhDQ/rFBg92P/mQrv/0f9KnX+rXml6lt97dRQVunJc+/oza/sy++/Z7tLNQpyf3PqKnAW/48ulHdO/Jr6m0YysVmgetcwfzIf3dhaBjuq3Royff5M8O82fVKw0Oy78vfUSfrv9WvRDiy6fP6EV5B4etdcza8od071/W2uPx5Wf0q7tV5/1Ffr/5hHRK9385Tz+//aDtM53j/Xsq7d1F24dfphd3V8gzf76+EpAmfDjudG8t/IQ++CggjE5a/Jq2fGsrbW8mBsfplz+l6//wv+h3332b3hyu0ycf+I6lJcuHNPluE8505UyV62/Sy9+Q4/2OPv/832h54R85Hddp9E/30vahZ8HpsgH5YMPknRxzyFU+G3zcz+W4t/93x4FPkvqQPD3zLi9+du3El1/9Jxr9/rBOz5AykopKF/pknv7H//Oxr32RuvdvXM6u0uJnIWG0Kp/Moj2zzgcO44uy3G9tjqLKlelPVL4Hp611ubZNF1tW6elmVz4F+rFsJUnPLNrd+PJPF/Qr3elXAOLCyoYAiB8A9Bd9ZQJXIjIyiOlpVh+gjAAA5A/9NGxO2LMBAKDPOfel8v+D9hOB5AYyPcenSe4Xri1hkAsAkDf007BZYbIBAKDXyT3KzvPAfbtqmw3KnHtJq7Tsv9cYgm229JT4yj3ntYXA+9UBACAl9NMAgXAbRQDEDwB6SocN0eT+0W5tNDaQNk16lmls/zRNTqqJhkvXwh6rBgAAqaCfBgiEyYYAiB8A9B55rNsMTY6oR7g5ZCOo6l26dzvDHek3jcFPT3kM4GShTssLV2kFBQQAoMvQTwP4YbIhAOIHAAAAAAAAYA97NgAAAAAAAABApjDZAAAAAAAAAACZwmQDAAAAAAAAAGQKkw0AAAAAAAAAkClMNgAAAAAAAABApjDZAAAAAAAAAACZwmQDAAAAAAAAAGQKkw0AAAAAAAAAkClMNgAAAAAAAABApjDZANAFpf2n6f0zR2lM/w4QBeUFAAAAAAYNJhsAMlemXZUiUaNOz/UrAOFQXgAAAABg8GCyASBz26hY4P811mlNvQAQAeUFAAAAAAYPJhsAsjY+SiP8v9rjB+p3gCgoLwAAAAAwgF6aeP2Nr/XPsQ0P76Bnz57q3wYP4jcIyjR96iTtbizQuWtyElemsf3TNDlZIbmILBq1BbrOfwu8mlzi9++bocmRYvP91KjS/aVFWny4ql8wJmjm1F4aKRT171GqdPPsVVrRv6XH4Zz1hrNRW6LlO7doZdtRev9Qke5fPk+LqS+Ze9OzNH6A9kxNcZzVXxucNssLHK+Q48ieBMcmqRWWEqfZEVea8edvBn0+UT6IdOEUpfGjdHiKy0nzgHWqLd+le7dDygpLFj/b8qLjVuhQhkoH6MTxKSpw+VZlHwAAAAAgf1jZAIOpNEY7+WSx8XxdnXydOUkHXRMNojByhA7vL+vfWuRk88Rxfr/7BFcUKrT70Ek64f9MaRufmMY5cWRZ3pdv4uULZ2Fkig4eP00zuyr8W53qESfWsZn0pG00Pcsn1odaJ/CiwGkjx5wu6Rd8tm6V9FFhcTZDPH7Ee7It3+ULZ+J8EKnCKZMAc/wZ90SDKNLI5BE6duoAhUQvWfysy8sqPa7W+f9FKoYFRCYkjkzx4ap0ExMNAAAAALCBsLIhAOI3APhE9X0+aWzwyRrxiV3BubK8SCtrcjVcVgPISSz/6L/6qz8nvCsfynwSOU3HJtUJfPhqAT5hPcMnmo0lunLhVuiV8PT0ceRHPtbNhVvNq/XOlXk5YZZfsgqHK12cK/035unew1X1vc5VfDm55p8Dr6brK/LEYVkqOifzTtre4bR1voDzY5xoxb1SwTYfrMNp0lOvYnhkwsb4c9P8ud38udqNOZp/qF9vsohfU8LyouPXWL5Il24HfF+nvwMAAAAA5AQrG2AglYrqyrFzBZlPvM5dkCXs5uRrlVbuLFFD/9bCJ376RFVOKi81T3AFn7DevkpXltWV5Z2jAVfVhVy1lv93ebO/sVk90SAnzXyS6r4tYO3hVbp0o6p+ySgcJj2dyYuz5/mEW5/Ai7UHNL+g07OwLeDqv94AkSp0+FCR05ZPhCVtm1/A+eE5EbfPB9twqvSs0s3L/Bm5XcKdaPy5Rf25QjEo35PGzyVpeXn4iGr8v8LWbep3D51uHPfrmGgAAAAAgA2GyQYYSGpZu5ysRl/hdW6z0Er79zon8HJVuP3qtbL2qKpOOgNP9tg2teS/q5v9lQ7QpBNQPqH2XJ1vl1U4zG0C9xdCrr6vrQdM3mjmhLpQpMYNNQEQJU0+2IVzgirOzI3cYjFH758J+Cd7IDjvDZAwfh6Jy8s61Z2It0/qmHSrLXVzRQ0AAAAAQDyYbIABVNZXmqtUDTnxK42q2wwa9dbfzYnqk0cJThZ9xsw+Ca05jMw1w15dCT2pVFf4swqHSU/L/R/0CXXU5IGbfT5YhlM/DcJawvi5JS8vq3qyoUK73LMNpQN0eJLTrbaQOAwAAAAAAN2AyQYYQHpZe8RmjOaEtnWSF/NE1ZxYulZEtKQ8KY+p88l4mXZVdPwyCYdOz9qjiCcghN8OYE6o400epMkHu3CaWy/klo1zZ6P/Ba2SSRY/N7vysvJYbpEpUrG5qAObQgIAAABA78FkAwwec6U69D5420kBPqmbkhNL/mrXioiWGCe7ueg82ZKITs/gCRZlbJ+6zaD9doBuTMCE5EOqcMpdECH7cERKEz/L8rJe9+4fMT7tbF7ZWF7c4HIHAAAAANCCyQYYOM0r1aH3wQedjOvl6VShyrjzQpvS/hnnpE72SrgXtFTdXDXPhfvKtps8aUNvHpnx5pDBEyxs/Kh6sodz24rzikvSiQ/7fLAN51pdNpuUOxPGQh9tWRovh/wtxcSObXlZW6EnnEYqvHriJfamkBPO4z1lH4rAR4cCAAAAAGQEkw0wcNpvkfAxV8B9ex6o5elEI4dO0wyfXDbJow9nT9MxuSeevzd080FjZC9Nuz5fcj5/gMb072k9f65OjkcOHaUx1xlwafwAn0jqR3qyqCv8Saj0lOPJCeqE66RbJjZONx81Wbtxtf3KesTtFWFs88E6nPoJD1SYomOnOJ/caWqOeegk7Qma/LCIX5vE5cXs21CkXXriJe6mkM5ElJ7hiJpcAQAAAABI66WJ19/4Wv8c2/DwDnr27Kn+bfAgfv2sTNN8wr27UKWbZwNOfllpvzphlXv0/Zvpjc3ONU/W2/EJ7uXztBh6VmeOrX/1CTqenQmaOaNXL/g1ON7VIh2cpA5hjUvHiePeoCIVQuImmyMGPvVj/Khzkh/69xDJ8yGbcIZp1BbouucRnJpl/BT78mLKsEMefxprrwbf8WJ/DgAAAAAgOaxsgAHTeVl71MqHlWtzdOVGlRrOUn6Nv6u2vEBXznY6eV+lxQsX6X5NrTwwGjIBcDmriQbxgOYvL3iPI2G8cZGuXLiq453VHgkmPe/SJY7bTT6mJ2lqS07cwk60O97aECJ5PqQLJz28Suc4TWt8DLfm54ImGpht/BT78mIe/Sm3hMTfFJKPt6Q/J8e4g4kGAAAAAOgerGwIgPgBaKUDdOL4FJHVlfsc9Us4s7LZ4gsAAAAAfQcrGwAgVGm04uxJYHflPj/9Es5MlCZo5vgUFWJvCgkAAAAAkD9MNgBAqI6bbfaIfgmnlZJr88hxWdEg+3XE2KgUAAAAAGADYbIBAEKU1T4Ime3/0C39Ek4bZZo+ctJ5VKX8O3ZoylnBUbuRxeafAAAAAADdg8kGAAjRebPN3tAv4Uwv+81GAQAAAAC6AxtEBkD8AAAAAAAAAOxhZQMAAAAAAAAAZAqTDQAAAAAAAACQKUw2AAAAAAAAAECmMNkAAAAAAAAAAJnCZAMAAAAAAAAAZAqTDQAAAAAAAACQKUw2AAAAAAAAAECmMNkAAAAAAAAAAJl6aeL1N77WP8c2PLyDnj17qn8bPIgfQJbKNH3qJO0uVOnm2au0ol/taPwovX+oon9pqd2Yo/mH+peclfafpmOTxa6EYWz2NB0cKVKjtkCXrj3QrwLAIOrd+m7ZXkPGkA+2utlP2xq4/r0Hx2fQu7CyAQbYBM2cmaP3A/6dOHWUpsfL+n3Zk87u/TNHaUz/vrlto2KB/9eo03P1QiylYlH/5Fal6oZ1ZGXaVZEw1am+rl7JTOkATfJARBQK26jk/ASQLbRLPcKyvueTf3btNWQN+WCni/20rQHs33tvfAa9DJMNMLhK20j66iCFQoV2HzpJJ/Z3Y8JBd3YYJCgmHxrrtOa8EM/a7fN07uyc/neR7jf4xQ1NUzP4q9LjJBGJY22Fnkj8eIBUq64kSieAeNAu9Qyr+p5T/lm215Ax5IOlLvbTtgawf++98Rn0Mkw2wODaVlSddW3B1SiqhvFmre68pTA53YWrRKazwyBBlEYrTj7UHqdZOtgDadrVwd8qLV6Qsnme5m+v6tcAsoR2qXfY1Pd88i+b9hrSQj5Y6slJmkHv39G3QDRMNsDAMsu82jvrVVq5Nq9mYqlIxazXtI2P0gj/D4MEZetWyYeUSxp7IU315FXjea+szQRIAO1Sf8sp/zJpryE15IMl9NP5Q98CHWCDyACI32AYm52jgyN1un/5PC22TbeGbL5UOkAnjk9RQVZDBG7iE/S5CZo5tZdGCmpyI1r2mz2Vxo/S4akKFZzpfFGn2vJdunf7QcAssw5/w8SvTGP7p2lyUl1FEbKB0XX+W/AMNb9/dsa5/7D1/iVavnOLVrbJhkFFX3p70+v5+AHaMzXFaaX+2mhUaXmB06PDdLja8IlC8jJYsnQxwuP3fDTDTadCNleixhJduXCr49WBkpOOFVeZq3M4OS0lH2KmTzJJ892Wt3yqeMYvL23lpMR184irbvLnbwZ9vsTx2+eNn7z3/tIiLT4MuhKVLpzCpnwmi59tuxTUxgXo2Fbmx7o+JM53S1b1fSP6FX/ec/p0tX9QBrc9aylxXd21by/t9B3z+rWg/M87H7ztmfP5HPJd9HQ/rSUunyn7937KP2EzPoPNZUupXJ7TP8f2yivfpi+++I3+bfAgfoNggvb+YBcVGv9G/+/iZ/SlflWRhniGDuwcosbyPH3w9Lf6dfbq2/ROpcjjzTv0K/frTa/SW+/K91Zp6WP9vaVxpyMacv7egftzqclg9BT98feKNOQ5+BAVhnfRm699k2r+Y5X+iN6ZGqavJH5f/RGd+Jsj9L1h/rz+sxgq7KLvbKm2x19OLuT9hSHf+4dp5/fHqPSNYR4wPKNPPlih1jUFnV7cMTf2/iUd+h6/x/XhoaGi89ktTz6ipxGJ8t2336Odbd8dxiJdRGT8yvTyH0jYeYAxHycM0UqvTdObw57AORqf/CPdCSx3LjyQ+fGhNzksnlC28uHFM3q03uE7krDKd0umfDYa9K3X3qNDMlhyHbRTeXGXk5d4APTjw9/3ptNQnZ74wimD3R/98N22+BEfa3vlLRoNrAtpwmlZPlmi+Fm3S7+lr7415pTPRmi95MHtXx6hnVwfbl745/T5noZlfbDKd0tW9X1D+hVX//Z/XqUfdb1/YIPcnjnkRO6/0H/+k+/T9oBjvrk3qJ3IOR+6Ni4o8/FkIiEoPXu/n3ZYlM9U/btNeuY+rvNKNj6DzQgrGwIgfgNAGlC56taoU43/NRWKenZaZs/n2+6fUzO0EbPi5ntDr+ZxB3rmCI3EnsG2pY9jrgI8ekBr5mClCZo+coR2F6g9Htxxyox7Q9KE00EGMzcXFmllTdJBBkUn6aCzHs4fP3M8xnG7udCa0XeuTPB3OjPi/nib9HJ+4bDemKd7D1fV352rsvyd8sfQ9BT62JHvMSzTxTZ+WdH50vlqjLnipdJyvnn1lQch49M6nGGreWzknC46HZSk5UWnDXFYlop0jL/HuZpzx5QBLt/jRCvuK9au43mv/HB67p/mtkD+FpCe1uG0LZ/CIn5N+rhx80nHr7F8kS4F3WPc6e+5sawPtvmeFX38zvXdSJh/tnR7LRu9tfqHq7rOd6F/sM0/a7bhtGXiJz/72glJT3P12X+8vPNBl8c044LmlfA4x2t+Lmk7uFH5l7J86vTtXN8t0zOD/LNPT/0dbd8N0II9G2Awmc0hueEdGam0/vHvchXoJncOQRv1dLxPstP9gDltTjQ2Kx2EiYeroxZrD2hxYYlkS4pC0fu0DbOPRUHSgU8Uzl2QAYxJh1VauaM+56eOx6RD4U7HdEhi7eFVunSjqn7xxdtscuV0VrI5UnOgxTic8zqcFPU4KJ2mce7BtE2XOPFzwtmlfFX5kuD+XC7DMmht4XSVcMrmp5kNzO3z3VbzcVpW5UVvUkUVHiTJhCGfCPPgp1UGuHx70owHSTyYEjIIdN7r/Cb4uLev0pVlHrxRkXaOBtejpOG0LZ9K0vi5JG2XHj6iGv+vsHWb+t1DpxvH/XqvbHaWqD7Y53tWEtf3nPoV0157+wf1N6d8Zdw/NA1qe7Z/Rk00BLUTkp5c1i5dXnBO8tzHyzsf0o4LZMLu0rXw4zV8T2CwbQfjxM8JZ9b1JGX5jFvfbdMzbf6lqg8JxmeweWGyAQaSaXwby9yR32j9u78snVGFDh6foxOzE857Wsp6R93wRyaN7dJXw+rujsdFT0Z0d6OcCao4PYSKx/tnAv41VxN4qckUDp+cqEScKHg6jpI8I5r/LwOmDjPX/nibyZv7vsFU09p6YCfoYSZ4wtK8yTJdYsbPCUNXOlTzSLs4j+papbozCpuiw1x+S21n3Dyw6PgdMaXId1upyos5IeMBV+OGGthHKe3fqwZ2PDgLu9q09kgNXv0n3XbhtK+3joTx80jcLq3rctY+qWPSrbYUdqUrT8nrQ5p8z0aS+q7l0q+4+4e5XPqHwW7PJmjPpKQnn1TziVxoNPjk2h/HvPOhdTy7cYGsDIri7bv7qZ/OonzGrO/W6Zk+/1LVh9jjM9jMMNkAA8mcDDx5xB35w9a/RbmScEE9E7gwcoRmxtX7HaUx2um0mmGzuHoyImKGWk1GJLhiZUPv/JucCX+VqiEnKuaKirvjaL4W8Xzo4Jl7V3p17JDDqTSVMKvfQ1mmS/z4datDTfbYqJVr6tGtUn6POYO10zSznwdC+u9Zsc93WynLixn0RJxEurXaiKR5ahlO63qrJYyfW/J2yQyyK7TLXbB4gHpYTqBqC4nD0C1J64N9vmcl+WPiculXPP2D80KbbPsHZWDbMzM5WHuUcOPOvPPBfbzgOpHp8fqsn05fPuPV977JP5/Y4zPY1DDZAAPIzJxzIxnYiq7S4pJaHuZZpmcG86Gz4qbTCJuhtjwJSch0qHLV49zZ6H/eWW4T/jo9Vy+0MQNxd+fSeXCuZ+7b4q2PFzXY6rg8WKdpRJgN23SJH78udaiJHxu1ygOg83TuMg+CnJU6RRqZ5IGQMwjKbtm3fb7bSldezAlZvJPImHU1sE2wC6d9vVWSxc/Nrl1aeSxtZJGKzYv7ZZo+Ilccq3Szw5WwfCWpD2nyPSOJ63s+/UqzXOfWPxgD2p5Zl6EN6qdzOl7/9dMpy2fM+t4v+ecVf3wGmxsmG2DwWF5RMJ1g2Kx4yczIh54YxzgJyVDwfd0ROobfdlAb0tnpfIgabI3tU8slwzti891hYW6XOF066tyZp6HKnXcgEMsaD4JkpY4MzC4vUK0hg6AZms76kmCojNNFl0+78tKNEzI+uZ6SE3yJoqtNSBVO2/KZJn6W7dJ6Xd1KYMI7Pu3cf95YXsylfUsss/oQku8ZSV7fLfMvqbgTv1n1D36D1p7ZyjsfujUuaK4UDU7Pfuunbcundf/uF5aeeY/rPMx74o/PYHPCZAPkbIJmTslStDk6keFVC4+OVxTMYNI7qxs0+2s4T6nQm4qFfq8ZJHTZWl02L+POujIWupSvNF5u+1vzikLHE/ugzsV9hdNNdjrWmwz5OhyzTC+M7Hbs7JAcdSUixomdYZsuSvL4ZaVZ7jp+OdcduW9U/+YhmxI6q3XC4mErv3TpNNknO26Hl5ekA019mwBVqOK+lcrFvbnbPdfxbMOZrnymGEjbtktrK/REbjdzwqvbTLmfOOKe4BZ+/+xp1c5zme0Om/pgn+9ZiV/ftZz6FdNe59U/DHp71pysm5ymMfVKu1J7/PPOh7TjgsBNVJ0nSuh9F3zH659+Opvymay+J0/PvMd1HgnGZ7C5YbIBcuU0YE6LGd3ZpBF+MiCPKzpAM+ZRVIG3QxRp9z5XB8ONvEyOOI/DrKlOsuPVrpG9NM2dpVGSjmL2QPiAIym9U7xsWnTsFH+vKxHVsWRi5CTt8Q2moyZTHKbj8N3D9/y5ivfIoaPeY+m0VCdW7R2OOp4Mtk7SCc89jtKRtSZvajeudrxiJ2WleewSf96Vvk2W6WIbv2yYqw4VmnRNvpXGJzxhEc7GdnLf6KnTNOMfjEk51Vdjs5J3upjyMnJIJiLby4t5VGFgeel4NbCduk1AjqfSs8mUFWdzt/ZNIK3DaVk+HRbxa5O4XTL7NhRplz4Bj7sppHPCPqLrvxzXU1izYVsfbPM9G/Hre5su9yt59w+D3p6ZyTpnI8RTckx3WdNtxfEjdNh30WVj+unkxzP1yPTvEj/Tjp3geDljLNZ2Etwn/XQ25TN+fbdNz7zLS5BY4zPY1F6aeP2Nr/XPsQ0P76Bnz57q3wYP4tctZdczp5k8bqcL9/6Ozc41G8pQDdkh2ncyoJ9V3I4HnpfP0+NRGYhSxDOVffHzkXsUM9tULTSsivfZ8cKEjeN9Nvjk3lm9IZMqbeHkjtU8i9lP0rFapINt6aKPR1UeWMgjR/XLHv5nVwcJObbsoBy0w3fidBE28cuOSXe/oPIS9t4mjp/sLJ1NMPNMF1Ne5GpgkQohdUg2RwzcbVvne+jfQ0S3Faree+OWTTjDBJdPZhk/xb5d8pS3BO21t5wGpWM2bOtD8nzPTpL6rtjnX3zmGHn1D4pt/tnZgHa+dIBPFPUV6QCNmjx5wN2P5Z0PaY4XXo8kXsvPK+Hp2Sf9dBblM+w7sknPjam3LSHfETY+g01rS6lcntM/x/bKK9+mL774jf5t8CB+3fJbevofZRqtFGlIGrMP/5nWv9R/ygx//963aPuQ/tWDTxAaz+jffzlP/+Mf/he1zdeur9CLstwXZz7MJ8PLH9L1n/5P+pTD+d233+O/PaNPPlhp/6yD4/dxlbaUd9D25ndwu8txvfUzbrA/0y9kgcN678mvqbRjKxWGXMfiTunWwk/og4/WyJu0r9Jb7+6iAodl6ePPfH9TVPzq9OTeR/TU84Y1esTH2vKtra14NThtfvlTus7p+Lvvvk1vDtd96aKOR59wWv8/H3O67qAif1Z9mvOh9m8czqucJr91Xgknx/4mx3OY46lekfT896WP6NP1gM8mThdhE7/sfPn0mZM+/nJ371/aw/rl04+c+ElYh5rpKWlSp88lvLf/d4YdfJ7posvn5x/Sf/vvd3zlxZV/K8HlpfTaNIdliD7/5Bf0KEFg1j9dpNqLMn1nK7dJzYNxHD9p1XuvdOG0K5/28VPs26Uvv/pPNPr9YY4ft9cXuL3Wr3fS+pyIajPTsa0PyfM9O0nqu5JHv5J3/6AMbnumffkZ/eputa2dkJO5+zwO+fntB7603ph+2u54ph59k17+hhzvd/T55/9Gywv/yO3YOo3+6V4eh4XU/T7pp7Mon0nqe/L03Jh62yLfkWB8BpsWVjYEQPwAAHKkrwCS1ZX7HPVLOLOSKr76qhvhKhfA5qKveOMKd0aQntDfsGcDAABsqKDngPeifglnJuS+ZFkCzgPceJtC+uinV8Td5wEABoOz3wH/379PANhBekK/w2QDAABsqI6bXPWIfgmnFdcGdrJJmGxKNsJxtdooUVZEyD3ZtYW2+5IBoM9J/T5zmmY8G+Qys8Gjs0dBlZY3w+qvLCA9YcDhNooAiB8AQF46b3LVG/olnDZM3PSvWtAmZtHKNLZ/miYn1UTDpZgbSgJAH9G3V4VtfCkTsllu1DjwkJ4w4LCyAQAANlDUc8B7Sb+EMz3Z5Ovm5aQTDbKb+gzJPMMyfxYTDQADau0WXTp7kW7W5Kk8LrLB4PICXTmLE+NEkJ4w4LCyIQDiBwAAAAAAAGAPKxsAAAAAAAAAIFOYbAAAAAAAAACATFndRgEAAAAAAAAAEAYrGwAAAAAAAAAgU5hsAAAAAAAAAIBMYbIBAAAAAAAAADKFyQYAAAAAAAAAyBQmGwAAAAAAAAAgU5hsAAAAAAAAAIBMYbIBAAAAAAAAADKFyQYAAAAAAAAAyBQmGwAAAAAAAAAgU5hsAAAAAAAAAIBMYbIBAAAAAAAAADKFyQYAAAAAAAAAyBQmGwAAAAAAAAAgU5hsAAAAAAAAAIBMYbIBAAAAAAAAADKFyQYAAAAAAAAAyBQmGwAAAAAAAAAgU5hsAAAAAAAAAIBMYbIBAAAAAAAAADKFyQYAAAAAAAAAyBQmGwAAAAAAAAAgU5hsAAAAAAAAAIBMYbIBAAAAAAAAADKFyQYAAAAAAAAAyBQmGwAAAAAAAAAgU5hsAAAAAAAAAIBMYbIBAAAAAAAAADKFyQYAAAAAAAAAyBQmGwAAAAAAAAAgQ0T/Pwfn/tmcYAL4AAAAAElFTkSuQmCC;" vertex="1" parent="1">
          <mxGeometry x="220" y="210" width="1051" height="350" as="geometry" />
        </mxCell>
        <mxCell id="OFI7zE9tUY9UPtECGpIP-3" value="" style="shape=image;verticalLabelPosition=bottom;labelBackgroundColor=default;verticalAlign=top;aspect=fixed;imageAspect=0;image=data:image/png,iVBORw0KGgoAAAANSUhEUgAAA5MAAAOBCAYAAABs8fQZAAAAAXNSR0IArs4c6QAAAARnQU1BAACxjwv8YQUAAAAJcEhZcwAADsMAAA7DAcdvqGQAAN9ySURBVHhe7P0PcJRlnu9/f5Gcnybxp0AnYxJMaBQD4VkgJKuyJz9CyfrnOAyScQ78wp6q+ekc2RpSZ5HStR60tNCSR/jVrK7D2Q3W4i4++zxnSMGZ3WRYZophBgs4WVE3AWUXCDJDSCTgkCbgmST6HJDnuu77urvv/pu+uzudTni/qtp039133/862J9c1/W9Js1fUH1DAAAAAADw4BbzEwAAAACApBEmAQAAAACeESYBAAAAAJ4RJgEAAAAAnhEmAQAAAACeESYBAAAAAJ4RJgEAAAAAnhEmAQAAAACeESYBAAAAAJ4RJgEAAAAAnhEmAQAAAACeESYBAAAAAJ4RJgEAAAAAnhEmAQAAAACeESYBAAAAAJ4RJgEAAAAAnhEmAQAAAACeESYBAAAAAJ4RJgEAAAAAnhEmAQAAAACeESYBAAAAAJ4RJgEAAAAAnhEmAQAAAACeTZq/oPqGuQ/kvIH7/sDc82bqZ/9q7gEAAADIBFomAQAAAACeESYBAAAAAJ4RJgEAAAAAnhEmAQAAAACeESYBAAAAAJ4RJgEAAAAAnjE1CEK+dYss+P4tkm8eBl3+Rj79u29kyDwcS/GnBpkm/8eiP5Tl9/qlZKpZJN2y/a9+Kf9D3WNqEAAAACCzciZMFjXkyaxZ5kGE4cs3ZPjIN/L5iRs5EWhsk6T8B5NluuRO0ErbOA6T/8e3/1TW3GMeBBEmAQAAgNEyLsJkUA6FmgkZJqNMkso/nyzTcj5MTpP/8z/9R/n2VJGjv/zv8vbpy2Z5CGESAAAAyKycGzN5+efX5MhfuG/X5dOffyPD+slpt8h9iydZrwOiDByV1hhBEgAAAEDmjYMCPDdk6MQ38snP7QbUfJ/1IyfkTzN3AAAAAOAmk3PdXHXL5OkTZqGbM54vXpfLb02S8n9/i0ybNSk45k+PtTz/T9el/3dmQUyTpGDuLXLfIh0OnVbPGzJ85hv5rDVijObcybJgkXr/ZELkmetyRK0fJc5+Xj7yjfSeiHx9ZFfaSeo83SLT3eta+xm/C2qB2uf7Rtjn4Q+vyyeHY30MUujmmvJ1SE7CMZNTj8rG//axdJtlbnRzBQAAADJr3EwNUjDbhBMVTCJDTcHiybLo+yp0uQKMpsPhrO/nyYJ4XWNV8KlUYW3+t3XYcr9GPZ6llqsgVf4ts8hIvTVShayG+Ps5/duTpXKuWRBJPV9g9nVW5LqzbpH5P7hFCsxjtyK1PfvYzIJRlvJ1yJSpU+VucxcAAADA6BoHLZOTpGjxLTL9QTugRD0/VwUYFZh0a+LlD7+Rzw+HwqbVKqfDlHru/N9fl96wljHT6qbv6pazsJbB0DaH47WUOusn22pn9tNupftG+n8Xvq1Zalv6GM78xXXpt59QTMtkMAyqdX8e2k99fDosaonOS/g6t6hzoiu2Rm4rFg/HmPJ18CZxNddQ9dZItEwCAAAAmZVzLZPTvp0ni/7cfZtsBS0dJIfPXI8KmuWLnDClnnMFGG3oxHUz1nKSTJttv85RoAKcHSR1UFIBJ6yL6Q3pP6zWVcEndpBMgdqXT//+mnyithUKkpq9rTNn7Ef5ES2hQSqE6vDn3k99fMH1fBHHZ8aW6vMSvo4z/lSdk3gtoZ6lfh3SN038ix6V5XpakIEB+dxeCAAAAGCUjYtursMq8J1Rwe6TyDGI31LhRCdC9fzn8UKfCk+6vmf+fZNcXUEniU89tlrt/ilBi1tY6EvfkNMip/a7aO4tUtkwWRb8YLIVmu1pUVRoLrJeEUHvZ+xWxKFA6vsYGUBTlvJ1SEPR/fJ//5c/lf/3f/mP8tof+qVkoFt+vi/2eEkAAAAAmZfTU4N8+qEdlPIv34hozTOK7BZLPWXI/LDWTPfNdGWN4IwjHM5AUZhk6S6mlT9Q+/T9yTLr26ZITdhYzcwZCtg/p317shS5Wzv12EvTNXY4jSAaJo3rkCkX1e28fRcAAABAFuR0y+TQYbs1S2bdElUIZ9yxxjeqAGm14Olxhdet1tZP1U0HZ6e7asYEu8DaxW+CoU4FWSvUnbkevxVxPOj/WP6ff/U38n/91X+X7f9yRUqm+mXNY/eL3zwNAAAAYHTleDfXG/K51To5SaZ/J0bF0v4bMqx/6mk4TGtm3FucAjJxxygmS1daNXfjc1oDdTEcta9/Z48r1K2tQxnuShvOfm/rHAXZQfbTyGlP0pGB65C6y/I/juyS7b9Vd6nmCgAAAGRNzo+Z1K2T53Xz5LRb5O7IgjEqiF3Wz3luuVTrmVa7mCHV8a3kxvclHUgv35BAWKEfh+kmmklz9TQiIud10Z+wQBddIGdEIwXmlK8DAAAAgPFqHBTguSG9R+wANm1RZPBznlOh8PuTpXKxCj1hYUZPuzFZFvz5ZImsa9P/z9/YrWl6nN8PJkv5XPfYRfU+KowtUO85vyHemMbwQBo5LrEo7P0Mta379D6ah8Ht6Ok/rAI8mWNXc1UhNc3qqcNWP2N1jO791scXdp5Tvw4AAAAAxqdxMM+kFppvcfjD6/LJ4fBd1pPlz7fmaYzDmtsxxvyG37pFBUY952I8I8yLmHD98HkcE+6jnvbjM7GmQAk/fue44++H875R52XEY9NBUQXisPk1o8Xdb92lNaK6bsrXwYPY80xOk//zP/1H+bYclY3/LXZFV+aZBAAAADJrHLRMaqHWyfwHb4lq3Ro6rIKNClvnz5ixew4dlvT4QD2PZKwA87tv5BMV+M58qNazWuAc6rEKS5/qeR0TBR+9vtruZbUdNx3Szv/8m7CpPPQ+fvrziO1Yr7PHUPab6qsZ8zv13up8JKIryU7/9mSpTDDfpLXf+vyYxxa936fNfZeUrwMAAACAcSdnWiaRSaZFU75RAS5ewZtJUtRgj6uM1dqbq2iZBAAAAHLDOGmZhCffmmRNQTL8WaJCO+q5TM0zmSumLpSGytGczRIAAACAY/JdJSWvmvuYKAonScmCSZJ/9yQpuKJC5SWR/2We0gpU2Cx5ZLLcN1+Pb7wh51oyPV3H6PnKF6tc7LAMFt4rD5XdJqX3zpXvPlBrbj7p/+g30qNekX+Z/rUAAABAJtHNdYJyCholpMc+plkQJ9tid3O1+Rc9Kmvv9UvJVLNAumX7X/1S/oe6RzdXAAAAILMIkxNYwdxb5O5Fk6xCO+6qrk4VVz3n5XhpkXQkCpOJECYBAACAzCJMYlwhTAIAAAC5gQI8AAAAAADPcqJlsqLCLz09sSZ0AAAAAADkIlomAQAAAACeESYBAAAAAJ4RJgEAAAAAnhEmAQAAAACeESYBAAAAAJ4RJgEAAAAAnhEmx0yJrK95RT6pe0XaKuaZZV4579Ek6wvNIoxLRSvflP/y3k/k23VmAQAAAJDjCJNjpXCuPJRv3/WXV8ly+y6yzA5xz8ts8zixxfJtFfh06Et4e3axeX2y/HJfTan6eUEGPreXAAAAALmOMDlWBk/I+8P23e7ek7LHvousMiHuwnkJmCUJ1T0g95i7iQz09Zp7ySqXqVaW/Fg+O2cvAQAAAHIdYXLMXJS3O1+XBe2vy4qe42YZssuEuIvnpd9ekFj7m/JXT/1J8Nay94K1+LfbQ8v07b/t7raWJ23GdJmqfya7HwAAAEAOIEzeDGYskhc2N0nLe03y1soisxBOS+Nv/+Ww/dgjX1mGuqbebYdJ7y2aAAAAwNiZNH9B9Q1zf8xUVPilp8dja864ogvlrJGnzRjJSN2922VFz0XzKJYSqSquly3ls8Vv3qM70C7v9h4QKX9FNvkCsuNYs7w9aD8Xqf7ZJmlaaB7IgLRt3Ck7R6k7pR6D2LhMpGPj8/KB3saMxfLtHzbIPaU6eCkXOmT/O29KV4ztF9U9L499p9ZuLbRckN/ubZWPdh9O2GJXpLZxX4PaxsJSu4VPGTj6M9n345aI9dS+bHbtS0JqP59S+2keRdPjJ9eqMDrS6xx+mf3sn8kfRuzjv7S2SOABfc5KrRbOn7ebJwEAAIAcR8tkzrODaEtlKEhqfl+dbKpukmcKzIIcYbfW9cllFRat4javqcDlDm/6blSQ1CHvJ9K4xh0ktVK5Z9laadzcKLHbU3VAU0FMbaPWFdK0qQufkMb33pQ/mmEWaLo7aVJBUhlpHKXTNfXoRyMHyRmN8p/ee0MeibGPj7z2vDxgFd/pkN8QJAEAADCO0DI5hqoqmqSl3JewZXL5HN3yqO8F5ODpf5B1l+zXVRXOk7WzG2SJFTATt0xa3Vx/WCO1KrP07d0lz+0erZF5fvmjzW9IrfxMWv5puhUOB45uk32th6XfCpAq/NWJdLW7r7XTwmdaIT9yXqvMWCx/9EMVFNV+R7famW1Z2VCtu/2/ykfqfe0jU9tZ+T35w2UqnF5Q+/JiZAulZrYb9/kR1D0v/0Uf396XRhgj6Ryfora1/52WYKus1RKrA7R+kOp+AAAAAGOElslcVrhUnjFBUodFJ0hqJwePy7rO7bLDVIRN6NwR+dGLzdL4VPMoBknNFLSR+1VIKlMBTwWtH7vCoXRHBEmR2c+arqIbn5ef6+6s7lbLc4flg3d+JgPq7tQyv73MKFr5Z3aQ1CHsKbVuMEhqaju735T/tnGbFd5iHnGaRW+KysqsnwN9if8IYh+fokL1X6mw6O7e29+u9nF7h3V8FN8BAADAeEOYzGUFRWJFqMDh+K2OucQJaKWlMrDdDniJLZZ7rbGctfLIazHma9S3154I6xpqWywPLNNJUoXQRK15KozGGptpMUVvUiu+48wLOULX1BmN8of6+HTgVaE6Hr0fFN8BAADAeEOYzGFV+fZIwe6hS9bPnOdUJd37UnKFZJKctzGKl/GKccz+w1r131QrsTrzQiYeV1n0wP32+eg8EjfwJtvCCQAAAOQawiQyxglov/0ouWDkBKnIeRpj3cLGJaY9lYZfppXon3ahIM+S7CLrTB0S/3wk2cIJAAAA5CDC5DjgLyg293JZ6gEtcjzk6DMti6m2bGZsXsjkWjgBAACAXESYzGEnA6fEatPyVclya0mEwmK5J87clWF0NdfNTdLyXpO8tTL2JBvp8x6M+vv6rJ9TaxbFmfpDpKjOH/3c5+ftojzLviez7SXRZiyO+57BlsUUeWuBLZWpd5u7YfS0JqY4D8V3AAAAMA4RJnPZ4Al536rWOls21ayS5YXWUktV8Sppq26QJeZxIvUN9rQgWtmyR2S1e+7FTEmlOmr7R/Jb/bP0CWsuydmu/SrS04LoOSTXvCEP1JmFjnNH5LcX9J1aeWTz82o9V8umuq/nntTzWz62coQWz4UN8kcqrDrsbar9MI9jS74FNtBn7aTcs0bvo3XXUlTXKN/erOedtB9TfAcAAADjEfNMjqFk5pnU04O0VdepCBPDcJccHJotS3yJ55msf7ZJmkxwUdFF2jbulJ2pjBVMJOl5FyOY9eKx5qnU04uYx0EzGuU/xaz0ahs4+jO1XrxKr+45KqOFz2mZ+LVBMeeJdM0xGelCh+zvLJNHlol0bHxePsj09QAAAABGGS2TuW7wgKw41io7Au7OowE52NsqjZ27ZNvQyJ1KD7V2SofdSCZ9e/dnPkgqKVclbX9T/mrjNvntBbODhg6D+zf+iT1PpVkW5lyL/LenXpL9Ry/Y8zQ6VEjrsOa3TDBliHTLBy++JB1qXbcBHfDUNsMr0TpzZ44gZovsYfm5Oraw7ajj1PNvtrz4pukOnGIRIAAAAGCM0TIJAAAAAPCMlkkAAAAAgGeESQAAAACAZ4RJAAAAAIBnhEkAAAAAgGeESQAAAACAZ4RJAAAAAIBnhEkAAAAAgGeESQAAAACAZ4RJAAAAAIBnhEkAAAAAgGeESQAAAACAZ4RJAAAAAIBnhEkAAAAAgGeEyXGnRNbXvCKf1L0ibRXzzDKvnPdokvWFZlFaMv1+AAAAAHIdYXK8KZwrD+Xbd/3lVbLcvjsKTECsWSpVZgkAAAAAOAiT483gCXl/2L7b3XtS9th34UmR1K98XN56r0lanNvm1fLCykrxm1fE469bJC9sdq333uiuBwAAAOQqwuS4c1He7nxdFrS/Lit6jptlSNoMHepWSdOymVJmFllKp0rtsodliwp5q2eYZRH8K1fLljU1UltqFljMepsXxQ2Gqa4HAAAA5DLCJOIolntMd9qssYKe3XL31soiszCTimT1D3WoG5COvb+SDRubpfEpc9v4K+m4oF8zVVY0VFqvDqP2bd2yqeqOXneXbIhcr7RGtjybwfUAAACAHDdp/oLqG+b+mKmo8EtPT7d5NLEsn/OKbPKJHDz9uqy7ZBZqhSXWWMSTgxftx4b9+oDsONYsbw/qcYtr5Ok4oa67d7us6AlfP5zaRnG9bCmfLX7zHt2Bdnm394BIuXs79nNSvEraXK9NKNAqC045LaPOfob2e/mcJ+UZny/Y6qa3u+HUATlpHsdS/2yTNC00D1T4atu4U3aeMw8zZUaR1Eu/HIr1vir4vfVajZRd6JQNLx4R9yfS2bc+FQif291vljoq5YX3HpbaGPuc6noAAABArqNlcpSdGQpYP2fkl1g/bSp8zV4jLdVrpK0ifPm9BerH8CnZ5wS8lNkBr6UyPBz6fXWyqbpJntHbiSGpIJlIwTzZqra7yRUkNb3dllwo5nMuTpDU7p4a3vU1qFIetELuWWmNCoTaadm9d0D9nCp3320vsaW6HgAAAJD7CJOj7OSwHSL8BcXWT4u7Imus5UOXTAteaHyk+9bYawfURJbPcVo0A3Lw9PbQusda5eCwCnqxQuOlXa7tqNfpZcPt0hhc5roFWyXdfPJ0ZYMs0S2U7m2e7rKfzq+Tta7DjXSotdN0NdUtefuz1lLn162VuiDPmpnq0YC0vRPeKikzpok13PHob+SQtcDmDsvdfVesn6Vlru65qa4HAAAAjAOEydF26aQdylRoDLbKFRSpQNElB3UmjFquAoYKk2kpXCrP+PQdu9vpukuhrrAnB4/Lus7tssNUhM244S55ub1Z3nZvU4XUl03+DW+hjXDuiPzoRXtMYXSX0AzTXVpNZdUtr+mCPFNU6PuVbHgqRndT02LZ13fZfmx1T1Xrucd2fj4gfepHWdk0+7GW6noAAADAOECYHHWX5Lc6uOUXySx7gSz3zVahq1/26y6w+XPkMTPRf5V6jXZuONE4yCSYUCqBw6HxkFmhwmvXrpjTlTjdfXOXCn4l98of1SXRQlh3r9Sau55CYKrrAQAAADmIMDnqLspvhvTP2fKI1cXTjIscuiR7rC6wPrnHjF+cVaCbE7tkf5oNk04oTbuFcyI7d0SeM5VVN2zcJc17z0qfzJQVa1bFrSQbDIDtH0ub1R13QDr+5bS1KJFU1wMAAAByGWEyC8KL8NhTblhBb6jfGptnL58nj+gsqQLmGfUD2dOti/Ls/oU89+IuK+yVLXskfK5J0xU1pF92Wt1xd8qP2s2iqC6tSqrrAQAAAOMAYTILTgZOWaHRKrZTXCVL1H2rK+vgCXl/WC0vmitVhcVi5Zdg8Z30hRX3SZWre+7E1y8fdNrVVe9/wNU6ee6yWA2KC++VemtBNH/ZFOvnhT7XWM9U1wMAAADGAcJkNgxeEqumiwp3y60uqE5XVtMFVge2TBXfUZzwKr4qWW4tiaCCq24dTU6R3GvGdI66GYvkhc12UZx4XU3TUySrn10UVk01XJH8Uc1U6154uDstHx7VP2dKQ8z9qpSVy/R6Z+VDp8XRkup6AAAAQO4jTGZFqAjPI3pcpKsr656AnjZDLTfVV98PpFl8RzMtnnqc5qaaVbLcFQarildJW3WD1Tqa2HHZb/XO9cnTs5eGvYcUlsjy4gRVWVNU31AjtdZcGjG6mmaAf+UjsmJhjWx5b7W8UGeKFBn+GZWyevMqWWFtPzrc6WlLrKqry/SYysrQumq9FzY/bBfWiZgCREt1PQAAACDXTZq/oPqGuT9mKir80tMTNrPfhLN8ziuyyQqMSqA1NE9j4VIV7upMyNDTasSuhupWVdEkLeU+6e7dLit64oTPsPeNMNwlB4dmyxKfPXVI3Iqvid4jbF9LZH2Nntcy/vsls8/1zzZJkzXJvzYgbRtjTNORJv/Kx2XdspnWOMXYBqRju2tMo4t/5WrZYrUkxnChUza8GDE/pZHqegAAAEAuo2UyS+wWSNvBgGvCf6cLrJbJ4juDB2TFsVbZEXBPyRGQg72t0ti5S7YlM1WHeY+Dw+Gv7VZhdMfpQyOGXq90K16HNchQpG/v/owHSa1bF9rZ+CtpOxpRHOeCeqznmVQBNlaQ1Lp375QN2/U+6nGVDhU+96r1EgTCVNcDAAAAchktkwAAAAAAz2iZBAAAAAB4RpgEAAAAAHhGmAQAAAAAeEaYBAAAAAB4RpgEAAAAAHhGmAQAAAAAeEaYBAAAAAB4RpgEAAAAAHhGmAQAAAAAeEaYBAAAAAB4RpgEAAAAAHhGmAQAAAAAeEaYBAAAAAB4RpjMihJZX/OKfFLXJOsLzaKsc/bhFWmrmGeWZUouHN/4Uf/saml5r0neerbSLEmdf6X9Xi/UmQVpKZLVm5vU+z0u9WYJAAAAEA9h8mZROFceyrfv+surZLl9N4eYQFqzVKrMkglpxiJpWDjVultWMk381r1UFckf1ej3GpDPP7eXRLLDZrLhcJrcXap+XBiQHnsBAAAAEBdh8mYxeELeH7bvdveelD32XWTbuTPy8QV9Z0A6Os9It7UwVU74OysfnLOXhDNhM9lwOGOa6LeTi5fT3K9cVCkvvKdbXRPcNi+KG+79dYvkBavV1rmtlhdWVqb5xwAAAIDxjTB507gob3e+LgvaX5cVPcfNMmRfv+x8sVkan9opP9rdb5alaMTwZ8JmkuHQ/8BMKVM/O/7ltL0gi/wrH5cXno0f5saSbt3dsqZGaq2T7Zgqtcseli0JAigAAMBER5hEjiiWe0w3XM9mhFqN3lpZZBbeBO6eaoW/vr7L9uNIdfdKrfqRbDisKEvcZXY0VZTNlNqFU6XCPB41Fzplw1M6zMe4vXgkOnSrz9a6ZfZ56di7K7Tuxl9Jh25hLq2RLRkY+woAADAeTZq/oPqGuT9mKir80tMz8TrWhejxgGvk6fyA7DjWLG8PlsjyOU/KMz5fsFWjO9AuG04dkJPmcZTCebK+fLE85F5nuEve7dolewbNgiBne+ZhhO7e7bKi56J5FFtV8SrZUj5b/AkCXuh9Ujw+tY22EbYRFGiVBadit6jWP9skTQvNA/Wlv23jTtkZs9tnKnRRmlWyovSsND/1Czlklurl9XXT1M/Lcqjd3cKou1M+LLVHfyWNP1Yhru5xaVkz0zznokNNrPASRW3n2UescZY6OGp9RzultfWI9DywWraooNOxvVl+1K6fUdveXCu1pfaYzMSijyf8ONV2V94vDcvs1kqtTx3TVnVMo/Gbal/DyH3KIBUK33qtRsqc65Ik57PVp4Lkc1EtyeZaZ/wzBwAAMD7QMpltBfNkqwpem1xBS/P76qQlTvGZqoom+aS6QZ6OXCd/tmyq1tVZS8ySzFg+p0laKpMMeZE8Hl9K28gFdfdL05qHpek7s8KPc6UKc+qn0xroL5ti/YzUl8x4SR2A3lulwkwoSGplC2uk6bXHZaVVfOesfGgFSUV3e00qSCpR4yhdxXec7bqCpFa28GFZdzO1/Kqw+KD1R4qz0hqzS/Jp2b13QP2cKnffbS8BAAC4mdAymRWRLYUB2XH6H+TtS3broG4F1OFNO3j6dVl3ybprU899Yj0XkIO9h2Vbz/Fg657VeqhDn34/q0XQPBGHDqUt5b7ELZOu7YXv41K1rTq1rS55uX1XRAGfNI4vSIXQugZZMtwujZ0JWmhj0d1cf2iPaYvdgpSOWC2TzjJ1N6yF0SyXBK2OpqUy1JoYj9PqpahtNL9zRA6Zli+/eo916j2soBe3hdOsn2wLqGm502FSVCAtu6CO9x11vNY2deuoDrXqrseWvWSNesukOe99e38lrWW1VkC3DUjfURUWW0PnNyhOa6b+40HwfAbfN9OfOwAAgNxHy2S2DeswpoKfCVrayUu75OWAfX9GvruVUYW0cieENcs6V5DU9HorTnepez55yJeZ1smqfLvlSW8vfB8PmG3NlkeK7WUxeTq+DDl3RH5kFbVpzs4X+hmz5P7SAek4agev4Dg/a3niVke7pXLkcYn1z5ogqYOMCoPuoNPd/gt5bvtZ6dMP4hXX8ViZ1Sm+U6ZbNlUwanzRCZJavxxq7bS3lxE66DpVUe2b3U15pjRFLM/M/JkhZcsedgVJTQVnq6U3xraixqTa+71F3YJjcz9XYVT9KCvTXZ4BAABuLoTJrArIDj3G0TxyOzNk0pabMzfkcLtsi9map1w6KQfVD3/R3KzNzxg/EHo8vnGqvqHGarn7MCJdWctVUPz4o3iB1pmqI95UHsYMPRel+qlbFRO0AoYHnQgmCHkrvqNevz1xII+7vVzX/rG0HT0rbdtdRXTchXSU2jUjzMdpChpphEcAAADCZG4rKLLH4+XXSUvdK/JJzFuDLLFenBknh+0gsaRylSwvtO7aCufJVtNV9dxwqNXx5mOPo9Otj+FjDs34uqMdCQqxJDdVh9NKOHILp8qbfbGDX/0f6qI/yVZmLZLp1t8HXOMvIzj7FG973pyWH7kDnbo1H9XLdTfX8OWJuwJ70S87f/wL2dneH35Oz6l9eXGXtFmBcqY8GKMlNBgcdSB15ggdg+lTAAAAcg1hEuGCXVLt4j7B0FptQmugNX4r6YTUL+dd2dkusGMXZOnuu2KWKslMw5HkVB3OFB0jtnDGDX9OOLwi5xO1gAa5iu/YC6KM5bQho69fPujUhXRESstcBYZMF9YQ1xyhznkfaXoWAACACYwwmcuGTCuKnhaj/fXEN69FaxKyu6SGt4rpAkCt0ngqfNxmxuUXySxzN/eYEHf0N64iMVNk+owiWf2dmVa31N0JWtKSHS85spHCn3k+bD8TGHF8pddwOkGcuyxWQ+TCe+N2fx2phRgAAGAiI0zmssET8v6w+ulbLOvdXU5HU/Eq2eQT2XHsdVkRFlijCwCNjiK51+ux6mqum+2CLcHCKKOh7n5ZUTogba0RLYt3j1x4R7Nb95INZPGmm9CVVU1xnpGK7yTJ6cIav8V05JbL3KbC/srKsClcwlXKymX62kSGwtPyodX9dqY0xPxcOevF7x4MAAAwkREmc9pFebvXrtb6dHWTbK2YJ1VhQatElleskra6VbLcLEmXXc3VJ/dkqDps8o7LfqtBVB3r7KUR4zXVcRbH3x9d+EZPC6KVLXtEVs+w72fag3ocYoziOXer5WWm62t8TuteeDDx11VKfcT+9vTZXS6tgjCu5/x1OjSbKTqUEbtWLqyV1XWubc2olNXPLopqZRuxC6vpnpvU3Jgp6uk7a1XHHY2w6l/5iKxY9rBs2fy4dT7C5gW1zmloCpbIlmWnim3ZslXyljuQqnMZXC/ZFmAAAIAJhnkms8KZhzH+fJCJ5oB0notruMuqopqReSYLl0pbtZ5PMr5utb33ew+5pv9I7/iCEm471vyWNnuOQvNAhaK2jTsTFMHxzv3+YfNDmjkGLUnMv+hfuVq2mBYwt+g5J11zTEbS8z92TpGmZZLgOF3zYMYQvj3ntfHneHT2e+S5MXNXvHMfpM+rng7FPHRLuG6y83gCAABMQLRMjgMne5plwbFW2REIhH9pHTbjGDtHDpJJGzwh76rtJOLPny1PV66RrYnmm0zF4AFZoY7zoDouNx1ed5w+FDNIarr1yJneoW/v/owGyXDxuzMmU92ze/d+adZzUwYNSMfeX8UYZ3lafrTxV9Lmfu0F9Vo9rYUKPHbrXaLusrpQzK7w9ZU+HZg2RgbCm6P4TvfundY0IPqchBXVcZ3XeK2Let0N2/VnLPraESQBAMDNjJZJuJgWRmlXATVeQZ8SWT5njTWuMmErIwAAAIAJjZZJhBTOlYfyVUjsP5Gg0M5FOTOUuOUSAAAAwMRHmEQUf/mTsrW4RKrMY0dV4TxZP8cZv9kl79IqCQAAANy06OaKMMvnvGJ1YU0oyYI/AAAAACYuwiSiVBUvlbXlc2RGvi+ssqpTxXXfpYtZmG8SAAAAQC4jTAIAAAAAPGPMJAAAAADAM8IkAAAAAMAzwiQAAAAAwDPCJAAAAADAM8IkAAAAAMAzwiQAAAAAwDPCJAAAAADAM8IkAAAAAMCzSfMXVN8w98dMRYVfenq6zSOkrXCptFXXid88DBpul8bOA3LSPESm5MnqVVNlxZTr0vbTy7IzYBaPmmxvL9NS3H9fobz1vQIpMw+DrgzJhl2Dwr8gAAAA2UXLJG4yOsgUS8ufqtuqwlDgvu8Oe5m6vXCfWQakjM8ZAACY+AiTE9HgAVnR/rosCN5a5aB5Ci5XrsVozboun182d5FbAoPy3N9cksbg7UvpME/lND5nAABggiJMAgAAAAA8I0wid8xYJC9sbpKW95rkrZVFZmGmXZPzV8xdt8vXpc/cBdLH5wwAAEx8FODJuhKpKq6XLeVF4s/3mWUB6Q4clg2njsctjlNVvFTWltfJknyzIIl1QubJ1roGWeKhAE8q26uqUEGwXGTHsWZ5e1AtKJwn68sXy0M+X3DMWHegNe571D/bJE0LzQMZkLaNO2XnOfMwg+ofLZYmtUN9xwbkuY+u2QuDxV2+lua/+VIO2Usj5In/vgJZt/BWKZtiL+nrHpLWDnWwtfo94xeU8d9XKCsXFkitWU93c+zrHpStv/w6QeGYdLZ3R9h6sYQdv8N3q6yuLZT7/ZODhW76rnwtrb9W5yROoRz/A9NkS7WE9iXWe3R/6TrW8AI8H8itsvKPC9W5mWw9K1euS8fRL+VHn0XsW5Rb5YU/vUNqRyrA41zbuK9LoiBQCucl9c8ZAADA+EDLZDapcLW1Zo20VM52BUlNhS1fg7TUNcn6QrMoqETW17yi1nEHOy3ROunIzPZ0sPykukGedgVJTd9PJsyOph4VVrQLA66wErgmF/RP9VyPtSCSHTi2PBQe0Mr8BdL0vWnSEDe02YVYtjzkDpKaCiX+O2TLn06T1e6PQlCq29MhRoW7iPWSoUNhy/fukBWuwKSVTblVbbNY3nogzyyJL+57qFussHd3rdpX9fpgkNTU/dqHpkrLo7eaBWMr1fOS2ucMAABg/CBMZo0KkipcWQFtuEt2nN7uKpCzXV7u7VJftn1yT4H9akdVxZPytBXqAnLQvc6xVtkxrJf75OnqVbJc382A9LenjqF8lbSUq4SkjvPlY+HH2dh73Lwu2qHWTumwvmmL9O3dPyqtklq3+8t90HX5PFa3RKP+Ud1ype9dl473B4JFYDb89EvpuKJCRpzg5n9AhZAY6zWq9dqs7U2WFSqo1Ou7LqluT1cLbVKhR6/X5l7v/SHTvVK3iNnLwlol1Xpbqu31Oo59KRvMa+x1v7bWLau+I07w1SarYGje44raxk9dx/o3A7Kh42vzOjcVGtW+6tbW5p+GXtt8zA5hosL2mFc8TeO8pPI5AwAAGE8Ik1lSVbFYlug7VlfTXfL2pYvWcttF2dOzS1ao4LXuklmkFS6VLTqUqWCnu46uc68zeFze7txuAt5seaaixFqclgxtb4lvtnT3qhCpjnPPYPhxntTdX+M5d0R+9GKzND7VLM/t7jcLR0ucapqxKm/6CqXBal61u0G6u192B76WH+0aMMEwglpvnQkikeuJWm9ncL1bpcHdupXq9hT/VPt9Ot6/LDvd6302KM+p8KO39WBUQMuT1QvtVkC93o8+Cu962/3Zl2bdyXL/vfFbJ2v9t1pdOht36a6f7iClzmmcrqBWF9BfDrq6il6TQx9dlg0mUNbOHMvWyUycFw+fMwAAgHGGMJkVJfJYkQlpXQnGLIYFL6WgyO4iGjhsj0GMclHe7u2y7vmL5kqVdS8NmdpeoFVW9EQcSy5RIaDxbyLHxl1T4e6SNP4yRgvaNNO9sXsw9ni6eEZcT23zqL29MhXErHOvpbq9JJWawBnku1Xu1y2dV4Zk92f2oiiffW1NwxG2n5G6VbiKHIOZ0HX5+DexX9/9G7vVT6bkxd/eaEv3vHj9nAEAAIwzhMmsKJZ7rK6j/fKbRC1zEary7Yqm3UPu5soIQ/12C4d67SxrQeoytb2E649DTmtfnxkDl6yk1nOqe06ZLBXWgtS3pzldK2sfukPq3V0vVTB64SG7lS1sDJ/mhNcpBbLFTKgffbtDaq0Xx5fK/o7IdV6yLkPnBQAAYKIiTAITyWdfSrOV9u3iMMHQo4vc6MXdX8ZvZQMAAAA8IExmVZHcm0LlVX9BsbkXg9M1dbhfzlgL0pft7Y0XZe6Kox4kXM9p/YpR3TPV7enuo5pdcMdhCsjEmorEaR1VQTNUNCfOLdEUHJmU4LxkTS6eFwAAgBxCmMyK47LfGjflk6dnL40/1rCwJOy5k4FT9hdU3+I403GUyPry2da97v4TI0+5MUJX2Ixvz6sZi+SFzU3S8l6TvLXS7nKbC4Lj9/y3RlVdtfgmy90xqquG1iuMP/2HKfDS1x0Kealuz2JVc9VzPl6S58ICT3QBmaDA1/KxLugTdz9HizqOaeZumNjnJa6RusI603HEeV2o4m6EMTsvAAAA4wNhMkv29LbbX4rz66SlZpWsL3ZXQ1UhsniVtFWvkZY588wyZfCAvOuE0Oom2epep3CerK9ZY6bx6JJ3Exa8uSS/DVZhnRcKrOo9lrtDY8a2l5r6hhqpLbXvly17RFbPsO+POSdU6K6jq8LHIvpVeHvL6UIaKTAordZF19N/TJMX7nMVvtGT4FsT5esHX0uru3BNqttT7PGWKqQlqLoazSkEZPbzgVvFHxae8qReBa63/jR6CpN01T6k52l0Fa9JdF6iONNs6Gq44e8RNl7U9bqmR92vU6FVz8lpVdyNZezOCwAAwHgwaf6C6hvm/pipqPBLT8+I7Q/jX+FSFRjrQl9mo9hTcoRXUi1xhbhYYq0TraqiyZ77MVKgVRaccs/9mPr2nG3oaUFSqeZa/2yTNC00D2RA2jbuHLW5Jj3zFaoQV2B3vYx05WvpuHKr1PrtqTzCq3eqwBIMR7HEWkdJdXuJ1jP61PofHx0KmzpE05Pzxw9Wilqv7ddfRu2rs541zUdS1Vydc3Jd7cvkOHNmxjkvEeLus+6a6q6YqkJ4iylAFEnvd+uUqdIU8/qlfl4AAAAmusl3lZS8au6PmTvvnCJXr1pNBxPb/zorLb2n5fyk2+We/61Ipvw7s1wFtO7AL+WHR/fKP/0vsyjo93LkwiE5+FWeFBdUiD+pdaL1X/1YDk4qkT+8U23XLJPhLtlx8aQcGfq9WaClvr3iO++X/3hngVz5slNarrrfMznnLk6WmXNKpex/V1/w9+6RN/95yDyTA4b/l+zrvi7/riBP5kxxGvT1OMTfy9ZfDskJ323ycIlI18lh+VerFdjxjfzrvw3Jv3w5SaZO/XdSdptZrNbt6/69/L92/V7+R9jrjVS3N3xDhn3/m9wfXCfa/36bes+Z+TLzyyH5Z9cciFfOD8t/N9u8Q62vLoPtitruKXu7sfZ1yvR8tS+3yP+8+JXsO/+NWZrILTLv/5Evc776Sh3/FfnVl3kyd2qe2i/72b7uIfn/qHC2N4lwpvf5Xyar9UvU+maZFe5O/v/kXy+79uXy1+oahG9Hv65574D8zZlvZFLc65f6eQEAAJjoaJkEJgzT4idDsiFuQZg8qX9Ut8LZLXLe5oUEAAAAQhgzCUwUZpL9xEVrrknPaMwHCQAAgJsOYRKYYMqq77CK/USOzfXr4jbBgjMjFbcBAAAAEqObKzCB1D9abHVhTYiCMQAAAMgAwiQwwfjvK5SVC2+V0ilm4n/DqeL6wWfXRp67EQAAABgBYRIAAAAA4BljJgEAAAAAnhEmAQAAAACeESYBAAAAAJ4RJgEAAAAAnhEmAQAAAACeESYBAAAAAJ4RJgEAAAAAnhEmAQAAAACeESYBAAAAAJ4RJgEAAAAAnhEmAQAAAACeESYBAAAAAJ4RJgEAAAAAnhEmAQAAAACeESYBAAAAAJ4RJgEAAAAAnhEmAQAAAACeESYBAAAAAJ4RJgEAAAAAnhEmAQAAAACeESYBAAAAAJ4RJgEAAAAAnhEmAQAAAACeESYBAAAAAJ4RJgEAAAAAnhEmAQAAAACeESYBAAAAAJ4RJgEAAAAAnhEmAQAAAACeESYBAAAAAJ4RJgEAAAAAnhEmAQAAAACeESYBAAAAAJ4RJgEAAAAAnhEmAQAAAACeESYBAAAAAJ4RJgEAAAAAnhEmAQAAAACeESYBAAAAAJ5Nmr+g+oa5P2YqKvzS09NtHgEYe5Ok/AeTZfo0keEPr8snh8f8n4lRVCLra9bI0/kB2XGsWd4eNItvSs65EOnubZUVPcfN8lwzXvYTyBG+QnnrewVSZh4GXRmSDbsGhW9gWcJ18CBPVq+aKiumiPQd+1Ke++hrszwTnPe+Lm0/vSw7A2YxUkLLJCaEvIY35a5tz8tt5vHEoUNdniz6wS1SYJZkxbcmyTQVJLX8B2+RIvsuJrrCufKQCmiav7xKltt3R4EOg6/IJzVLpcos8SRr+5nr9BeiYmn5U3VbVSh+s1Tuu8Nepm4v3GeWxaO/3JrXvvVAnll4szPn1X1OMQa4Djc1361yvwqSWln1rVJv300gW5+XDPy7O8EQJjEB+OW26lKRL87LNbMEafrdDbl82b47/OE30m/fxUQ3eELeH7bvdveelD323dwzXvYzm65ci9GqcV0+N7/H8fjvvTXYSlLmv5Uv7RNVYFCe+5tL0hi8fSkd5ilkEdcheYGv5eMr9t2+Y1/LIftubknx392JhjCJCaBcJt+lfhAmM+iG9P7dNTnyF9cmeBdXhLsob3e+LgvaX8/xrqPjZT9zXZ78kX+y1cWu7dh1kSm3yh/5zFMAMKauyc5ddujObBdXZBphEuPfgw9Y3Vu/6jxsP55g8k13U2DiKJZ7TDfVCWvGInlhc5O0vNckb60crY7i1+S8+ct9mMvXpc/cTch0I+vr/lp2/uZrtc5kuf9eurqKOg93m+51GEtcB3iRrc9Lmv/uTkAU4Mkav9z+6htS+MU2+WLbYcl7sFEKH39CbtMtasq1Lzpk8G/flK967ceR9JhA32Mig288L7/XrylfLHf+5wa1fqn9ArX+1Vjrl/vltu/8mRTOL5XgVwS9rV/8VH7/Yaxznt5+ankPPi93Pl4reWYdkQvy1b5WGWw9HLfl0NvxqededT2XkFpvrVrPum+O7S73shjKG8X30hOS96l9DtI3SYoW3yLT75vkCoY3ZPjMN/LZP9+Qod+ZRY65k2XBIvdrEzhzXY60hv8KFyyeLPMfFDn/99elV7/3tyZJ+b+/RabNUu9pv0Rt+7p8ptYbsh6Fiu3EEr8Aj1lPvpFP/+4b9V7qOBvUcYZtRx1jq34utgJ1rPeNcKyZKwBUIlXF9bKlfLb4zQ52B9rl3d4D6pq/Ipt8CQrwFM6T9eoz+ZDPF+wG2D3cJe927ZI9cQv2lMjyinp5pii0PZGA2uZh2dB7XE4mLPTj7GuRWtdpKjLrnlLrmiVuVRUquJRL6Bhi7XOg1bV+qIhNLN2922VFz0XzyM2sJ+3S2KnOndrO2tmLZYmzn8MBOdj7D7LuUsS6xaukzXXuE1L7uUDtpy3V/QypKl4qa8vr1D6aBQnPZfjxnVSPl895Up4JO4/tal39XHz1zzZJ00LzQAakbeNO2XnOPMyg+keLpUntWN+xAXnuI/MvbLDIx9fS/Ddfxu8epsf4PHSrdLx/SX702a3ywp/eIbWjVAjE/8A02VItoWIXKsiuri2U+/2Tg91s+7q/lK2//Dp627Fee+Vraf21OraEhTPyxH9fgaxbmCdlUyabZeoLX/dg9HbUuXhr4a3qdeZxImo/G9X6UeLs58dHh2TnZ5H/99PjrqbKCvWvo32+89S1vEMaws7HkNrP+NfCr/Z53Qj7HPa5CJPC9U75OniQgevgv69QVi4skNrge8S55mkJv3763Kz840K1TfM5u3JdOo5+qX6vRuovlbnrEOtz5vz7YP+Om4VRzLFMGeHfixHE3ZZP/R6qH92BWPvmFMBx9sE8GSHu5zjlz4uzvdD2vfz+pfXv7gREy2S2lC+SW1W4uqa+et+ugozvqVBA0/LuqpU7X3pTbldfBmPJK9XBqU+uqTBlFZt5aW14mNLvFRHwdKjzvfSG3OkOkpraVuFTb4ivQf96R0hrP3XI+4laxx0ktVK57bG14nu1MXw/XDwdX/l09f7JBEklrOtrt3x17IL6WSZ5cc6zFTj/swqSOoRmKEhWqsA168HIwKQez1Kh7/uTpXLxJLMsJFOtkTpYLlLbcAc8Td+PF/A8mzZJClRgtY4zcjuzbpH5cYoHFTWo4/924iCZOXZAaKkMDzN+X51sqm6SZxJUN9Ih7ZPqBnnaFSY0f/5ste4r0lZRYpa4zZOtanubosKTeg9fg7SobW6NuZ6iwple195Xd59Ds25dk6wvNIviiLvP6pYoAHmSXyRr56gAq7YTDJKaur+kco18MmeeWRCSVJDMKH3dX1Hn0h0ktSTOpTq+WeZabIo8j+pz05Jq8aAM61FfWrULA64vWupLm/6XTn+h7bEWxFY/81b136/lQ+uLn/qpvzVloaurDpYt37tDVri+uGn6fuQXt7ivVfvZ9L0ERYPUF+4X1JfFLSosh4Kkpt7Hf4ds+dNpsjriOJP6QhqT+mL6aPz9XPHQ1PgFOdS+VZh9bYpc118gW+IUE6lX27OPzSwYZSlfhxSkdR1WFavz4g6SWvxrnjZ1/Vbqa6HOTTBIaup+rbruLY/q37FM8f45O9QxZLWW1S5MUJRGff6sQjfd6Y1LdP4tKp3q/iyoff5j9Xv4vakRn5E8ma63qULwB2n+ISLt34Fp3n//0vl3dyKiZTJbVLC7S4Us2wX56r3/KoPq/9zWx9BqhdPhSd2P2RpmWtTkZxL4xXQrrF1Tr7v6T4et8KWfv+1Bka/cLY2u7VmvVe9pf+T9Kqx9T3yP6ecuhFoCHSnvp3pum3pOr6NbITucfVPUerer9QrVel+99ydy9UOzPCiF4wsy2/1Crftqiys4xmGO79q+lyTQGuP9RnreI7uVUIXFyzfkzD9dl/5gK6QKYHNvsVrl5LNELW8qpP35ZJl22Wn9G5mzzctnblitkfa2v1Hbdrahw1+MFtEIzvuM2DIZDIM35PzPv5HeE/ZrdaujDova5Z9fk9MnrLs29dwi67nIddQ5+fYtKpCqff4Ldb6spelbPke3POp7ATl4OtRqVmW1qukwZD8X1TJZvEo+UaHOWq/3sGzrCbVkVanntujAF2M9u5VQbXC4S14Oa70MtY5Kf6wWNRVe6tT+6Ltq3R29h+TtYAufaelU6547/bo6BrPYcLZ5MNAlS3zq/a1tH1LbDq1fVXhxhBbR0PuM2DJpwpnTumsfo97HJ1WItr+xHYyxnzZznMNO6593I++n6zpEXHer1VZdd/sY1HlqV9fIekKLbAlV11et61wHfd110NfiH5+iu7n+sEZqS0X69u6S53aPUhmrsNZFs8z6Uu1u9YrFtIi4/1pv3it+a1bq7JbJydKhvrDW+tUXbPUlsvnXQ3Io2FqRp0L6NfV5Mg81sz+6Zanj2KDs/ijUsmS1yukwpZ6LLu1vjk3fVdtpC2uxyZP6BwqkofpWuRC3tcasn2xrkXPerFa68GOqf+AOaVLHrcN6eGuFuUbBL8LqON7/Mrif+vh0WNSiWnpc5yV8nUJ1TpJtGfFwjClfh3R5uw7OZ8zaT3Vegq2CuiXvj1UAs851plqNwq+fbsVq7Rg0LbTu6z5Sq6D36+Dtc5agxdAIbyE0C1PhfE7c/6a4p0KJtTxO67LDuabJ/Zvk5fOSxu+fZo7V+7+7ExMtk1mSV2r+3qFDz9rnVaAyAU1TX1Kv/u3P7Md3TVcfx0imwIzcL3c+VaYCmQo6OhwGQ2B3RNBSAcsEQh3erNdajzS13dY3JbBP//2kVG6tDf+bS6r7edtaHSQ75KoKp1d1d1Z3QFXr/d6sl1ca6288Xo/PRbdS6p/JFt/58COre2teaaymSXPe1LFfzUCQdBv+TIc588CiwtwJFdL+bvQK3OggqYPgkb/TIda9jZGDpGc6sKrw54RCTR/fmTP2/XyfHSodBeavw5d/HrnON/LJz/XjSTJtrr0sbYVL5RkTJHXoc3e/PDl4XNZ1bpcdpjJoOBUqdOhTDp5W67mCpHby0i5ZcbpL3fPJQ77YrYzd/TrMmQcWFeb0ep26cEx0AKqqWGyCpA5Zu1xBUrsoe3rUuse2xw8wig6SOmAtUOuHgqQ2cpD0ygpyp5wgqel9bJbGXvsbyRJfdOtk1qjrvsUEycjrLuq6vx287rPlmXitxDqQtzeHXQd9/V42X7hm5MdZTzt3RH70ojoXTzWPXpAMilM98EqsSoPGfbdaYavjrOuL3GdfW5UlR7Oqqw6S+oth4y71hTf4ZViLCJL6i9lC58vcZfmRK8Bo3Z99Kc+9r/c9epyn/4FC69jsuftCXxBt1+TQR2rdnw4k+ILvkdqXDT+9JM/FOKZDH12WZmvH82S6+Xcvig7Wf6O+yLv2Ux+fvV5kS486PvNYn5fwdQbNOblVHszY1ASpX4esUuFknQmSOhSFdS8NfC07dw1ImzXO7VZpyPAUOFbQ+aUTJDX7um/QRa2UWqsHQAak+DkLtk7G3A/1WdG/7OozmG4LofPvh0yxu7VapunWPrVc71vUcnXuTAvfmPL4+xeSwr+7ExRhMkvsbpwXZPBv47Se9SYIQ05guqtUrr1nB7xE8hoarII0unUtuhXQdq3jY2t7kaEqtf1cLLfO1z91F9ifyF3bYtz0GETrtTF4PL4wZfa6yRff6ZXrX6gfMUK7c96++kUSLZxJGuq6Ifr7qp6rUXdnLfiWvTwrzmRqrOFIbsh53epqHrkNBVLffmQATVlBkf0/sMDh2OMh43HmMlTBblu88HbppBxUP/xFc8O6PJ4MnLL+Z+Ivf1K2VsyTqhG6pdpK5LEiE366ErTWhQXEGAJ6Ev8RXpMRAXk/EHs7zvFLQfHYdQUd8bpflLd79R8Doq+fTV8Hd4tlyJmhdL91ZZD60tOovwiF7ZKpgpjgL/7hXVwdWejq2q0nH0/iX1in650KhLvjhb6Y4ddUqNWh4tcJWgfCvoynLxiEfXlSf1+hvPDoNHlr1TRrzjndKqTD1t0xu/Tr/YzdUuZ0pUtF/C/AHqV8HbLMhBPpHozTuqZ+J47avw+Z3c/r8vFvYn+Wuq2iVoo7RKUppc+ZM8WGvzC6m6/5o5IuwuXhm1ccKlzp7eiu2/YC+98Z9Tn+UH+WXf+uOH8QCesmOiZS/P1L8d/diYowmRV+M4bQHhPomQlMicKhmxMIv7b+FORFivtpqqmmzOPxud1Wo/8ZvCDXky6h1S3XrDB5v9zmztHljXLnY+q86e61Hvchod99I5/8/Tdy+fIkmfbgZJn//TxZ9Ofq9gN7rORohsvhmP9DzQ3Od/Fp354sRe5zoMdemq6xw2kEUbeqfLuSZvdQgua8WJwwkl8nLXWvyCcxb6ZLaqTBA7LiWLscHPbJknI9RtK8vkaPlYwXLp0Kp/3ymzRaED0f52jS4w7N3WxL6roP9dtfoMZwP8eGaY1QP5vMJNvOzflCOlqtTEm3RDjhYEqBbInYx9DtDrsFMoxT0fGanM/iv4G6i+kLeiLz702VJj1mT4+/co+hy6Bu8wW89qE7pN4dDvTYS9M1L2Nf0lO+DtnlhJOEny+n2qYr7GRFBreX2ufMCdKRv9dOq/PX0pqRbu1OlVOnZdwZF3lNDlmfx1DQrbD2OfKPWRivCJNZYbpxfmp3sYwpQXdNJzAlFw6TDIROgLvgflFq++l0jdVdar9Ym/gWaxyit+NzSy38ftWp/4ZaKpPt3VYyXXQnggqUp/WcjX9/Xc58eEMFyxsyPC0ULhc0qFBpXnrTCHaBnSSznICtb9+fLNb/a85cl8/dYyzHIxUo1+m5EI9tl5d7u1SwDEi3Lk5jwmXbHBUqzUuBrDKtEYmMaSvTeGONrzJFX658LR3HvpTmnw7IBnXTc+Q53eUyJtgFzy5+Ewx1ugiMXtz9ZfxWRIxf6XzOPhuyuvmWVRdIvVmUqcI7buFFeOw/7FgB3wR5e7nTtfbmK1QzUREms8G03IUHt3C3fcfuBhrdXTPNVs2YVHh63P4qce2C61+ftPZTh8pUvnqkc3xJhN9Y+uwgHNzfB79nFQe6tu+n3t7Hq9/dkP7D11WwvC6f/IUdLi9fFquq630xKrqG0RVTzd2Jw255DB+uqML2h9fl0+C0JZnjLyg295LktFrpaSra7Qny494SFZEZtMc6rutslhX6tcdaVbBU++NrkC0xx+oVyb1JdYvNYU6r7nC/mGGzsWWhRTDhdU92PycYu4urHltmTwgefjNjy0azq2synFYkXaAjah8jbjGLXSQYo5ispFqUnNZAdT7ft8eC6nGFekxb5FQImWV/aQ/vlKML5HwpG36ZiS6LRtrXIQM8tOwlbKVzWlmzFWIyur10P2fX5INu/ZkJjaf132sKJ3Vkrlum07XXug7mj1ZWK7npamv9kcqXJ7r/3KiNLfTweUFmECazwGm5Cwtubg8+L3daYw475OuoLpYmMCVbYEb9alrdONWv8K0PWgui5DX8mRWedKGZQdf2Ut3Paxfs/53lVS+yWy1jyHtQhUZzP5zX43NxWkm96j0iX6tzZO+vCdajUHRHK5ibIASqcHn6iB2owmaAiCM/m+MtR9tcPY2Ingvzmh2sgzcVtg9nNkgGx+/5qmS5tSRCYZwJ9AdPyPs66foWjzgVR6Sq4gStjrrojzNWLyzoHJf9Vrc8nzw9O8G0E4UlOdOieU/MD3eocFF3/4kRKrWOXnAOXfd418/LfqZAV3Pd3CQt7zXJWyvtLre5YaSCG86XzjEuqJJonFdCZtyn2v8Vf5xoOoRkxrF5CKT6fIYV+nGo9zD3Mua+O6zuyPqPAc+FBbroAjkjGumLd8rXIZNGvg7B8Ylx9zNUSCgz4wNDYo+F9bi9ZANQGp+z7o8GrbGt9jQhZmxx3H8HUqSCrTU9xpQ8qbdaIZ2urKYLrD5OE7JHr/hOBv6QBE8Ik1lgj2EUue2pn4ivYbH6mDv8ctvaN4NTcXz1XoyJ9BN0f43H7sapt/em3GkPjLHpKTr03JF6bKD6dY8sspPyfpoKqXLXE9Zcku6xiHnONp96QwpjhdsUji/K/Aa53XWc9jbVfpjH0Zxxk9PlNhOsM1l0J+hbepqLyTL/zyfbXVm/FVHRNGx8oPUjhhty2XQHnf6dW6LGFxapsDoe2dVcJ0n+7CzsvxMKZbZsqlkly13BQk/z0KbnSTSPwzkFWlS4s+aFjBzrqKfBUOvXqfc0Syy6imilPYeh1ZVVhT83PR3JVjO1ROR4vj297faXDj1OU+3r+mL3unpaEb2/a6QlxhyO2afnkzTnxSyxptwITqvRJe/GLQQUHpzd10SH5eVhx52iwQPyrrMNff3c75n0fqauvsGeFkQrW/aIrJ5h3x9zSRTcCLYujGlX19A4rxXfmyYvPKBbNOxnbPZ0CG/96R2hbnuGU73SGue36g5ZfV/o/2Z6PV32/63vTZUtcecADA+k4eMSdeET9/sZalvr9D6ah8Ht6KkCMnwS7fGBk+XutMK+KZYiurqpa799t4YfbxrXIX0erkNgUOy/B5v9dD+njik0DUSmxgc69HyS5ryYJd62l+x1MNL6nH0tu3WFWd3rQL2H7uKa6WAdPB4VGh9UN3er7CGrcnSePDhTP4pfuCh1KfzeIiOYZ3LUOXMoXlD/JJeaLp3RMj3v4W1rf2JaEWOJMb9khvYznvC5Ll3SmtfR7HOcfY09p6Utr8EJ1UrUnJmZo+dNvHvRLTIt5l8ujZHmkFShdMH39dyLsUTPxzjy/JDJSX6eyRty/u+vS2+M6UbivkfCY7INX1ZB+khoDsq0qIDXVl3n+h+wy3CXHByaLUt89hQSkZU/Q3MVxqHng+zaFT7PZPFSWVseOVF+hHhzLCbaV0vi/Uw072IyRn6f0DyM3bq7bsxjjL2PYRIeZ+Tcj9GSO97IOSMjxdpPZ534x5DMtuufbZKmheaBDEjbxp2y85x5OIZGmnPOZuZr013gMjR3oLf54kJCcwfGceVrqxpj1D6657eLaYRjS7i+nkogVAEy4T6q/dNj2Zqq48xJNyX+fsQ9ZyMem271+Vo+DptfM1rc/Y4x91/K1yFdHq5D6Jyah1Ey93l2b6tPhafYE+cnt71kr0Nqn7NIzu+2Fnn+MsP5N8biPoawa5nctuP+DsST9Ocljd8/RKFlctQ53ThbJfDqS3L1Ux3WQq59+jO5+kbswjTaiF1P4/hqm3rP9zpMl1fjiwvy1b5t1vyR4UFSS28/5cM35Ys3tslXahtuwfViBUkl1eOzdcvv1b4Oqn11u/aFnu8yfpDUnKlRdJfdUSm6Y+h5E3XxnU9/riu6hociHZbO//x64iCpWRVh9fjKWOt/k7GJ/bPqd2rfzyQOifnTJsn0b0+WykzMN2lVV22VHQH3/zECcrC31ZrPcVuCqR5O9jRb4xz1umGf0uHQ+pGB4+Qlu/hO42ld0TX8vbt1+Dy9Pf5k/Xpf2+2iPTqshajtB9T29LyHiUJa1gTk/S59jOH72R1ol5dHCpKauSaxz8+hhEEyeRfl7eB1MIsso38uD7V2Sof5p6lv7/6cCJLBLq7qS1XiKoqhv/CPaVdXpfujy9L40y+lrduM3XNcMeMD9TySsX59A4Py3N8MSPOxr60v+yHqfdQX3A1RZf0j6PXVdjsiuuLpkNb2/lDYl2C9jxvej9iO9Tozn+aAWZYpga+l1eqKHF/ZlFtlxUNT5YUE801a+63Pj3ls0ft9Nvq9U74O6fJwHdT/2a2pGTao5R2pXPOUXJePf623GX79+7qHpDnJ4JrsdcjM58z53VYyWHjHzW6BtIXNY+t0gdVcLZYZ5enzgkyhZXK0lTeK76UnRFJqecui8bKfmXKzHW9OMS2akqhFdpIUNdjjKtNtYUWmjdxyB2C0mBYV9S/nhrgFb/Kk/tGpVusQrSqjZeSWrVxltxyOv/1G7qJlcpTl1d6v/slJteUte8bLfmZE+WK5UwXJvFEquoMRfGuS1e13+LNEhXbUcxmaZxIAJgwznUPisW7XEk+4jpuXr1AadO+EKxkuvIObGmFylNlFbbxMqj82xst+pqTc6byvjvNB3SK5Vm7T40YjChAhu/IfvEUqY1S71YWJyhvssZY6VJ6nVRIAwpRV32EVmQn9383m18VfHnXG1mW62AzGM/99ofGEHUdHaRoX3JTo5jqqnAIxHXJ1bYxKrTljvOxnKmIX6UlUnAejr6ghz+rCmpAeE/pPsQv7YCzRzRUYS2EFTuLRY8RGoyAOjHHSzTVGQRo9fvS5iAJLQDpomRxVacyhmFXjZT/Tl0xxHoy+/tZQUaKwuihKqDARQRIAIh36pVNkJqIYjmIXGhkYvYI4GF/MnI4W9XnpUJ8NgiQyjZZJAAAAAIBntEwCAAAAADwjTAIAAAAAPCNMAgAAAAA8I0wCAAAAADwjTAIAAAAAPCNMAgAAAAA8I0wCAAAAADwjTAIAAAAAPCNMAgAAAAA8I0wCAAAAADwjTAIAAAAAPCNMAgAAAAA8I0wCAAAAADwjTAIAAAAAPCNMAgAAAAA8I0wCAAAAADwjTAIAAAAAPCNMAgAAAAA8I0wCAAAAADwjTAIAAAAAPCNMAgAAAAA8I0wCAAAAADwjTAIAAAAAPCNMAgAAAAA8I0wCAAAAADwjTAIAAAAAPCNMAgAAAAA8I0wCAAAAADwjTAIAAAAAPCNMAgAAAAA8I0wCAAAAADwjTAIAAAAAPJs0f0H1DXN/zFRU+KWnp9s8AgAAkaZNu12++51amV42VebOKTNLkatOnOqTz/suyz/+rEMGrgyapQAwsRAmAQDIcTpIrvvhI9J+5LTsP/BvZily3aNL/0DqFt0nf/nX++TK1SGzFAAmDrq5AgCQ43SLJEFy/PnlgX+Vf/7wjHz3iVqzBAAmFsIkAAA5TndtJUiOT/t+fVzKp/vMIwCYWAiTAADkOMZIjm9cPwATFWESAAAAAOAZYRIAMH7NWCRvbX5c6s3DSP6Vq+WtZyvNIwAAkEmESYygRNbXvCKf1L0ibRXzzDKvnPdokvWFZlFaMv1+I8n29iaKcXDeyhfL7WvfFN+2n8hd5uZb2yh55umb0W3qfNjnYbFZksPqHpe3XqsRqwPhDGtJTGULH5aWMQmURVK/Uu3j5iZpec+5xQ++SF39s+5zvNr+A0OCzwQAIDMIkxPM8jlO8CsxSxKZJ1vVaxN+2S+cKw/l23f95VWy3L47CkzwqFkqVWbJaKsqXipba5qs8+Xc2uYsleUExptDeaP4XlorhfNLw8Jj3vwnxPfq83KbeTwe5TXoQJjCMahzos+HlnfX9NwO1bpFcs1MFSTPSvOLv5BD58zyCN27d8qGvQMiKlC+tbLILM2O+mdXSdMytY/2KUXWTFXnfKY0vUZwB4DRRpicYM4MBayf/oJi62dChcXmj/n98pt48ykPnpD3h+273b0nZY99d5xTwXVOk7RU1smS/PAKe35fnWyqbpKtSZw+jGd+uf0/P2GFpWufbpPA2j+RL8wt8F6HfHXsp/KV/cJxyC+3Vav08sV5uWaWJK33iHz9hb5zQZ2DI97Xz5oiWf1D3SI5IG0bVZA0S+PRgbL5qEjZskdkddZaq4pkuvmbXsf2XdL4VLO5jby/8O7Qj53zq24bfyVtF/TSKTKd1kkAGFWEyQnm5HC/fUeFyRFb+AqK1NdORa1zxloQy0V5u/N1WdD+uqzoOW6WjWe6BXSNPO3TITIgB09vl0Z1bPr4FrRvl5d7u6RbfLLEl2qXXowL5Yvk1rvUTx0ktx0OC03XPnxTrrZ2m0fjUblM1seWSphUn/7fv6pD9fM5fQ78Kx+RFSov9+3dLzvjtEhGOvTjX0mHTJUVP1xk/7uXLRc6ZXe7+XcZ2XHutHzQOWAeAABGE2FyohnqV18HPRq6JCfN3bFTLPeY7rSjqrhenra20yUvH2uWdZcuuo79ouzp2SUrjm2XBacmQnAeJ2YskhfMmLJsdUPMq73fapX8qvOwvWAiefABq3vrhDw2S6WsXDbVCmlbd3sJaadlt+7uWlojK+vMIkxY3X1XzD0AwGiaNH9B9Q1zf8xUVPilp2c8twQkT4/TW1uuu1eaBRKQ7sBh2aDCS3SgM61o0i6NnQfU8yWyfM6T8ozPF/zLenegXa2rnzMKl0pbdZ16XoWl9l2mW6pZr0DkXK8OUNZCqapQX+DLfdLdu11W9Fy0XmdtL06oC70unhJ1fPWypXy2+M176P17t/eASPkrsskXkB0qwL3tdKktXiVtrtcmFGh1BTxnP533S+K8WELHd/D068HzMLJUt+dSOE/Wly+Wh9zrDHfJ+72H5G0VaMOlcN0jVKlz674OscS8nnH2890u9VmK1xVa7Z+n6x5BF85oWmgeWN0Wdybd2pS8xXLnqw1y210jDV7rkKtr3wx1cbXGVT4heZ9uky+2xQpnfrn91Tek8K6I9ZzlXzjr+eW2hu9J4WO1wXGIunvt1YhWUbc8dR1u+06D3Ooa03nt05+pdVoi1kn22LSI/XzwebnrqVrzwOWLn0ng1cjtxFCujus7fxY+7vSLDhn8xU/l9x/G+jc9/fOii+60rJkpfXt3yXOewqSix1nqgj1HfyWNPz5tFo4e67Nd0ikbXjzi/Y98EfQfW3QXTiRHV/HdskxG6d8T77h+ACYqWiazRgeEV8w4PbPIor60+xqkJVERnPwimaW+5G9VAWOT60u+psf4tbiL1gxeEvv/m0Vyb/D9iuURvV5+ePfNWQX2eMFzw4kCYrLsANRSGR5gnDGIOsjGklSQTKQgyfOiBYsJdcn+pINkBC/bs6jzMqdJPqlusLrWhq2TP1uerlwTf3yml+vustwaD5pkSHfRf1yIt5+bquMVdUrtumdd+XTJSypsRSizi9Bcu9BrP44Sp0up6UZrracD6bY35E5XYNLy5q+VOxvcZ9qhApauMBuvONC2N+X2crNA83JsEfuZVxp7IvVrSYyXzFNB1PeSOq6IfZS7aqXwqTfEF+vY0jovtvo/nKn+OyAff5RC19FzZ+RjPZZu4b3ZK8xSOlUqzF1k2xU5nwNBEgAmMsJkllRVPGla/OxxevYYPXU71io7rAI3Pnm6elWcaqn6y3yDCqEB2eFat/F0l/10fp2sDQaSS/JbUzAnqLhKlpi70WMpA/LbIXPXNT7SfWvstYv6JLJ8jtOiGX58jer4Dg6rcBIr2Fza5dqOep1eNtzuGsPousXsdqrOWWWy50VxxogGUi0k5HF7mu5Wq8KZbt17WXefNevY4zPt87qkMhPX3SheZQVPfR3C12k3LSO6xdpeFtYqqdbTrdTW9ettDbsGent6XX/5k1F/8Ejpukc41NopHVaxDG9j4DzpbXEV2dlmt8zp1jdX4R375m5dDIWtaxfitCvpIKd/RoZJE0Kl+s/sls0vOuTqGy+ZbbwkVz+1XqXe350KNbvlTgc0qwjOey+59lGtt69DbadUCv+za/qSpI9N3SJaG6+1Ph/+/Hsd9vJ4x+vQQfIpOwSGFzBS+6v2Uct77M/CQ6+W8nlxOEVtUg0J/WYsHYVZAADIBMJkNhQulS3mi7ru7qfH6QUNHlcBbrsJlLPlmXhTeugw0t4c1iXypApjL5ucNyPfWe+i/MYKhz65x7QKVeXrcWhdclC/Nn+OPGYFghK513o+QSXXZKnje8Zq5Iw+vpPq+NYFj28UJH1enPOQJg/bs6jnGo+p4Napu4m6rrs1PrPZrOduRY7gcXvOMR48HbnOAVlhhdDZ8khUS2iJrC+fbd3T663rCe9yrbdnr+uTh3yu7WXqup87Ij960a7C6LnbYiriBcAY8krtUHe9z34cJU7LpRNCrRbDfSosvapCaq8T0Lrlq3/6Wcxt5zX8mRRaLZ06DD4vVz/sdr1Ordf6pgTe2CZX/zZOF1QPxxaLvd8JjteyWO40XWO/eu9PIgoYqf3V+7hP/3WgVG6tDW9hTPW8hEyTu61LMiA99oIUTZW77zZ3R0WR+Fc+Lg26+3ba+4rUzZSmzYuYbxIARhFhMhuCLWKH44wbuyhv99qtTf6iuTG6Lqov63rMmnnk5kwF4uYss4NGiTxWpL7xD/fLfmu5EzIzWPBmxOMbLd7OS/pS295J55wUlshyPbflnCZpM/NbbrLCWCj4hxud44sKvE733+F22Rav+++lk1bLcdjnc8yue5pG7Lrq8KvQo3588bEKPPaSSLfV2KEqsiXPDqE6bL0kgQRVUcP3YbEUPqbX65CricYr9h6Ouz/OsaVWfMeZUiT+8Wp5DQ1WgZ9rKgxe/dBeFulax8fW/ke2MKZ2XjJrVAuz6DGZ1qT5q2SLnl/ywllpeyf98ZLwrnv3fmk+OiB9pTXS9Fp2C3wBwM2EMJkFTmtR91CCgXpOFVY9Ts5akLrg9CAWExrVtvcETlnbCJv2IuG0IMlJ6vhygKdpUzJIF13aWvOKfFK9RjbpMbN6TGLE/JaZ4hyj1XXW3dqpx15W2q2PUWNknVCYXyctKuDqkBt9awh1lTbGy3WPZAfAC/J1xwhf8Z3pQ+K28pmwGdWS5yzvkK9jFqFRocpUkw0LoU6r4qcfhXW19cI5tsQti/EkN6WI01o74vmLkuJ5Gcf0ZThv38UYiT0qGACQKYTJicgEU78KTc54yYOB46HiPDpMFRaL1fNHBYG4FUgnmgwG9qTpsYhO0aXhLms8oh472WjGTzrdVTMm2AXWLpoTDIN67KVeHGiN3/p4U3ACTZ9cG6nxa8QWTCd8RbbkjRzKYnafTbrFNB4PxxZLUlOKJLmNmMeS4nnJMH/ZFHNvFJw7Is9ZE+fvkua9A1JWOlOasj2vJWx190vTQj2FzFlp3rgre93oAeAmQ5jMIivcxeO0DmWgpdAdGpdbrUdOkZ3jsl8HDVeYymSrUsLjS9ZoBr3BE/L+SGNTM8ppDQzYxXA6d1njEfXYyZNh4yczzU6o4W07prBOrClonJCtp18xBXTi3qypSsJl5LpnTXKtb9pIxXfyTPiKeq94y4PSDH1xmWNLsWUzufGSyfDL7Y/H6P6bkfNyWT63hmOmWyF1QD7/3NwdFf1yaPdOaT6q7lLNdUzYfzQYkLZ3fiGHzhEiAWC0ECaz4KTpXiq+xXGm/wgVQOnuP5GBlsJQRdd7rek/QkV27LF2s+WRcju8ZmJakNDxVcWuSlroZXxmgmI0abso+/rtoBWrMmmQnmuxOINhc/iU7HMVpwkpkXvNvYyxqrmK7NBFf8KCYHRhnSAnZMf9fMaWses+Y5G8sDlLY5oyVHwnr+FNq5qpFtmS6ITQ+C18cQJtn/0477Hv2aErlvLF9v7H4hxbiuzjHSngdsu1L/TPWrn1QWtBFHcRoUHXmMqUz0uYfjlv/SqlWo21SP6oZqr6yZQRKUn1dzXb6wVxnQFgtBEms2HwgLxrZRg9/UeTbHUHFR1capzpFbrk3chJ5FNiKrrm18nTOku6psJwAsCMAneLZZpcLX6basLH6unJ89ucLpYJmVZTfY5mL40Y76cL12Qm3J3s+QfXVCzqWlTMc42f1JPv2/v7dGWCsOmVug5bYm1HX/cMD520xzH65B531dUROQWgXOck7NjV+a9Q+1sXMYVJRq67SH1DjdTqHKOULXtEVo9i5UVnTF7yBWpKpfA7rgCnwtydr/5EfI+Vylef2vOZxC6+k6CFz7TQRc3l2HtEvjZB7c5Xn5fbyl2dI9V9PffkXS8lnoPRMr9Bbn8w9Jo8tc+3r22MH1AtTqtgrRS63j/vwcVqP8wD46tOe+qP2556U+50bUefm9v1/JhWEaELMhhRcTbl8xLh0L+cVf+dKvc/kEK4mDFL7te7cfQ3csheAg9S/V3N9nohTAEDAKONMJkle0450yT4ZEnlmrCxbM48fTuOxa7cma6wrqymC6xdACYD04JYVBjpMvMYmgnuneNr0ZPZ67GCdoNgQnt6nffQE96H3sMuXFMfZy5Gr/Rcmq5rUd7gKjpjJt/XXUL11Bppn5vjss3MJemPuZ0uedlU8c0U548FS8pdn7GIW5sKflEtr3oKE2tfzTlxn3+1v5vK9XWUiFbjzFz3bPIyJs8JTTJ/rfi2/UTu0jcV5m67SwWlN/5EBq0sGfleI3fVjN99tlt+/7dmaoy7VKB86Q17m9Z27bknr336M7karwpqMIyqAPxUaF2f2ufC+U/EbUm0dctXx+xwnPeYa92n1sqt9u6GfPimmQ+yVAVK9z7q7djnd/CN5+X3YcefznmJ0P4b0VemrGaWeldv/A/MtAqydPzLaXvBqDJzYjI1CABgAiNMZo0OMfbk8QetIOMISHdATxKfifASEpo6IiDvB9ytnaEusBk1eEBWHGuVHQF3ejDj9Dp3ybZkprIw73FwOPy1esL/HacPZTBou69F+P52B9rlZWvORLMoTSd7mu1J/93n3Doeewzlnkxfi8ET8m7YNYjmV8Hv6co1sjViqKPe1wXmGoZ9nVfnyLmOUZ/RDFz3Q62d0mHnGOnbu192jlq3NI9jFa3QZHbMckG+2qcn6LeDUuxuoWkWmeltUe+vJ++/EL7+Fx0yqKfT2JZgyhAdRl99SQbD9lmFM7XuVRV+403j4bjW+l9jHq+7q6rjq21/IoH3OkyXV+OL8PMTLs3zEua07N47oLJsjazz1PWxUlYu0wVZOmV3u1kET1L9Xc32etqoTgEDAAiaNH9B9Q1zf8xUVPilp2eEv0YDGEGJ3WVa2lWQiy6UYyuR5XPWWOMqu3u3y4qMdKsGsq1IVm9eJStKB6Rt486kQkb9s03StDD516fP7KN0yoYX059rUo8b1BVJkRz/ytWyZZlk8XonxvUDMFHRMglMFIVz5aF8FRITFnG66Gq1Bsarftn5Tqf0yVRZ8drjUm+WxqODRdNC761bGVFaIyvrUikeg5TNMK3QAIBRR5gEJhhdqVYXeQoV/LFV6WJPc5qkpVyPl81UsSdgjOg5HbefVYFypjRtjh8o7RYqFSyO/irL8wz2ywedA9a92jWrrJYp+zZy+I3lxKkkBvrexHTLc/Acv/awWLWWL5yVD3KgVVLj+gGYqAiTwEThqhqsizyFCv6Yoji62JNPBUk9ZnOUij0BWdX+C3luo26hVBJU7exTQbLxx9kouhOue/dO2bBXBd7wYawp+bzvsjy69A/MIyQ2oK55pzS/k3734kz4Dw/Pk57P6RECYGJizCQwwVQVL5W15XNkRr4vrNqlLmT0fu8ha87L9OcyBZBNU6cUyrNNj8oHH56Rfb8+bpYi1+kgueiBWfKXf71Prl7NxFxcAJBbCJMAAIwDU+4skO8+USvl030yd07knC3INbprq26R/Mc9HQRJABMWYRIAAAAA4BljJgEAAAAAnhEmAQAAAACeESYBAAAAAJ4RJgEAAAAAnhEmAQAAAACeESYBAAAAAJ4RJgEAAAAAnhEmAQAAAACeESYBAAAAAJ4RJgEAAAAAnhEmAQAAAACeESYBAAAAAJ4RJgEAAAAAnhEmAQAAAACeESYBAAAAAJ4RJgEAAAAAnhEmAQAAAACeESYBAAAAAJ4RJgEAAAAAnhEmAQAAAACeESYBAAAAAJ4RJgEAAAAAnhEmAQAAAACeESYBAAAAAJ4RJgEAAAAAnhEmAQAAAACeESYBAAAAAJ4RJgEAAAAAnhEmAQAAAACeESYBAAAAAJ4RJgEAAAAAnk2av6D6hrk/Zioq/NLT020eAQCATJk27Xb57ndqZXrZVJk7p8wsRa46capPPu+7LP/4sw4ZuDJolgJAbiJMAgAwQekgue6Hj0j7kdOy/8C/maXIdY8u/QOpW3Sf/OVf75MrV4fMUgDIPXRzBQBggtItkgTJ8eeXB/5V/vnDM/LdJ2rNEgDITYRJAAAmKN21lSA5Pu379XEpn+4zjwAgNxEmAQCYoBgjOb5x/QDkOsIkAAAAAMAzwiQA4OYzY5G8tflxqTcPI/lXrpa3nq00jwAAQCyESYySEllf84p8UveKtFXMM8syxXnvJllfaBblpPGyn7lmHJy38sVy+9o3xbftJ3KXufnWNkqeefpmdJs6H/Z5WGyW5LC6x+Wt12rE6kA4w1oSU9nCh6VlTAJlkdSvVPu4uUla3nNu8YMvUlf/rPscr7b/wJDgMwEACEeYnIgKl0qbCnGf1CyVKrMoUlVFkwl6JWZJhhXOlYfy7bv+8ipZbt/NISawJDhH8VQVL5WtNfb5c25tc5bKcgLjzaG8UXwvrZXC+aVh4TFv/hPie/V5uc08Ho/yGnQgTOEY1DnR50PLu2t6bodq3SK5ZqYKkmel+cVfyKFzZnmE7t07ZcPeAREVKN9aWWSWZkf9s6ukaZnaR/uUImumqnM+U5peI7gDQLIIkxgdgyfk/WH7bnfvSdlj3x3nVACd0yQtlXWyJD+8wp7fVyebqptka7FZgAnKL7f/5yessHTt020SWPsn8oW5Bd7rkK+O/VS+sl84DvnltmqVXr44L9fMkqT1HpGvv9B3LqhzcMT7+llTJKt/qFskB6RtowqSZmk8OlA2HxUpW/aIrM5aa1WRTDd/4+vYvksan2o2t5H3F94d+rFzftVt46+k7YJeOkWm0zoJAEkhTGKUXJS3O1+XBe2vy4qe42bZeKZbMtfI0z4dIgNy8PR2aVTHpo9vQft2ebm3S7rFJ0t8me7Si5xSvkhuvUv91EFy2+Gw0HTtwzflamu3eTQelctkfWyphEn16f/9qzpUP5/T58C/8hFZofJy3979sjNOi2SkQz/+lXTIVFnxw0UqbmfRhU7Z3d5vHiArzp2WDzoHzAMAQDIIk7hJFcs9phtuUorr5Wnr9V3y8rFmWXfpopy0ntAuyp6eXbLi2HZZcGoiBOdxYsYiecGMKctWN8S82vutVsmvOg/bCyaSBx+wurdOyGOzVMrKZVOtkLZ1t5eQdlp26+6upTWyss4swoTV3XfF3AMAJGPS/AXVN8z9MVNR4ZeenvH8F/3k6fF2a8t1N0mzQALSHTgsG1QICYUTh2kNk3Zp7Dygni+R5XOelGd8vuBfyLsD7Wpd/ZyLHjNZXSf+YWe9aHrMZEu5T7p7t8uKnotmqUvhPFlfvlgecm9ruEve7dolewbNgiCzn3HCWdxtuFQVr5It5bPFnyDghd7H2V5Adqhg9/ZgkudFbaNthG0EBVpdwTB0fAdPv66CpFk8ohT30y3OdXi/95C8rQJtuBQ/Ly7eroOLp8+Lo0Rtrz5se3r/3u09IFL+imzyOefNfi6SLpzRtNA8sLot7ky6tSl5i+XOVxvktrtGGrzWIVfXvhnq4mqNq3xC8j7dJl9sixXO/HL7q29I4V0R6znLv3DW88ttDd+Twsdqg+MQdffaqxGtom556jrc9p0GudU1pvPapz9T67RErJPssWkR+/ng83LXU7XmgcsXP5PAq5HbiaFcHdd3/ix83OkXHTL4i5/K7z+M9f+C9M+LLrrTsmam9O3dJc95CpOKHmepC/Yc/ZU0/vi0WTh6rM92SadsePGIpPt/Rv3HFt2FE8nRVXy3LJNR+vfEO64fgFxHy2TW6C/6r5jxdmaRRX359jVIS6LKlflFMkt9Wd+qgsIm15d1TY/Va0mhiEwiVnGe6garS2fYtvJny6bqzBftWW6NQ0wy5EUq8HZeUtpGsJhQl+xPOkhG8Lif1udFnZd41+HpyjXxx2em+HlJ9Tqk9nmxg2/k9pyxp88UmAVjrXy65CUVtiKU2UVorl3otR9HidOl1HSjtdbTgXTbG3KnKzBpefPXyp0N7jPtUAFLV5iNVxxo25tye7lZoHk5toj9zCuNPZH6tSTGS+apIOp7SR1XxD7KXbVS+NQb4ot1bGmdF1v9H85U/x2Qjz9KoevouTPysR5Lt/De7BVmKZ0qFeYusu2KnM+BIAkA4wEtk1nitATa4+3+weomadEtOrPVF3ETVl5u3+UqVuO0bJmHat0dal2nRUq3Iukv41pYi5nTMmkeJhLVyqTe8xPrPdV+9h6WbT2hFlOr1Up/+df7kaDFyDFi66fm2l74sS1V29LHEHlOtBTPSxgVtuoaZEmC1tsgZx/DWiuTkcZ+mm3arXuHZM+gc/5KZHnFk7LJ+ixl6POiOcfo6ToorvW8fF6Wz9Etj/pe+O9Dlfp9WKt+H+w/uESvF0Z3c/1hjdRaY+BSaG3ybLHcuW2t3JZE65uuiup7rFS+eu9P5OqHZqFbvJZL0+J37QuVXFTQy/uiQ67+7U/lq17976MOizqEqbtRLZ5OS6e+f0Ft97/K4IfdZh9drXhx9z35Y4vJ7Hfc43W4WjTDWxL96px9T50z/dwFGXzjefm9O4enfF4cRbJ68ypZUXpWmlMsZJPNFiu71T31fXWjZcsb+zpfyci5zwSuH4BcR8tkNqhwt8UESf3lOBgktcHj8nbndtlhVT6dLc/Ea/VToeLldvXF2rXuyUu75OWAfX9GfiZaC1UYKXfChtpPVzDQ9PZWnO5S93zykC8zrZNV+fZYN7298GM7YLY1Wx5JVCE1C+fF2ce0eN1P9VzjsddlRafuJur6vFjjM5vNekVyb7zWbI/bS+06pPh5Ub8Pz5ggGfn7cFL9PqwL/j6M4NwR+dGLdhXG0Q+Sim7J0z+TKFCTV6pb/C7I9T77cZQ4LZdOi5/VYrjvJfni1TdNYNK65at/+lnMbec1/JkdJHUY1EVwgkFSU+u1vimBN1R4+9s4QdHDscVi73eC47WowGqCpA6d4QWM1P7qfdynm/9K5dba8D+FpXpeQqbJ3dYlGZAee0GKpsrdd5u7o6JIhZnHpUF33057X5G6mdK0eRHzTQJAEgiT2VCgviDon4HDcVpZLsrbvfpLt4i/aG6MLojqS7cee2YeuZ0ZMukgFt3qFqw4Gn5r7I2xntOdU623LV53zksn5aD6EXs/R0f8QJjiecm61PbzpPNZKSyR5XpuyzlN0mbmt7Rb9XxyT8zuoKNzXqKuQ6qflxF/H3LUiF1XHX4VetSPLz5WgcdeEum2GtM6dyG8R4YdQnXYekkCCaqihu/DYil8TK/XIVcTtSr2Ho67P86xpVZ8x2+mFIl/vFpeQ4NV4OeaCoPxWi+vdXxs7X9eqbs/bqrnJbNGtTCLHpP5XpO0vLdKtuj5JS+clbZ30h8vCe+6d++X5qMD0ldaI02v6WuSvQJfADAeESazwGn16R6K941bGeq3vzjo8W7WgjHgfMnPr5MW14T84bcGWWK9ODNODtstSksqV4VP+q/H/JkumeeG3S1z2efsoxQUZy1Aa7qL6dYadc6r18gmPdZWj0mMmN8yU1K6Dil+XpL6fchBdgC8IF93jPAV35k+JG4rnwmbUS15zvIO+TpmERoVqkw12bAQ6rQqfvpRynNcOseWuGUxnuSmFHFaa0c8f1FSPC/jmL4M5+27GCOxRwUDACIRJjG2gl0v7WItwRBSbUJIoDV+q1e2jEXQt8Y3mmJNw11ysLdVXj62XRr19CPtrwe7q2bMeLgOY8oJNH1ybaTGr6SL70S25I0cymJ2n026xTQeD8cWS1JTiiS5jZjHkuJ5yTB/2RRzbxScOyLPPaW7bO+S5r0DUlY6U5qyPa8lbHX3S9NCPYXMWWneuCt73egBYJwiTGaRvyDB4D+nlWe4X85YC8aAE5p0oZmIbrFRt5GK1nhiJ6PwNgVd0KVVGmNOmZJByQTEwRPy/khjWjPKaQ0MyI7TKjx27rLGI+qxkyfDxk9mmsfrkObnJeHvQ85JrvVNc8b3xWslyzPhK+q94i0PSjP0xWWOLcWWzeTGSybDL7c/HqP7b0bOy2X53BqOmW6F1AH5/HNzd1T0y6HdO6X5qLpLNdcxYf/RYEDa3vmFHDpHiASAkRAms+Bk4JT9pdu3OM70H6FCJt39J0Y3PCXihKa4+zkKildZ4/926GIzYQEkuqDL6EhQxCboouzrt4OWv/zJ+OdGV+YtzmDYHD4l+1zFaUJK5F5zL2NSuQ4pfl5Cvw9VstxaEqGwWO4JVqRNQFdz3ZylMU0ZKr5jVXl1qplGtCQ6ITR+C1+cQNtnP8577Ht26IqlfLG9/7E4x5Yi+3hHCrjdcu0L/bNWbn3QWhDFXURo0DWmMuXzEqZfzlu/SlNkekpFVYrkj2qmqp9MGZGSVH9Xs71eENcZAJJFmMyGwQPyrpVFfPJ0dZNsdQcOHUCC0zl0ybsjTO4/upxCQGY/K+ZJVVhI0NNSrJK2ulWxQ0AK7PFzPrknQ9Vhk3dc9jvXZPbSiHGCuuBN+P6c7PkHU2HUdW6sZzQ9+b46L3quxcoEYdOr/DrZEms7+vOS4aGTqV2HFD8vrpbeTTXhYzSd85jMuNz6BntaEK1s2SOyehQrLzpj8pIvUFMqhd9xBTgV5u589Sf2dCGf6iay6JbLEbtqmha6qLkce4/I1yao3fnq83JbuatzpLqv556866XEczBa5jfI7Q+GXpOn9vn2tY3xA6rFaRWslULX++c9uFjth3lgfNXZYf287ak35U7XdvS5uV3Pj2kVEboggxEVZ1M+LxEO/ctZ9d+pcv8DKYSLGbPkfr0bR3+TE9NFjDep/q5me72QVP/oAAA3H8Jkluw55Ux34JMllWvCxqTZQTIgO47FrsCZVXpKCqvSq9rP8gZpcY+fq1sjm8pni18dx8iteclxWqmWlLvOScStTQWOjLb4GXt62+0WMhXawscJ6oI39RGBWQWn4JQV5twE99FMvq+7hOqpNdKuUHpctplqu/6Y2+mSl03130xJ+Tqk9HlR57LLOffhYzSt49NjRO3DzxlexuQ5oUnmrxXftp/IXfqmwtxtd+n5E/9EBq0sGfleI3fVjN99tlt+/7dmaoy7VKB86Q17m9Z29fyLpXLt05/J1XhVUINhVAXgp0Lr+tQ+F85/Im5Loq1bvjpmh+O8x1zrPrVWbrV3N+TDN+Xqp/pOqQqU7n3U27HPb9T8kmmdlwjtvxF9ZcpqZql39cb/wEyrIEvHv5y2F4yqIpmuf82YGgQAMA4QJrNGh5HXpfF0uxy0AokjIN2BVmnUcwLmyDQJJ3uaZcGxVtkRUPtmllmGzfi5zl2Z29fBE/Ku2k4ifhU4nlYBfGumh9gNHpAV6jgPquNy61ZhZsfpQzGCvfsautfR17BdXrbmTDSL0qSvQePpLrUvZoFm7Zc9hnJP2GcoA9K4Dil9Xsy51+uEhF6/LYkpTA61dkqHnWOkb+/+UZxI3uNYRSs0mR2zXJCv9m2z5n/UQSl2t9A0i8z0tqj3f8nabtj6X3TIoJ5OY1uCKUN0GH31JRkM22cVztS6V1X4jTeNh+Na63+NebzurqqOr7b9iQTe6zBdXo0vws9PuDTPS5jTsnvvgMqyNbLOU9fHSlm5TBdk6ZTd7WYRPEn1dzXb62mjOgUMAExAk+YvqL5h7o+Zigq/9PSM8FdlTEAldhdfaVcBIl5BnxJZPmeNNZ6vu3e7rBjTbsATFdcBN4siWb15lawoHZC2jTuTChn1zzZJ08LkX58+s4/SKRteTH+uST1uUFckRXL8K1fLlmWSxeudGNcPQK6jZRJjx0x6n7jo0MW0JtpHErgOuGn0y853OqVPpsqK1x6XerM0Hh0smhZ6b93KiNIaWVmXSvEYpGyGaYUGACSNMIkxpyuk6qJEoUIztipdnGhOk7SU62ozY12caOLjOuCmoOd03H5WBcqZ0rQ5fqC0W6hUsDj6qyzPM9gvH3QOWPdq16yyWqbs28jhN5YTp5IY6HsT0y3PwXP82sNi1Vq+cFY+yIFWSY3rByDX0c0VY2r5nFesrpMJ6bGCXRkcp4koXAfcdGYskrd+OFVarfkEzTIXHSbXlXXIcz/ORtGdaP6Vj8u6mplSpoeEWs5K81NqX82jZP3g+/Xy+eeX5ZcH/tUsgZvdjdk8kAHpO3pWWluPxPxMZNt/eHielJRMkff+v8lWkQaA7CNMYsxVFS+VteVzZEa+L6zKoi6E837vIWuuxfjdL5EpXAdg4pk6pVCebXpUPvjwjOz79XGzFLlOB8lFD8ySv/zrfXL16pBZCgC5hzAJAMAENuXOAvnuE7VSPt0nc+dEztmCXKO7tvZ8HpB/3NNBkASQ8wiTAAAAAADPKMADAAAAAPCMMAkAAAAA8IwwCQAAAADwjDAJAAAAAPCMMAkAAAAA8IwwCQAAAADwjDAJAAAAAPCMMAkAAAAA8IwwCQAAAADwjDAJAAAAAPCMMAkAAAAA8IwwCQAAAADwjDAJAAAAAPCMMAkAAAAA8IwwCQAAAADwjDAJAAAAAPCMMAkAAAAA8IwwCQAAAADwjDAJAAAAAPCMMAkAAAAA8IwwCQAAAADwjDAJAAAAAPCMMAkAAAAA8IwwCQAAAADwjDAJAAAAAPCMMAkAAAAA8IwwCQAAAADwjDAJAAAAAPCMMAkAAAAA8IwwCQAAAADwjDAJAAAAAPBs0vwF1TfM/TFTUeGXnp5u8wgAxpdp026X736nVqaXTZW5c8rMUuSqE6f65PO+y/KPP+uQgSuDZikAAPCKMAkAadBBct0PH5H2I6dl/4F/M0uR6x5d+gdSt+g++cu/3idXrg6ZpQAAwAu6uQJAGnSLJEFy/PnlgX+Vf/7wjHz3iVqzBAAAeEWYBIA06K6tBMnxad+vj0v5dJ95BAAAvCJMAkAaGCM5vnH9AABIHWESAAAAAOAZYRIAAAAA4BnVXJG+wqXSVl0nfvMwaLhdGjsPyEnzcPwqkfU1a+Tp/IDsONYsbzOTQJJy+bwVSf3K+6WhZqaUlZpFclaan/qFHDKPktXyXpM0PtVsHiFS/bNN0rTQPJAB6btwRVrfUef5nFk0xrh+AACkjpbJm0BV8VLZWtMkn9S9Ery1zVkqywvNC25SnJebV/2zq6RpmTtIIjumqnM+U5pee1zqzRIAADB+ESYntBJZP6dJWirrZEl+eMVCv69ONlU3ydZisyAdgwdkRfvrsiB4a5WD5qnclKXzghxVJNNL7Hsd23dZrVL2zXurJEZ26MfO+VW3jb+Stgt66RSZPsN6GgAAjGOEyQnLdDH06bAUkIOnt0tjMOxtl5d7u6RbfLLEN89++U2D8wLjQqfsbu83D5AV507LB50D5gEAABjvCJMTVXG9PJ2v73TJy8eaZd2li66xixdlT88uWXFsuyw4ddwsu0lwXnLPjEXywuYma+zaWyuLzEJMVN19V8w9AAAw3lGAJ8v0OL215bp7pVkgAekOHJYNKrxEF6oxrWjiFLIpkeVznpRnfL5gsZvuQLtaN7LIjVlPbePg6ddVYDKLPfC2n5Hmyda6BlnioQBPKturqlABpFxCxV0K58n68sXyUNj5aXW9R6rnxVnPKSST7HVwibVvw13yfu8heVsF2nCpXveQquJVsqV8tviD5zNad+92WdETse04+/lu1y7ZE7eATonaXn3Y9vT+vdt7QKT8FdnkS1yAJ7JAS9vGnbJzlIuzWNss6ZQNLx6RdP/loYCLN/6Vq2XLMsnKdU4G1w8AgNTRMpk1OiC8YsbpmUUW9aXd1yAtdU2yPl7hl/wimaW+5G9VAWOT60u+psf4tdQslSrz2FI4Vx6yttEl+z0HyTT2MyWZ2Z4Olp9UN1jdV8POj7oFA1da58Uo8HAdLOr45sTZt/zZ8nTlmvjjM71ed2O5NR40cZCMJe45VPu5qfoVaaswAw3D2ME3cnvO2NNnCsyCXFQ6VSrMXWTbFTmfI9VcAQBA6giTWVJV8aTpXmmP0wsWqznWKjuG9XKfPF29Spbru1H0l/kGFbYCssO1buPpLvvp/DpZ6w4kBUV2GAiclD3WguSlt5/epb89n9xTvkpayn0iw7rrqus92rdLY6+ru2oa58Wm9qXSw3XQdLdaFc50617kvr3cG7BesqQyQ9ddK15lBU99PsPXaTctcGo/zLKwVkm1nnUO9XXobXWNI7W3p9f1lz8ZFeyXz7FbeiOvX6O6fgeHVSh1Bcx4DrV2SodVlEWkb+/+nGitAgAAwMgIk9lQuFS2mC/qurufHqcXNHhc3u7cboLTbHkmZuuPosNIe3NYl8iTl3bJy3YekRn5ofWq8lMcd5aJ/fQiQ9tb4pttddlc0Km7YrreQy7KSVfXypTPi5uH62BRzzUeU8Etxr7t6Wk26xXJvfFaXz1uzznGg6cj1zkgK6wQOlseiWoJLZH15bOte3q9dT3hXYv19ux1ffKQz7U9df2e0ZcvxvU7qa7fuuD1G8G5I/KjF+1qn8/tHu2COEXiX/m4NOhutRcGpMdeiKybKU2bF0k9FV0BABjXCJPZEGwROxxn3NhFebvXbm3yF82N0XVRfVnXY9bMI7czQyZVZELa++lRprYXaI0e+zcqUrsOwUBbWCLL9dyWc5qkzcxvuckKYz65J2Z30NG57lGB1+n+O9wu2+J1/7100pruJew6jHj9csiMRfLWe7rIzyrZoueXvHBW2t5Jf7wkvOvevV+ajw5IX2mNNL1G4SUAAMYzwmQWOK1F3UMJBuoN9dtfbPU4OWtB6k4Om9adgmJPgS/b+5mp7SVc3yXV85IuXVxoa80r8kn1Gtmkx4bqMYkR81tminOMVtdZd2unHntZabc+nhuOCN5OKMyvkxYVcHXIjb41yBLrxSFJXb8c1adu5+27GCNl5icAABi/CJMTUQYD34QyFudFj0V0igsNd1njEfXYyUYzftLprpoxwS6wdtGcYBjUYy/14kBr/NbHiezcEXnOmjh/lzTvHZCy0pnS9MNFdohGdtXdL00Lp4pcOCvNG3dlqXszAAAYDYTJLPIXxCvbqTitQ8P9csZakIbBE/J+GmMbs7afxng5L945rYEBuxhO5y5rPKIeO3kybPxkptkJ1QrOQaawTqypVpyQrYKmU0An7i3GVC8Jr1/O6ZdDu3dK81F1l2quY8JfNkX9d0Da3vmFHDpHiAQAYDwjTGbBycAp+8u6b3GcaS5CBVC6+0/EnTsweRdlX78dKGJV4AzScwoWh0JVxvdzhBbA8XJe0jZ8Sva5iwsFlci95l7GWNVc9dybr8uKsCAYXVgnyAnZca9DbKHrVxW7Gm1hsdyTRDVXPZ7xhc2MnUtLqucw2+sFMTUIAAATAWEyGwYPyLtWhtHTXDTJVndQ0cFFT1BvfenuknczVEjmZM8/uKbWUNusmOcaJ6gnmV8lbXpOwUpXqMrYfl6S3wZbAF3bVe8RNo5vvJyXdOXXyZZY29HHl+Ghk/Y4Rp/c4666OiKn0JHrnIQde4ksr1D7WxcxhYmrpXdTTfgYTec8Ro6zjKW+oUZqS+37ZcsekdVU+PQs1XOY7fVCpsh0rjMAAOMeYTJL9pxypknwyZLKNWFj2Zx5+nYci125MzUqIASnZlDbLG9wFVcxk8zrro96CglXJc7M7Ke7BdC1XfUem8rnWcsd4+W8pOa4bDNzSYadh+B2uuRlU602U5zWwiXlrnMZcWtTwS+q5VVPYWLtqzkn7vGWan83lav9VecsfAoTdS67zPyV+eFjNK3j02NE7cPPMUUyXR8+U4MAAACkhTCZNTrE2JPHH7SCjCMg3QE9SXwmwksk9zbd3+r1NtvlZWtuQLMoKDP7ebKnWYUTe7L7IBUudgQiNzhezktqrPOgJ/13H5s+D2YM5Z6wY86AwRPybiBxgvOr4Pe0Cu5bI4Y66n1dcKxVXSN1HswyizpH1nhLtb9R12LwgKww64SEXr8tiSlMDrV2SscF+37f3v2yk+6PnqV6DrO9ntbdd8XcAwAA492k+Quqb5j7Y6aiwi89PWFfXwF4VmJ3DZZ2FeSiC+XYSmT5nDXWuMru3u1Zmp8z1xTJ6s2rZIV0yoYX059rUo8b1BVJkRz/ytWyZZlI28adOfGHA64fAACpo2USmCgK58pD+SMVK7ooZ5JoLbwplNbIyjoK/mTVjEpZuWyqeQAAAMY7wiQwwehKtbqYUajgj61KFzWa0yQt5brqT+aKGo0//fJB54B1r3bNKqtlyr49LvXWUm9OnOoz9xBL/bPO+VW31x6WWr3wwln5IEe6M3P9AABIHWESmChc1XF1MaNQwR9TFEcXNfKpIKnHbGa0qNH40717p2zYe1b6zLi/dHzed1keXfoH5hESG5C+o53S/E763Ysz4T88PE96PqelHgCAVDFmEphgqoqXytryOTIj3yd+s0zrViHy/d5D1pyX6c/ZCcfUKYXybNOj8sGHZ2Tfr4+bpch1OkguemCW/OVf75OrV4fMUgAA4AVhEgDSNOXOAvnuE7VSPt0nc+eUmaXIVbprq26R/Mc9HQRJAADSQJgEAAAAAHjGmEkAAAAAgGeESQAAAACAZ4RJAAAAAIBnhEkAAAAAgGeESQAAAACAZ4RJAAAAAIBnhEkAAAAAgGeESQAAAACAZ4RJAAAAAIBnhEkAAAAAgGeESQAAAACAZ4RJAAAAAIBnhEkAAAAAgGeESQAAAACAZ4RJAAAAAIBnhEkAAAAAgGeESQAAAACAZ4RJAAAAAIBnhEkAAAAAgGeESQAAAACAZ4RJAAAAAIBnhEkAAAAAgGeESQAAAACAZ4RJAAAAAIBnhEkAAAAAgGeESQAAAACAZ4RJAAAAAIBnhEkAAAAAgGeESQAAAACAZ4RJAAAAAIBnhEkAAAAAgGeT5i+ovmHuj5mKCr/09HSbRwCARKZNu12++51amV42VebOKTNLkatOnOqTz/suyz/+rEMGrgyapQAAjH+ESQAYR3SQXPfDR6T9yGnZf+DfzFLkukeX/oHULbpP/vKv98mVq0NmKQAA4xvdXAFgHNEtkgTJ8eeXB/5V/vnDM/LdJ2rNEgAAxj/CJACMI7prK0FyfNr36+NSPt1nHgEAMP4RJgFgHGGM5PjG9QMATCSESQAAAACAZ4RJAAAAAIBnVHPFCEpkfc0aeTpfpLu3VVb0HDfLR0sy23NeE5Adx5rl7WQr7RculbbqOvGbh0HD7dLYeUBOmodjL8Xju+nl8nkrkvqV90tDzUwpKzWL5Kw0P/ULOWQeJavlvSZpfKrZPEKk+mebpGmheSAD0nfhirS+o87zObNojHH9AAATCS2TE47+Qv2KfFL3imwtNoticl7XJOsLzaJYCufKQyrYaf7yKllu3x092d5eFlUVL5WtNU3WtXFubXOWyvJE5x8TQv2zq6RpmTtIIjumqnM+U5pee1zqzRIAAJA5hMkJ56Ls6w9Y92bkl1g/Y3JC2/Ap2ZeoBWfwhLw/bN/t7j0pe+y7o2c0tzd4QFa0vy4LgrdWOWieGl0quM9pkpbKOlmSH17J0e+rk03VTSMEf4xvRTLd/Cp2bN9ltUrZN++tkhjZoR8751fdNv5K2i7opVNk+gzraQAAkEGEyQnoZOCU6E7D/qK5UmUvilZQZHf3HLo0QvfOi/J2px2+Rr+Lq5bt7Y020/XSp0NkQA6e3i6NwTC7XV7u7VLXyidLfPPsl2PiutApu9v7zQNkxbnT8kHngHkAAAAyjTA5ETmte/lz5LE4XSiX+2ZbPw8GJkJgy2HF9db4T5EueflYs6y7dNEV3i/Knp5dsuLYdllwiuuQNTMWyQubm6yxa2+tLDILMVF1910x9wAAQKZRgCfL9Li5teW6u6NZIAHpDhyWDSpMRLcQmlYtcQrElMjyOU/KMz5fsIhMd6BdrRtdPKaqQn1ZLvdJd+92WdFz0Sx1zJOtdQ2yRAec9l2urqRme8F9Cxf7vdzU/lXUyzNFs8UfeXy96viiutOmuj1nPbvQyj51PGtnLw51IR0OyMHef7CCW2LmPHgpwFM4T9aXL5aH3NdguEve7VLnMcHxHTz9utofs3hE4cf39mDy1z0ozn6+33tI3o46L2Z7KXzOHFXFq2RLufu6R4t5PT2dT0eJ2l592Pb0/r3be0Ck/BXZ5EtcgCeyQEvbxp2yc5SLs1jbLOmUDS8esXoNpIMCLt74V66WLcskK9c5GVw/AMBEQstk1ugv7K+YcXNmkUV9ifY1SEuiQjj5RTJLfeneqr7wb3J96db0mLuWmqVR3VkTdnUtrlJBUglkckyi2b+oQGGOT48LrEgwhjNF95Sr0FytAqF7LKK6v6RyjXwyJ7NdR3VA/0RtS3dZDbsG+bNlU/Ur0hZ5fMFiQl2yP+kgGaHA23W3Pmdz4u/n0+q8xB2fmcLnTFtujQdNHCRj8Xw+LXbwjdyeM/b0mQKzIBeVTpUKcxfZdkXO50g1VwAAJhLCZJZUVTxpWuDscXPBIjDHWmWHVXDGJ09Xr4pTvVR/udaBKSA7XOs2nu6yn86vk7WRAWHwkljfnXRAsBaEVKllWnQX19B4Rfetsdcu6JNIVYVuGVR3hnV3Tvf626397B72SXT9i9S3Z9NjDX1Wq1Rom3ocollfhdiMFbYpXmW19FrXr7fVNe7Rvg5WcC9/MvwPAs641JRDu/pMVHq87rpbrT4n1nVwfc5c52VJZQY/Z+q86OCpz0v4Ou2mBU63ftvLwlolUzmfyvI5Tkt2+O9Ro/o9Oqg+Y8kE2kOtndJhFWUR6du7PydaqwAAAMYjwmQ2FC6VLeaLs+5+F9b9cvC4ClTbTaCcLc/Ea73T4aC9OayL4slLu+Rlk5uiK7cel/3Wc7PlkbAAUCKPFel9SaO1LIHu/kMR3RMvWvu5QoXGxF1kU2N1nTx1wLVNPQ6xORhIM1PYpkTWl5sxpqfV9esJ75JsHZ8VuHzykC90HZzQnhav110916iC9YpO3U3Ufb7t82KvVyT3xmsF97i94B8m1HkJX+eAOSeRnz8ttfOpf4+e0R/dGL9HJ9Xv0brg79EIzh2RH71oV/t8bvdoF8QpEv/Kx6VBd6u9MCA99kJk3Uxp2rxI6qnoCgBARhEmsyHYQnU4zjiui/J2r936E7sCq/ryrMeQmUduZ4bMt/wY9gTs9wwLVE7Xy4x2cVVf5p1uteVPytaKeVIVL6xkVEDeD7gDU4izP1JQHLNrpifBaVTaZVu8AH7ppDXNSMIKup6ldt2DY1MLS2S5nttyTpO0mfktN1lhzCf3xOwOmtr2RhIVeFM9nyP+HuWQGYvkrfd0kZ9VskXPL3nhrLS9k/54SXjXvXu/NB8dkL7SGml6jcJLAABkEmEyC5zWm+6hBE2BQ/32F80Y3VJTZr6Qiy80+X+Vb471hTzjVVz1HI7H2q2uhkvK9RhJMzG/CjHZC5cxZOJ8OiEmv05a9DHFvDXY41BdTg6bVq9MBFoPdJGnrTVqn6rXyCY9RlePSYyY3zJTnGO0us66r7Eee1lptz6eG44I/Cmez6R+j3JUn7qdt+9ijJSZnwAAIHMIkxOa09U11K1xVoHd3fa3Q/bjjFKBcp0eA3nMnj/x4HBAunUxHBMu2+aoUGleelMYjT8QjESPRXSKPA2ra9Dbao2dbDTjJ53uqhkT7AJrF80JhkE99lIvDrTGb32cyM4dkeesifN3SfPeASkrnSlNP1xkh2hkV9390rRwqsiFs9K8cVeWujcDAHBzIExmkb8gQTUYp7VmuF/OWAsyw+7q6ow9myeP6Cw5fEr2jWY3wUF7/sR1nc2yQhdIsYqjqOP3NciWUajoGlMmz6cTClUwcgq+xL25pxhx5vtMNBY2o5zWwIBdDKdTXYOe49bYyZNh4yczzU6o4V04TWGdWFPepHo+jYS/RzmnXw7t3inNR9VdqrmOCX/ZFPXfAWl75xdy6BwhEgCATCJMZkFw/J5vcZzpP0IFSbr7T0R/+U6He+yZmRIk49tQqooTtDrq4ijOmNCMBoF4Y/88ns+RWg6dUBj3+sVzUfb120ErVmXSID3XYnEGw6b+Y4GrOE1Iidxr7mWMVc1VZIcu+hMWBKML6wSleD5Dv0ehbtthCovlniSquerxjC9sZuxcWlI9h9leL4ipQQAAGA2EyWwYPCDvWplCT//RJFvdwUEHiRpnuoMueTfjFU9NV1cVmNb69Jew+EVrUqar1Vbac2VaXVkLw4NRlWv8XKbHuy2p1PMRuoKsp/N5SX4bbDkMf4+w8X/BAknm+kWNAS2R5RWrpK0uesqNkz3/4Jr6xaxrPaPpyffVenquxcoEYdOr/DrZEms7+rxkeOikPY5RhXp31dURpXg+XS29m2rCx2g65zFynGUs9Q01Ultq3y9b9oispsKnZ6mew2yvFzJFpnOdAQDIOMJkluw55UxbYCbUd40tc+bN23EsdiXNdNmVOGdbhVhGpYurCssbTtvFd3RX1pZq1/GpW4vzJX+4XTZkNCwHpFudU78ek5nS+XS3HIa/x6byiClF9JQb1nQjEQWGrNsa9frZ4lf7Ej3lhp5L03Xt3dtR61mT7+suoXpqjbSvy3HZZqZECTue4Ha6rLGsmeS0Fi4pD7/m7lubCn5RLa8pnU91LrvM/JX54WM0rePTY0Ttw88xRTJdHz5TgwAAgAmGMJk1OlTYk7nr8YMhKhAF9KTtmQgTsQW7Byqj0cVV0/MK6uI79vGFf6PXE+jrMXyNMca/pUUF4w3WNrusUOnoDrTLy8eSO58nrTkp7Unyg/T+BqJbUPVr9fjPHQF1zcwyizpea3xg5674U7/EPDf62tv7ui5DDbbW8UScD+t4zBjKPWGfvQwYPCHvqvORiF8Fv6cr18jWiB7OKZ1Pq2qwvU5I6PXbkpjC5FBrp3RcsO/37d0vO+n+6Fmq5zDb62ndfVfMPQAAkGmT5i+ovmHuj5mKCr/09IR9nQSQ80rsLsXSnuAPBSWyfM4aa1xld+92WZHxbtzjQZGs3rxKVkinbHgx/bkm9bhBXZEUyfGvXC1blom0bdyZE3844PoBACYSWiYBpKZwrjyUP1Jr90XTzRpSWiMr61IpHoOUzaiUlcummgcAACDTCJMA0qIr1eqiUpHVfHXhpfVzmqSlXFf9GY3iUuNFv3zQOWDdq12zymqZsm+PS7211JsTp/rMPcRS/6xzftXttYelVi+8cFY+yJHuzFw/AMBEQpgEkBpXlWJdVCpU8McUxdHFkKyiT12jVlxqvOjevVM27D0rfWbcXzo+77ssjy79A/MIiQ1I39FOaX4n/e7FmfAfHp4nPZ/TUg8AmDgYMwkgLVXFS2Vt+RyZke8Tv1mm6cJL7/cesua8HI2iTzerqVMK5dmmR+WDD8/Ivl8fN0uR63SQXPTALPnLv94nV68OmaUAAIxvhEkAGGem3Fkg332iVsqn+2TunDKzFLlKd23VLZL/uKeDIAkAmFAIkwAAAAAAzxgzCQAAAADwjDAJAAAAAPCMMAkAAAAA8IwwCQAAAADwjDAJAAAAAPCMMAkAAAAA8IwwCQAAAADwjDAJAAAAAPCMMAkAAAAA8IwwCQAAAADwjDAJAAAAAPCMMAkAAAAA8IwwCQAAAADwjDAJAAAAAPCMMAkAAAAA8IwwCQAAAADwjDAJAAAAAPCMMAkAAAAA8IwwCQAAAADwjDAJAAAAAPCMMAkAAAAA8IwwCQAAAADwjDAJAAAAAPCMMAkAAAAA8IwwCQAAAADwjDAJAAAAAPCMMAkAAAAA8IwwCQAAAADwjDAJAAAAAPCMMAkAAAAA8IwwCQAAAADwbNL8BdU3zP0xU1Hhl56ebvMIAHAzmzbtdvnud2pletlUmTunzCxFrjpxqk8+77ss//izDhm4MmiWAgBuBoRJAEDO0EFy3Q8fkfYjp2X/gX8zS5HrHl36B1K36D75y7/eJ1euDpmlAICJjm6uAICcoVskCZLjzy8P/Kv884dn5LtP1JolAICbAWESAJAzdNdWguT4tO/Xx6V8us88AgDcDAiTAICcwRjJ8Y3rBwA3F8IkAAAAAMAzwiQAAAAAwDPCJG5yJbK+5hX5pO4VaauYZ5blovGyn8lwjqVJ1heaRUhCLp+3Iqlf+bi8tblJWt5zbo9LvXkWmVP/rPscr1bnXJ3nGeZJAACyjDA5IYWCR/itSdpqVsn64hLzOkjhXHko377rL6+S5fbdUWCuSc1SqTJLPMnafqauqnipbK1pCvvMtc1ZKssJjBNe/bOrpGnZTCkrNQuQJVPVOZ8pTa8R3AEAY4MweVPxiT9/tjxduSb1UDPRDJ6Q94ftu929J2WPfTf35PR+qqA8p0laKutkSX54JUe/r042VTfJ1mKzABNQkUw3f5/q2L5LGp9qNrdfyCF7MTLo0I+d86tuG38lbRf00ikyndZJAMAYIExOaF3ycvvrssC5HdsuL/d2Sbd+Kr9OWgiUykV5u9M+Pyt6jptluShX91O3uK6Rp306RAbk4Ont0hj8zDmfN58s8Y33rrkY0YVO2d3ebx4gK86dlg86B8wDAACyjzB5Mxm8KHt6dsmKY+3BQLmWFqMsKZZ7TDfVCaW4Xp62jqtLXj7WLOsuXZST1hOa83nbLgtO5XJQn2BmLJIXzNjFt1YWmYWYqLr7rph7AABk36T5C6pvmPtjpqLCLz09VryZ8PS4srXlujugWSAB6Q4clg3qy3boS7jDtPpIuzR2HlDPl8jyOU/KMz6f+M0rugPtal39nJtZL1+3TO6K2SWyqkJ92Sz3iQw77x2hcJ6sL18sD7m3Ndwl73ap9xs0C6Ko/auol2eKZos/8vh61fHFXU8rUeemXraUF6l1na6Sic6NcwwiO1SIeVu/d6x9DrS61nfOi/UgSnfvdlnRc9E8cgu/Dno7a2cvDnXpHA7Iwd5/sIJUmOJV0lbuPhcJqP0MBa5U9zMku58zkYOnX1fHbxaPyFkvYK5dsttzifP5fL/3kLwdeR1SPr6QKnUtt4xwLWNelxR/j+zfhdD29P6926s+e+WvyCafc97s5yLpAi1NC80DGZC2jTtl5znzcJRY2yzplA0vHrH/UJUGHYJ1F04kx79ytWxZJlm5zsng+gHAzYWWyazRX2hfMePKzCKL+pLpa5CWRBUa84tklvpSulV9Id7k+lKq6TFpqXRXPRk4ZVon1XtbS0J0SPukusHquhi2rfzZsqlaVxONVcDH7F/UF25zfHrcXMz1FHNsLZV6XfeYuyTOjRF3n9UtbiDxSp2rtXpsoNpO2NhAdX+JHoc6J7orZ1JBMqOy+DkLFgXqkv1JB8kIBV4/1+r41DWI9/nU44Hjjs9M8fdouTUeNMk/Crik9ntkB9/I7TljT58pMAtyUelUqTB3kW1X5HwOBEkAwM2HMJklVRVPmpYme1xZaBxjq+ywCqv45OnqVXGqdOovnzrABGSHa93G013206l0Vw0WdCmSe93honiV3WKp97O31TX+zd6eDqD+8iejAklVhW6pU3eGdXfH0Dp63Jy13rBPYteHUF/urWNTd9W67uNzj7m7J+6XaPVcudlna9vh6zf2urtXhsYdum+NvQHz/EhmyxIVDHQrUegY9T6a9VVYCwsyl3a5ttMqB/Uy3RIcXOa6BVsltdT3M6ufs4IiOyQFUi0IpPal0uPnWner1dcgxrV2rsOSygz+HqnfBx089fkMX8d0FXeNSw5rlUzx92j5HKdFOvz6Narrd1D9DiUTaA+1dkqHVZRFpG/v/pxorQIAABMTYTIbCpfKFvPFUndPC+sOOXhcBYft5ov+bHkmXuud/vLc3hzWhe+kCisvm3wxIz/OeiNyB7USWV8+27p38LTaz57wLpF6eyusL94+ecgXe3vd/Yciuu9dtNdT4ShW10wrhOo7VnfbXRFdFENj7hJ1oVzim211MVyg1t8zGL5+4q613lldGU8dcB2j3sfmYNAb00IzWf6cVeVnYDye18+1eq5RBfkVMa61vg72ehF/IHHzuD3nGPXvQ/g6B8zvwmx5JOoPOSn+Hqnr94y+fDGu30l1/dYFr98Izh2RH71oV/t8bvdoF8QpEv/Kx6VBd6u9MCA99kJk3Uxp2ryI+SYBAFlHmMyGYAvO4TjjnC7K271264i/aG6Mrnbqy6UeY2UeuZ0ZMt+CM8HptqiC3bZ44e3SSauFLXI/nW6zurVla8U8qYr3ZT5MiTxWZMJPV4LxcWGhIYZAa8ygmnkBeT8QezvBbsMFxTG7SmbFePmcBaW2veAfCApLZLme23KOnj/Vnt9ykxXG4rVkj87xRQXeVH+PRrx+OWTGInnLmjR/lWzR80teOCtt76Q/XhLede/eL81HB6SvtEaaXtPXhMJLAIDsIUxmgdO60T2UoHltqN/+IqbHdVkLsiUgvx0yd50vs/l10uKaeD781mC3JEYaPGBVidVd8ZaU6zGS5vXqS378cOlUOO2X36Tx5Tnhec22rF+/kGx/zk4Om1avLAdoXVxoa436bFWvkU16bKgekxg21jZznGO0us66P8N67GWl3fp4bjjiDwwp/h4ldf1yVJ+6nbfvYoyUmZ8AAGQTYfJmFSyekl6QC6MC5To91s/MZ3lwOCDdujiNCZdtc1SoNC/FBDAWfwDRYxGd4kLD6jPW22qNnWw04yed7qoZE+wCaxfNCYZBPfZSLw60xm99nMjOHZHnrInzd0nz3gEpK50pTT9cZIdoZFfd/dK0cKrIhbPSvHFXlro3AwBgI0xmkb8ganBViNOaMdwvZ6wFo6vKN8d0qXMVT3HCgZ6mwhT+iHuLNZ2Iw8xnua6zWVbo11rFQ9Tx+xpkS8yxegnGuI0XyV6/LASvrH3OgkWcEozBzCinNTBgF8PpVJ+xnuPW2MmTI3WFToudUMO7cJrCOrGmWknz9yjh9cs5/XJo905pPqruUs11TPjLpqj/DkjbO7+QQ+cIkQCA7CJMZkFwPJ1vcZxpGUIFO7r7T8QPaZkSLNQicjDgqiLqhIO4+xlfVXGCVkddPMQZqxf2Rfm47Le+p/vk6dkJpjcpLMmZFs3YY/G8XL/RC87Z/5xdlH39dtCKVZk0qHCerC/OYNgcPiX7XMVpQkrkXnMvY6xqrnou09ftP4wEb9GFdYJS/D0KXb+q2NVoC51u4SOYsUhe2MzYubSkeg6zvV4QU4MAAMYGYTIbBg/Iu05o0vMtur9Y6y/aNc50AF3y7mgWktEFSypWSVt1nWmVbI2okuoUaDH7GTXW0axfFzH1gg6nlfYchlZXVrUdtyrX+LLI8WB7es0UC3p8Wc2qiNChJ2/X+7tGWmLM4Zh9ej5Jc17MkuSvX3hwDh9/pwvJZCBsjcHn7GTPP7imHIk4N8Hr1yBPVyYIm16pz8qWWNvRx5fhoZP2OEaf3BOnenFsKf4euVp6N6nfBfdnxDmPMccrR6hvqJHaUvt+2bJHZDUVPj1L9Rxme72QKTKd6wwAGAOEySzZc8op628muHeNvXLmldtxLHalydSpL6XOdqxtrZFN5bOtIKnnStRd9KLoqResaS4iCulYN7O+Oo6w1jUVYjactovvWBPjq+2E1nnFnuRfv264XTZEhhhTuMcOlPak8+7ttejJ2/W5CZsvcuzo+TKt8+Lso4fr5w7O4ePvdCGZ+jhzI3qT/c+ZnhPTtU33uXFdP2tqjbTH5h6XbWYKFn/M7XRZY3UzyWktXFIe/pl239qi/giipPJ7pM9lV+h3wf0ZsY5PjxG1Dz/HFMl0ffhMDQIAwE2HMJk1+ku3Pdm5Hj8YElDBTk9qnokv2yNR29Lz7B2z50qM183xZE+zPcl9QL3eLLMMm3Fiej7IiH3V8+7p4jv28YV/49Xb1GPcGuONs9SB0pp0vku91iyzZPPcJCMg73eZSedd+6mD+cvHkthHKzjr8aOxzs+hDAW8sficubfpPja9TfvcJJon1Av92Yw8/7oQjzOGck/YMWfA4Al5V/0eJOI3fwTZGjHUMZXfI+czotcJCb1+WxJTmBxq7ZSOC/b9vr37ZSfdHz1L9Rxmez2tu++KuQcAQPZNmr+g+oa5P2YqKvzS0xP2dQvIISWmi6hu1cuVYIvRZ667tMf/Q4jusjpnjTWusrt3e5bmO801RbJ68ypZIZ2y4cX055rU4wZ1RVIkx79ytWxZJtK2cWdO/OGA6wcANxdaJgEgFjN9TuJiRRflTBKthTeF0hpZWUfBn6yaUSkrl001DwAAyD7CJAAkoCvV6mJGkRWFdWGp9XOapMWqjDzKxbNyWr980Dlg3atds8pqmbJvj0u9tdSbE6f6zD3EUv+sc37V7bWHpVYvvHBWPsiR7sxcPwC4uRAmASCWwVB1XF3MKFTwxxTF0UWNfCpI6jGbGS+eNb50794pG/aelT4z7i8dn/ddlkeX/oF5hMQGpO9opzS/k3734kz4Dw/Pk57PaakHgJsJYyaBETFm8mZWVbxU1pbPkRn5PntKHUMXTnq/95A152X8brDwauqUQnm26VH54MMzsu/XuVHFGSPTQXLRA7PkL/96n1y9OmSWAgAmOsIkACCnTLmzQL77RK2UT/fJ3DllZilyle7aqlsk/3FPB0ESAG4yhEkAAAAAgGeMmQQAAAAAeEaYBAAAAAB4RpgEAAAAAHhGmAQAAAAAeEaYBAAAAAB4RpgEAAAAAHhGmAQAAAAAeEaYBAAAAAB4RpgEAAAAAHhGmAQAAAAAeEaYBAAAAAB4RpgEAAAAAHhGmAQAAAAAeEaYBAAAAAB4RpgEAAAAAHhGmAQAAAAAeEaYBAAAAAB4RpgEAAAAAHhGmAQAAAAAeEaYBAAAAAB4RpgEAAAAAHhGmAQAAAAAeEaYBAAAAAB4RpgEAAAAAHhGmAQAAAAAeEaYBAAAAAB4RpgEAAAAAHhGmAQAAAAAeEaYBAAAAAB4RpgEAAAAAHhGmAQAAAAAeEaYBAAAAAB4RpgEAAAAAHhGmAQAAAAAeEaYBAAAAAB4RpgEAAAAAHhGmAQAAAAAeEaYBAAAAAB4Nmn+guob5v6YqajwS09Pt3kEIFqR1K+8XxpqZkpZqVkkZ6X5qV/IIfMIAAAAyCZaJrNh7mRZ9Od51q1yrlkWZpJUmucXNUwyy25C37pFFpjzsGDxTXweYqh/dpU0LXMHSQAAAGBsESazbFpljJA09xaZZu7ezApmT5J8cz//vklSYO6jSKaX2Pc6tu+SxqeazY1WSQAAAIwdwmS2zbpFRYNwRbEC5k1nkvhUgJTL38j5D2+o1K0ef8s8BduFTtnd3m8eAAAAAGOLMJlFl8/o4amTZFpYV1f1eJb6oZ67bC+4OX1LnYdpIsOf3ZDerhsyrM/LbEI2AAAAkKsm31VS8qq5P2buvHOKXL16xTyagIpvkbt1q5sKSv/zbhWSJt2Qz0+Z5+ZOlvvUc5fVc6Key7/ses6lYO4tMnO5eu0fq/f69/pmt9z9T/Xa/2VeE6THHq6dLDPnqAB79Eb08yqolf8gT+b+8SSZpELsl4NmcdAkKVqstvWweo/I7anE+7+iXu+iQmH5I2q976ibtd4t4pszSa6fvyFDidaboY5PnYf/+ek3EuhWnwm13h0F8fbfVqD2sXbVLaFjiLXtb6lzHvMcpbifcdb7374W+fKSeU3GDcm0P7hf7r/9gvzq15/LBP5NAQAAwDhCy2RW3ZBh3fzo6upa4NP/VcsDEhwvGM4OfvO/fYvVcheiguesyTL/zydLeUa7g06Syh9MllkPqvePtb3vT5bKOMVxdLhbpJ6fPis09lHLnzZJZn0/cVEdu6vvDbl8Qj9SP8+oHx66usbdtroN2XeDUttPdR0a4q83/dvqvMQsrpRBpVOlwtwFAAAAxhphMssCugVSBRO7q6szTvCGBOIMhStYfItMt0KdClg/vy5H/uKaffv763Le6hergowKOJHjMFOlt2eFVrVPZ/7ebMu6XZdPf67DcHiQCpqrgqYKoNZ+fqheG1zvmr2eeib/wVviBF+nq+834pyG/tPmPI3Y1VXtz78327b22XWO9D7/s34fl1T3c666DipEDsfYxhk9xlOZpgJlpq4DAAAAkOsIk1mU7xMZOvyNNTbSqupqxglePvJNVOuZ5Vu3yH0m+JxXAeb0CVcw+t0N6f07V6DM8FQaw5+pYPc788ByQ4ZOXJdP/u6afHI4IqCp7ZcvsrevA+9p9bz7eKz1VFCLGw5NNdvLVoA0TtjnKZmqrtN0yFPB8Ig6H/3qvISo/Qg7hjT2Uz33qQrXn8TYRv9hFSh1S6qSn9FWYq1I/Csfl4aF6u6FAemxFwIAAABjjjCZdaEunEXWVBjqse7aWRSjxc9ZduYb6Q0LRQ4VKI/YwSZTU2kMWcVv7NY53Z21IJlwZEKxrsT6udVNNYYE4TC8i6sjdJ5G7Op6RoXAqIAbQ5r7GQym6n2KVACubJgsC35gzyE6S7esqhCan6mmyRmL5K33mqTlvVWyRc8veeGstL1zRLrN0wAAAMBYI0yOAasL57RbrHGJ7q6dkezxlGKNp4yr3w5/OnRlIkzK776RT/5eBarLKng9qMdI5llhaZEKTXHDpRN61THN16+NeZscZy5NtR0TxGZFrOMEtJG6uiY8P25p7ae6HjpA/kC95vuTZZYew6rHTqrzng196nbevgsAAADkBMLkWDCtX1pY185coQLl6b+7Zo3L1OMBL19WgVWFJidcLmjIUHDVTBfXRDLV6poWPdbSKYKkzoceb6nHTn5qxk863Vwz5twRee6pZml8apc07x2QstKZ0vTDReI3TwMAAABjjalBssGZGkSFEGfaj0mTJ0l+wQ353S/NuL0Yr/l3M26Ru+6eJP/uq9jThVjMlBrWes40GoWTpGSBWm/4hnwRZ2qQOxfeInfki/zPT2JNDWKo5UM9NySg3uOLf/5GPj9zQwrK1XrT1W2yWuYM4Js0SXx6e2f0uEX1Ov3aeLeI/Smqm6wCmj0m9MT+yNffkElz1LZUgLsWYwoT5/xcO+/al0RS3s9JUvl/3WJ1ST7/82/kxC+/kYDanp5CxJkmpUDtpw6aeqxpIKNThAzJuRP/Kr+bcb/cf99Xcrr1jJwzzwAAAABjiZbJMaKLtnyiAk28Lq6aM35RTyUSrwqqU1BGT/YfLCbzu8RdX0MVYqMVzE3QCqje97QzRtN0wbWo5Zd1U2vc/YzHdHFVQTgQZ0xosPrtiFVdk5Dyfhp6P91FkIJM91kAAADgJkKYzGW/+0bOW90n7ek/KlXQC9KT5/9gcnDakPMRBWis+SzVerPcXVL1Og3O1Bgx6Oqx31bP//lkuyurer2bflz5bRNew8YpOoWAzH5Gja2cJEWL1Xuq9w2rT2O6uIYF4QjBgkAZ6eqa4n46pqnzo9cxD/XrC+baRXimW+M7AQAAgJvHpPkLqmM1tWRVRYVfenomcJ1KFTgW6RCmu1e2xjndcV/jDo2x2F1Eo6q9Ou8Xg55G47xvssyaFb2uLjJz9yIzNjCey9/Ip38XPZ1JgQpicYOqdllt759C2ytqsIvsXP75NTkdr7qqOv5KqyhOjH0129PHk1Q1V8PrfmoJ11GvP/OZWAWVEh9Lqopk9eZVskI6ZcOLVHQFAABAbqBlMufp+ST1hPq6wqpZZLkhwyp4fvoXMYKkpudF1JPwu9fRoUfPlajnVwzEDl9DJ+ziO/b2wl+jJ+w//3P1vjGCpDZ0WAVhFfjOnzHdbB1qPV2w5tO/c++rU8VVPZcwfKnnTetsRrq6Kt7206bXiXU+9fmw5rdMtqIsAAAAMEHQMgnkPFomAQAAkHtomQTGi9IaWVkXczQnAAAAkHW0TALjgH/latmybKp55DgrzU/9Qg6ZRwAAAEA20TIJjAPdu3fKhr1npe+CWQAAAACMMVomAQAAAACe0TIJAAAAAPCMMAkAAAAA8IwwmQW6Gy8AAAAATCSESQAAAACAZ4RJAAAAAIBnhEkAAAAAgGeESQAAAACAZ4RJAAAAAIBnhEkAAAAAgGeT5i+ovmHujxk9dUZPT7d5NPFM9OMbP0pkfc0aeTo/IDuONcvbg2YxYqoqXipry+fIknyfWSLSPdwl7/cekrcvXTRLIjnnWL22t1VW9Bw3y10Kl0pbdZ1ETZgz3C6NnQfkpHn4/2/v/mOjOu98j3+j5ioKSFmMjS42xB7yw4RqE7AdCLleHCULrYiTYjXXlt1qVSLVVTpKoQKhCxEVFzWqWaGghBs5qK4U9o/Wln1b2UkclIVtFLJWCNQ2UaQk0ABjE8boxmbYSBBFapX7POc8Z3xmfM7MHHtszwzvlzTrc87MmfPL6frD9/kxxXT3AwAAwKygMglgqiVN0lVZmxAktdCdK+XZ4iVmzcPC78rjKkhqobtXydP2IuAp1NgiXUc3S51ZBwAA+YUwCSDJg3K4cqW1pKuLzQO/ltXO62yH7L38pfWepxufyLtf24uRy5/Km/Zioht/li3u7xzolffMWylNdz/kqBJ5tLpIZCwmo2YLAADIL4RJAIkWLpEK/fPrAdk9+nFi89EbV+VN9fJ3VV4essOeZxNXIG6xLC9VP65eEzoBAACQnwiTAG4tFetlV1tYuo6G5VBjidmIOVd7r9SoH4N/OW+vAwCAvMMAPHPglhqAZ+GD8su7N8jjxcXxgVL8B20xg7WIM4DKUnn6gR/KT937TgzI7s9SDa6yVFYtqZMDd5dIKN6/b0Lt977aL6mqNmUAnuDHswel0X0JzQbfY01aVa6Cy90yOeiP1z2a6PU836fL6+SnJSvVtZlNzvEuq89mcQChVeVN6h6q45h1X+o8V6vztE0OtuMlcrlDtoymqmI6HpTDtQ3yWOCBdKa3X932sISrzIrEpG9fp3SOmNWsKZGWtibZcvWENL9yXkK166XxqWqp0ZU4JTp2SXqPHJOTvsctUee5SRqqiqTMbIkOD0lv7yk5uXyzdLUu8jxv3QfxQL1MvldRKbueq1HHLbI/oI7b7nPcUO1m2fbUCikz56jvzWD/oPT0nPeoHCZen3W+jWuloV7tb39Ane8JOazem9xXnUub61xSUue5VZ2nWQMAALmJyiSyRAWLB8Ly0ZoGedYVkjRr0JbKVjnsN27LnSVynwpYh1UweTF53+Ja6ap+QlaZ9QRmn65KHbbcA8Wo7yhukK7asPxyodmUbEHQ4+ng9CszKI3ZZMngWC46WHreI/VKDEPm/HTA8zremrAcLl9qtmWDCuNmCVlQcZ+sVaEsKoulZbsKeK2TQVIrK10h4f0t0mK1J05SsV4OHW1SgXcySGplVdXWPrseXqHWrssVj0BYXqaDmv2eNbjN/o2J4U2fw5T9dMgLq3N0B0mtSGrqN8qBtvVTfzec64temzxfV5DUyqo2yjZ35bdisZRmFCQV+lECAJAXqEzOgVuiMrmkST5SoU5XIX937qSrX52urv1QhSId9s7J3oFu16AsyZWtCXn9/J/iFcxV1oii9kAw753/tWxLGPfFVKX0ojrm6wmVT1PRU0FsJGG/6R/Pri7qa5hQ7/1JvWeOpauMK1U4tL4z+fpszr7vTZyTx4rV96vz3Zt0j1YtvJpQaYwfz/qs+s74e04lVn3PeKaVv4CcKTimOeWGc+65Wpm0mrk+Z4e7aH+37OgZN29kUa2uHurQp8VksOO49AyM21U6q1qoQ55aHnYqew713lH1nl4cG5L2I6fiVUSrcqgDn15R7+3ecyqpYmiqhaLee6vICodWdbD3vESs7yiRulqRk+o8JjnHM1XI085nFXWeLeo8t6jzHOxol4MDZrtmri+qQp+ogFhmVTzPqHPV362rqjoMq8Up1+cwx/W8DgAAkC+oTCI7vuyW5rO/li1DOvi4A8RVeXO0XfZO6OUSudeveqdD00B7QlPYT9V32vupv2vvTKzCrSrfYIKkDhLdSU1o9TG7ZcvZjqQA6hLkeCpcHTBBUjdVjQdJ7cbH8vJQh7xujWC6Un6aolqog6QOWKs97pFfk9XIuA6dZsWiPqvOc8uQHuDG/R3I2MgpObinXZq3ts9OkFRCZYvsBR2WtnaqIGaCpDZyXg4eGZKoXl66OKHqV7fdBEkdwlTIcjdHjQwckx0dl+wVz0FrzIA2skKFzkUqAKqgrJuZxr9jPClIOsdTQXCfOkfdnNV1PH2eneY8S8sS+5Y611emK40qkDfv0U1nne9Wx+k11+dHVyn1TwbfAQAgrxEmkTXxQLRwqTy95Ak5/EBY+qrD8lHtr+RFqxVqsdyzwPpEEhXSdPXNrLl9ftOkuwRL5fslJtydS1GR8h11NODxFpgmoBPv230ep7gqL18+Zy2FSr7r3SRXm9CT+GcWAD+d+Mz6Izt09w/lcPmDsiqDJrTIHXZz05j0HfGpuo1ckzGzGFexXhp0NU8HUM9q3iTPQWucgKYC3liHHWBTq5RHrL6juslt2BqQaMprf3VC01WHfX26Ypm6sms1g/Wy3G7Cy+A7AADkN8IkskYPTnO4+lfy0ZpWeVH3LdT9ApMmvc+OJXKP1ax0XC74VPSyadWddlUmcjPF/Io3TeVJ9/+0NkyVcv9kek7FswPy3tfF8tjduo+kuq8qlH+kwjnhMteVyDKrQO3dr9FPaJ3dhDU69Llvtc6uCMbkiy/s9QQmoOmmuwlNUv2Y0VSDc67vknzoE1idaxmLer9fZ/X79LkOAACQNwiTyA6rv6EZnObrc/Le5V7Ze7ZDmtVLzznoNB9FACpQbtNzNqp7uPeyuqdfT0hEhXMnXPY9oEKl+ShyiWluOnzBfzRSj2aeTjXzzGm/Sp+Z5N8npDoBzX//RE5TVd0fUjf5TfVKrD6a60sxSI5zLd5hcXphGwAA5B7CJLLgQTlsDVyjB7Sx+wRuG/3Y6hf4qW9T02xI0QdzFoQW+A1HqzhNYb8el8+tDVmk7qHuA7ptqF22qGC++myvCpbqfIob5EBWR3RFVpiKn28TT6WuwW4+GqyZZ6oQN/2AltwfMi2nounb3zHduWQQtgEAQF4gTCJ7vv5M3kkYCMexVO41S9nxsRy3Kp3F8uxKn2lDtIVLs1K5c/ovSvEGn+k/lsov9eiqSmT8k8Cjn3pZtSRF1fHGx7LN6aOZKuAuNM2Oa38lffkQOlM0EU4p6H56NNc2u0/gIffUFVniVPz8mnjqkVDteS51M1Fri0uRLF9uFhPoEVLN4DypBt8JMKVGJHrd+llWfZ/vtDCh2qlTxsQrmr5BOM25OFVZAACQ9wiTyJ47a+WA7s9nVu1pLJqkT0/HkeWuk29eHrD/oFbH7Kpukl8ucYclc9w1rdL1wINm2wzc+LP8zgmven5H97H01CDx6UbOye+yMcKqHj220p670mrKqkKx2yo9v6aZwiRVP8yn756cE1MP5JPJPJjz40u5GB8N1/X7o67z6ZTnPL39dFXQmfOxrH6T91yPM+AMTlPTqsNqpSuM6UDYEp8yZLAjcVL+0WjM+lnTulnqXOcUqtXh10y1oXhWPKczOurABRnUP0urrbkkE46ppwWx5sdsksZas9FI3YRVcSqzKfp+WqpqpEWFVYd9THUeZh0AAOQ+wiSy4GN57bLdKTKk+/PpgWKslwpzKvSE9PyLppKWNWaAGjtQrpRnK1vNMd3HnZDXL39sfXym3vzMmf6jWB5zH2uNM8ekOtZZ7xFiA1PXtvu8PfiObsrapULx5LX9Sq0782sOyO6CmB7kqrwz7vH7o67zxbtT/WPAdPebTaaJ51hMomM6rG6UA/HRUXUgtIOm1yA5kZ5BO9wlja56oFWFXz19R78Omz59Ip3Bd1I0rZ3qvBx0phpRgTLhmPs3yhZ1rnqeyp6E80zfnDZtZXbkczljDWVbJFtUWE08ZrU8khReAQBA7iJMIis+HW2X5vPnJGIFLuPrc/E+lG+6t2eLDpQD9uA0CcdVwS4y0SvNeh7JrI32elVeHvq1ukYd8swmy2wcS895aQ++Yx/PDkyOiLmv6Sbq19Vb51wjl/+U1fPLNuv3Rz9Hs27R1zmRegTc6eyn50AcNPNyRPuPS2dWB4ExTTyvDsqOPd3SPqxCpf2GJTo8JO37/Oa3VOFu3wnpU/vEqVCqp9/YveeYaTLqHeLSBjg/A8ekWR1zUB3HLX6eep5Ks82Wvjlt2sqljEunujcJ16lEx/R8l+2ZjUQLAABywm0PrV7zrVmeN+XlIRkdTdkgKq8V+vUBMCrWy6H91dZE/qnmXwQAACgEVCYBIEvSza8IAABQSAiTAJAl6Zt4AgAAFA7CJABkBZPxAwCAWwthEgCyIvhcjwAAAPmMAXjmAAPwAAAAACg0VCYBAAAAAIERJgEAAAAAgREmAQAAAACBESYBAAAAAIERJgEAAAAAgREmAQAAAACBESYBAAAAAIERJgEAAAAAgd320Oo135rleVPok/oX+vXljYVPSN+aWgmZ1bivB6R56M/yqVnNzFL5ZXWrPHunSORyr2wZ/dhsz45V5WHpurtYfXeH+u6rZut8ca51Ql4/2y4v3zCbc0KJ1DWulYbqFVJWajbJJWnfekxOmjUAAADMDiqTyHurljwhh6vD8lHtr+KvvgeekKcXmg/MhoXflcdVkNRCd6+Sp+1FzLG67U0SrncHSQAAAMwVwiTy2FL55QNh6aqslcfuLDbbbKHiWnlxTVgOLzEbtBt/li0Dv5bV8VevvGfeCuzGJ/Lu1/Zi5PKn8qa9iDlVIsuW2kuDHd3SvLXdvKhKAgAAzAXCJPKUaXpZrEPkhLx3vkOa4yGxQ/ZePicRKZbHih+0P551V+XlIft42W7iioDGhqRnYNysAAAAYK4QJpGfltRZ/RVFzsnes+2y7currj6PV+XN0W7ZcrZDVn9G0JszFetlV1tYuo6G5VBjidkIAACAQkWYRFbZ/Rcn+y5+VBuWvgcelFXm/US6uqg+U/2EeX+pPP2A+nxS38ep+6r97l5pLb13vlve9BsQ5ka2Bq4x5+k6L/err9y0tUxpqbo3TdKX0Lcz1b1JTd8n6zv89l/4oNUEOOFeVjel6UfqnKNrH6vv6VW5cNN8JIW6hmqpMX0Xy+o3SUuFvTx7xuXKfI9NBAAAcAsjTCJL7MBl9180myzFEipukC4VnH7pF2TuLJH7VPg5XN0qLxarz5vNmu772BUPm0Z88JtzcvxLa0tuM9fWVblSQgl9OzO4Nx70SK/6PslErzR/9vGUUWj1+x+tabCaACfcyztXyotr/MKv3WzYPkezSXH6nv50gdmQi0qLpNwsAgAAYO4QJpEVq8p/aJqd2v0X44PcnO2V162Baorl2TVNPqOe6pDToELohLzu2rf5/Dn77Ttr5efugXQWlNghaWKuBr6Z7B/pfjVfnjDvp6KCpHVtavHrcwnX5+7beU+GYc2ZMsSazsQjSMqSJvt9/Rwuq7DpPl91P/UENaG7fzglvD79gD3NSfLza1bP772vVSh1BUw/J3uHZHDMXo72H5fOEXsZAAAAhYkwiZlb+IQcMAFGz0Oo+y/G3fhYBbEOEyhXyk/9moSqoLV3oF1edu376ZfdstfktYo7J/dbdWf+9MdbVb5BHtML1lyW3QnX5+7buS2DCmtCkPScF9Pd/Fc9h9HEsKnv5xYroBfL48Wu56Ce30/14/N4fp+q57ct/vzSGDklB/fYI6ru6JntAXFKJNS4WRqq1OJYTEbtjQAAAJhDhEnMXLxS+L7PhPZX5eXLdpUxVPJdjz5+KsSc6/asMn5+M5PqX65aKt8vMSH7nFf4MzLo2zkZJFXo9gySitP8V4XN1/zC6ZefWtOhJDyHtM8vh1Ssl0NH9SA/TXJAzy85dkn6jpyyKq4AAACYW4RJzJhTKYzcTFFeuzlu/8Gv+0daG6bv069N1WvBkmkNXjN3lsg9VvPQcbkwg5CmB8Wxm65q4/K5WZrCCYV31kqXa+CdxFeDXSl1yej55aioel2xFwEAADDHCJPIP1kMpjmv5IfWoDi62rhX99HUQfGB2Zo7Mw+MnJIdW3VT2m5p749JWekKCT+3PmGgIQAAAMwNwiSyJrTAPUpOEqdq9nWKylqmbnwi76brg5lTSuTeAKO1ulmjv5o+km+Ottt9SIsb5LDXrXZC9kRvfAAd35dHU9mUzy/njMvJnk5pH1aLjOYKAAAwLwiTmLFPJz6zQ0zxBp8pLiYHhomMf+LfdzBjV+WdcbsvpdfIpHF6rsUlGYTNWatwfizHrdMslmdXes2XaSxc6v9e0mA7b37Wa/V5fKzSYzoRJ2T7Pgdvk89vlfdouwud5rppVKyXXW26P2NYDjXmzyBJAAAAmB7CJGbuxp/ld05oWhOWw+4ApwNdtTPtxDn53Wj6wWYy8enon1xTjqhjlrsn7zeT7+u5FitThE35Ui7GK5yu/dU5p57cP3NvXh4wTXL1fJlNSeHWOc9W36arU8P3x7LNjMg6NaA6Ax257knCdSyVp8vV8WqTpmhxVXpfVOfovnbnPib3s/RS11AtNaX2cln9JmmpsJcBAABQmG57aPWab83yvCkvD8noqPUnd0Eq9Ouz2ZPe26HRiz3tROJooc4+Xu/ZnFFMI5c7ZMuUIJr+mNYUGSnGlYmPkppMNxX97GOz4i31ubksfEIFstoU/fqmXn+6746ft8d5+l6TQ893ea478X6nOkf1+fdurpTHiv2fk1a3PSxhPVWHJSZ9+zpnea7JEmlpa5ItMiS79zCiKwAAwFyjMokssSf2bz4/IO9ZVS7HhERU4GnWc0j6hJDpcx/TbvZq08cckL3WnIlmk49PR9ul+bI9mX+cDlsTWRzZ9MafZctAh+zVx8nSvYlXZq3+k4lNefU1rT7bq65Bfb/ZZlH36L3L6nh6vsvk4+lzNPtMmvz8axlM0XKyd0gGx+zlaP/xWQ6SAAAAmG9UJufArVGZBOYalUkAAID5RGUSQH4rrZbGWgb8AQAAmGuESQB5alw+GIpZSzWtTdYosvZrs9RZWwEAADCbCJMA8lakp1N291+SqOmrCQAAgLlDn8k5QJ9JAAAAAIWGyiQAAAAAIDDCJAAAAAAgMMIkZkw34wUAAABwayFMAgAAAAACI0wCAAAAAAIjTAIAAAAAAiNMAgAAAAACI0wCAAAAAAIjTAIAAAAAAiNMAph1JY0vyfNH/yBP1poN865EWtrC0nU0LIcaK822oJzvaJGWCrNpRrL9fQAAALOLMAkUMDvE7ZSVZj21DfKkCnw69KV8bd9gPp+pkNxfXap+jknsC3vLvKu4T9bqU1LK6u+VOntxFpiA2LZe3QUAAIDCQpgECpYJcWNXZMJsSal2ndxjFlOJRS+bpUzdLUVWljwjfx2xt8y7kc/lzJi9GO2/ICftReS0Eqnb3iKHjtoVZevV1iK7akvM+/5Ctetll6lE2y+1X2MlAR8AgBkiTAIFy4S4q1dk3N6Q2sBL8urWH8VfXf122rrYMblNv37fE7G2Z6ximRTpn5mex5wYl8497dK8tV129Jw32xBq3Cy7tudgFbWiUoXBJglXFUmZ2WQpLZKa1ibp2u7fVDnU2CIHWqulxlSibWq/+o1ygIoxAAAzQpgECpWpNF78y/v2ekDFZVY5ceZNU5fbYTJ4RbMQLJblCSEmt5WXrZAaFdjKzXpOqFgvh/ZvVGEwJoP9J2T3VvsfAfRrd8clierPVG2UXV79cdW+2+qt3z61b/fkvvtOyKD+t5LSajmQIogCAIDUbnto9ZpvzfK8KS8PyehowGpHHuH6Cofug9hcLzK4b6d8oJtsVmyQJ59rkHtKTWIYG5TjR16Scx7NOUtqd8r3n6qxq4WWMbnY3yune95PWbErUce4v0Edo6rUrvApseE35J1XupL2U+fS5jqXlNR5blXnadam0v0nf67CaLrPOUKycvsv5OGkc/xLb5dMrNP3rNSqcL49YN4MqG57WMJV6qw72uWg+zsqSqzKUmQk8U7Yn49J375O6RzR/RabZIvPbYmqkLGjJ+UTkFDtWtn21Aqx8rUSHR6S3t5TIg3u49jvSe1mOeT6bErDJ6T5Facy6pzn5HnXbd8kDa5qnD7u4VdOyWz912bft0vSvvVYiqa/lbLrqAp3Zi2VKc9rmnTF9NHTxybvsZu6312tK5Lupc35vfF+xs51JD0/AACQMSqTQAB2tS4q19QfntbgNvtV4HKHN7045Y9SHfL+IM2t7iCplco99T+X5rZmFSO86ICmgpg6Ro0rpGlFVT+Q5qMvyaPuUT91c9KMgqSSrh+l0zR1+HT6IFnRLD8++hvZ5HGOm/bvlHXW4DuDcmEGoWI0GrN+lpa575QKX881yYH9TXKoMXH7sqXqx9glO/DPiB3wDqiw4g6HZVXVEt7fIg36OB4yCpKpLPdu1qmPeys2zYz0+ARJ7YuYXZ2colIeUUFS5JL0ev5jwXnp6de/V0WyfLm9BQAABENlcg5wfYUiJI+2/UZq5A3pemuZFQ5jw6/JO73vy7j1h64Kf7Ui5wbc98Kp8Jkq5Gnns0rFBnn0ORUUVfCYWrUzx7JCidq34//IafW99p/E6jiNz8jD9Sqcjqlz2ZNcodTMcX3fT6N2pzyvr6//hTR9JJ3rU9Sxjh/pildlrUqsDtB6Zbrn4fCqPlnNH6vtsOW13aNS5Wb1pasvSlmZdCpbVjPJjuNycMA8gYpKaXxON7203/OvbJnq19iQ7N6TrqKYXEFV36uO2ekcU90DHWq1bFX8kmVWmcwx5ndjynP0+T2wKtn2ov++AAAgI1QmgYyZAW1krQpJZSrgqaD1iiscqj9RE4OkyMrtpqnovp3ytm7O6g4cI+/LB0feUJFBpKgssdZU0vgLO6joELZV7RsPkpo6Ts9L8vt9r1nhzfNP4BkOelNSZtfDYtHU8ce+PkWF6ldVWHQ37x0fUOfYMWhd34wH3xm4oO6isnSxFQYsy3XV7pIMDqvlKdtFotFr9vp0qTDSYIKkDotOkNQiI+fl4J5u6TMjwmbdmA50KqC6jzlwTNr1tSqJFdrp0kHXPcKpE5xXSDhpu2d/xJygAvhTOmB7VB+n/B7Y13tAveKVbFPVLCtbbK8DAIBACJNAppyAVloqsQ474KW2Qe61/jivkU37PeZr1K/9P0hoGmrbIOvqdZJUITRVNU+FUa++mRYz6M30Bt9x5oVM0zS1olke1tenA68K1X70ecx88J1r8oU1YMrk4DB1D6sQMRaTD3UT2NIV8Sa/obJF1s+x6IziazyMyPDgHPenU+H1iHdl0GnuC1vddruSO9iRQSW19t54P0/CIwAA2UGYBDLljEra/0JmA8lkOG/jFEH6K/pY+bD+s3m6I7E680Km7ldZsm6tfT+GTvkG3kwrnOmNy5Wr+ucKecSqkpl+kVevycnodbUw2e+tvEyf1SX5cIbNQJ1QOuMKZ846LwddI6Pql1351FXRxO2z0aR2pnQzZWtwneETKc8vHhwHzphKckwG/+Lf/BkAAGSOMAlkyAloF09nFoycIJU8T6PXK6Ff4oyn0gjJYmtgGHugoMAybCLrTB3ifz8yrHBmKHEQHnvKDSvomaaK9nYz6MpYTEbVD8yGqc1j/V6z1TzW6e+q+8ru8OsXO2VgHmduUd1k2WzKVpNoAABuUYRJICPTD2jJ/SFnn6ksTreymbV5ITOrcGYqctqeU9CqNJkmi1ZT1pHP5cyY2l59n4QqFlsD6uqK5UxroY6sNIl0Nc/FTOjpUszASWkGWJKRa2IVIqvulTprw1RZaxINAMAtijAJZCR4MBqP2nWRour16k9gbyW1oanvfXHFHpSn/hlZaW+ZqmKD73fGK4vTFKwCWypFntMq6GlNzOA86QbfqVgvu9rsSlbiFB9JnHCwdLHUWSHAacpqmsDqwJbFSpMTXn3DiAquujqamUWyzD2NS16b2jzW75Xd5rH2aLd6uhRr9NVUQdJyXj60mu2ukAbP36tKadTVzSw0iQYA4FZFmAQyMZ3RUQdOy0X9s/QH1lySK11hokRPC6LnkGz9jaxLbgo4ckouWqmpRja17VT7uSqbalnPPannt/x+Y5qKZ1WDPKrCqsM+pjoPs+4t8wrsRNQ6SbmnVZ+jtWgpqW2WJ9v0vJP2eroKZ11DtZliQ6SsfpO0+IauyUF4HtH9Il1NWU/+5ZL6v4vkkYf1WkzOnM5CpclUPK3RTds2S53rvPQ0HYf2ZzJxvxNoimTLc+sTvkMqSqSuNkV4ngejUT06bg42Ea6w593cUqqnaMl8Go+TvUN2Nbtez0VaqX67Dev7zPMbvpA/06AAAJBjmGdyDnB9BSDjeReTmP38WPNU6ulFzHpcRbP82HOkV1ts+A21n99Ir+45KqdKnNMy9WfjPOeJdM0xmWxsUI4PlcmmepHBfTvlgxTBdHIuRy3VnI1Jn3U3c3TPOWkNIJN+dM9M5plM/N4kYyp4XV0hNVWpzznldyScqzPPpP/3ZXTOhSbl/UvkdV/i/Su9ZDT/JwAA8ENlEsjAtEclHXhJXt33mlwcs6t4Dh0Gj+/7kT1PpdmWYKRLfr/1BTk+PGY1eY1TIW3Qmt8yxZQh6k/jD/a8IINqX7eYDnjqmIkj0TpzZ6bhWZF9X95W15ZwHHWdev7Nrj0vmebA6Sucuno0aL4i2n885TQcdgXSljAip9MEVsvm4Dsjp2THvhPSN+x+CjEZ7D+hQsgx6clkqg7zHYPqvNyiKoz2dZyhKpaOM0XLNEV6OmV3h/4d83qGBEkAAGaCyuQc4PoAAAAAFBoqkwAAAACAwAiTAAAAAIDACJMAAAAAgMAIkwAAAACAwAiTAAAAAIDACJMAAAAAgMAIkwAAAACAwAiTAAAAAIDACJMAAAAAgMAIkwAAAACAwAiTAAAAAIDACJMAAAAAgMAIkwAAAACAwAiTAGZdSeNL8vzRP8iTtWbDrCiRlrawdB1tkZYKs+mW5dyLsBxqrDTbclG+nCcKx+3S0rREun62WFqKzSYAwLQRJoECZoe4nbLSrKe2QZ5UgU+HvpSv7RvM5zMVkvurS9XPMYl9YW/BLKu4T9bqW66U1d8rdfbiLDBhsG29esrTMGfnWaicYKReTQsnn8H9d9nb1GvX/WZb3B2yy7x3aN3tZlui0LrFKd+HH/M83M9iVkznuQPA7CBMAgXLhLixKzJhtqRUu07uMYupxKKXzVKm7pYiK0uekb+O2Fswy0Y+lzNj9mK0/4KctBdzT76cZz64/jeJmMVJf5cvrplFD2VrFhDg8900njsAZBNhEihYJsRdvSLj9obUBl6SV7f+KP7q6rf/yr/YMblNv37fM/VPl5QqlkmR/pnpeSALxqVzT7s0b22XHT3nzbZclC/nWajukAaqjwCAGSBMAoXKVBov/uV9ez2g4jKrnDjzpqnL7TAZvKKJ3LdYlptmqpgPf5Mr182i27W/S9Qs+op8I4PqB9XJbPqOLF9kFmfVDJ47AGTZbQ+tXvOtWZ435eUhGR0NWO3II1xf4dB9EJvrRQb37ZQPdJPNig3y5HMNck+p+Yt6bFCOH3lJznk05yyp3Snff6rGrhZaxuRif6+c7nk/ZcWuRB3j/gZ1jKpSu8KnxIbfkHde6UraT51Lm+tcUlLnuVWdp1mbSvef/LkKo+k+5wjJyu2/kIeTzvEvvV0ysU7fs1Krwvn2gHlzRkokVLtWtj21Qqy8q0SHh6S395RIQ1jCVTHp29cpnV5NaisqpaWhRtZWFUmZ2RQduyS9R47JSd8muCVS17hWGqonj6euTh1zUA73npdIyqa7zrkuUvvG74y97ytqX7PFLdTYIgfU71j8GrzOefiEa3/db7FJtvg89mh/t+zo8foNM/vJkOzeo+6dOk7jczVS45znWEwG3zouBweS9q3dLIdc9z4ldZ7N6jxt0z3PSaHa9dL4VLU6R7Mh5b1MvL6IWq/bvkkaEu7jkNpXv5cNlbLr6EapMWupDHa0q/tqVmao7ntLJBxS13I2JjtO/83eWLxQDj2zQF3nN9L+26+Smg/rPpN3SU3kK9l9faEcWPOdxH0V3WfSa3tc8R3SUrNQ1oa+M3kvr38jvf+hjuVqU++c2+C7X8rBv5qNWvHtVj+/yETid9uf/7v0/fGadGbUNj8VdYz7F8i2qjukzAS8aOSm9A7eEKlJcxyf6zszfFM6/5p0P+6/Sw65jpGSuufN//6NWXEJcjwj+HMHgNlBZRIIwK7WReWa+iPfGtxmvwpc7vCmF6eECx3y/iDNre4gqZXKPfU/l+a2ZvVnrhcd0FQQU8eocYU0rajqB9J89CV51D1qqW5OmlGQVNL1o3Sapg6fTh8kK5rlx0d/I5s8znHT/p2yzhp8Z1AuZClI6oBwoDUxzJRVVUt4f4s0LDUbPOiQ1rV/o2xxhQmtrHSF2lePJur1FFRAUMcL1yeHJ/UdVRvlgDrmLs/9FBXO9L72uSbcGXvfDEad9T1n9craP9+oc2vcrgKsOk48SGpquaa1Sbq2Tx1lNaMgmVX6uYfVvXQHSS2De6muo9w8i3DyfVS/NwemO3hQjhi9/nfr51jMFTpUSLMaqav3Rq0NHhbdLnL6RuDqpDU4zzN3yRZX8NHKFt0h4WcSB+1xzq20yN2U9nZp+eciOfBMUdIAP7fLMh3IVIj6IAtBsqVJHePxxJBXFlqgznGxNPgGP7Xf9/yvb8vjRZ4D22QUJD1N73jatJ87AGQZlck5wPUVipA82vYbqZE3pOutZVY4jA2/Ju/0vi/jVoBU4a9W5NyA+144FT5ThTztfFap2CCPPqeCovrjeGrVzhzL+sNZ7dvxf+S0+l67bqOO0/iMPFyvwumYOpc9yRVKzRzX9/00anfK8/r6+l9I00fSuT5FHev4ka54VdaqxOoArVemex5J6rbryqNeislgx2TVLGRV1XQYst+bUpms3SxdKtRZ+/UPSk/PZCUrpN7bpgOfx352lVBdwdglaU+oXk5WR2XIq6LmqlKpffveOiOd8QqfqXSqgDrmUaFyjjk4fElqqtT3W8c+o449uX+oYjxNRXTye9JWJk04c6q79jXqc9ykQrQdLv0raeY6x5zqX3Dpz9P1HJKeu1W1Vc/dvgZ1n7aqZ2S9oSVXQtXzVfs6z0E/dx30tWxWCuecHsFThabE6p8dprbITdndfSPpuZjK5HX7PfGoQvpWJs2x9AAvg2dvSM/pbyb/O1LvbdPhTb0Xr/g5n3dX5OLVM8Vru1/1LgCnamed57tfqftirqv4Dmn8Z3XtVvjzqEya87WrrDflZLxyervUrbtLwuqeSMqqX+K9Tfvfw0yOZ/bN/LkDwOygMglkzAxoI2tVSCpTAU8FrVdc4VD9v+7EICmycrtpKrpvp7ytm7O6A8DI+/LBkTfUn7giRWWJtZGSxl/YwUiHsK1q33iQ1NRxel6S3+97zQpvnn9+z3DQm5Iy+9/IY9HUf47Y16eoUP2qCovu5r3jA+ocOwat68vK4DsV66XBBEkd+tzNLyMj5+Xgnm7pMyODJlKhQoc+ZbBD7ecKklpk4Jjs6Liklopk7TrvKmN0SIc5s2JRYU7vt0cPHDP1ykKNNSZI6pB1zBUktXE52aP23dedMsDoIKkDVrPafzJIaumDZFBWkHvFCZKaPsdO2d1vPT2peXge54BUz32bCZLJz13Uc++MP/cV0uBXJdaBfGtnwnPQz6992F4uLfPZL2/4jN7pOdJnokjG1UkVVKp0kNTNVq/JQVeQ1CJ//Up2vKtD4Hdk7b2m4vhXu1+mroLG/xdusa7Aqe165ynb1e+iqbhNmwqlDSZI6rDoBEktMvGNHOxWv0de/Q01dQ27//il7OjWzXVdIVr+JidPX5N264Jvl2XZmp9yxseb/nMHgGwhTAKZcgJaaanEOuyAl9oGudcKPzWyab/HfI36tf8H9ncm2CDr6nWSVCE0VTVPhVGvvpkWM+jN9AbfceaFTNM0taJZHtbXpwOvCtV+rBiQjcF3lpsmisOD3v0h/ThzGapg1+N3PQMX7D+oq++b/ONWiZy+ZA1oUVa/SXY1VkooTbNUW4k8Wm3Cz5EU1bqEgOhh+ETaPoTZEZMzp72P41y/LF2ccF/mVNrnPi6db+l/DJj6/Gz6ObgrlpNGo3ZYzmsqkDT/Nrnv39+ks/vLDCt830jPWR3g0ozsWnyHrLWaod6UHnf/RzcTHstCd5jnoMKODm6LviPl1rpI3QoVSFVg/FCHxkV3yKMmKIVMU9iEZpvTYUKpRG5Mq99lxNmn+Hapu3+h7PreYjnUZM+7aVc7vyPLF1ufyIppH2/Gzx0AsoMwCWTKGZW0/4XMBpLJcN7GKYL0V/Sx8mFdF5vuSKzOvJCp+1WWrFtr34+hU76BN9MKZyZCpmNSNBpwAjUnjJRWy4GjYenyfPkMnDJySnbsG5LBsSKpqdd9JM3n23RfSb9w6Yxwel2uzKCCGPg6Z5Pud2gW51pGz/2LmB165/E881lG1UknpC1aIAfMxPhTX3cl/XfkjDp6hzxi9f1z+kX+TU5aoXEyKJWrwKmD7Yd+QTVDTiidboUzpANdk7qWZ4ok/PgCqdF9Ga1zmx1zfTwAyDbCJJAhJ6BdPJ1ZMHKCVPI8jV6vhH6JM55KIySLrYFo7IGCAsuwiawzdYj//ciwwpnrVKA8qOdC3Nct7f2XVLBUwUUPTmPC5aHtKlSaj+JWpvuPuv+Bwv+1q9bskjMSq5ORmVYHXRIH4bGnzrCCnpnGwt6uwqb+j0htn9eBY+6/Sw7oQGcF3m9k8OxX0v7HmOxWr+bffmmanWbRXB8PAGYBYRLIyPQDWnJ/yNlnKovTrWxmbV7IzCqcQZWVBWxj5lSt9DQVW+0J8n1fqQaRGbH7Oh7c0yk79Gf3nVDBUp1P1UbZ5tlXb5Esy6hZbA5zqroqQKf8I38OKoIpn3um5wlf8epkvIlqEmcOQz1Ajgo6KV+uwV8iF76x9rOqbfffYVUuraasE9/ImevmeMW3WwNhZ7OvX/Dq3h2ySw8WpPtavqvCXPdXVr9Q3ZcxeQqTtNSx0//3kMXjAcA8IkwCGQkejMaj1p9eUlS9XvyG9yipDU1974srYg3KU/+MrLS3TFWxwfc745XFaQpWgS2VouVmMYGe1sQMzpNu8J2K9bKrza7YeE/PYYv336u617spXoXPBPojn8sZPUBLVU3aqTiShWpTVB31oD9OX72EoHNePrQGdimSLc+lmHaiosT/vTm23PMZTg5cFB36PM0f+bMXnCefu9/zC3Kes0n9PiT/44TPKzdHjjXVyUULpNG+nYlM+JPQQmkJMgCNCkbW+EiLbpc6qwrpNGU1TWB18MrW4DuKE15FhVTP/50otqujvvTUJJ5zO94uy8xSegEG6cnK8QBg/hAmgUxMZ3TUgdNyUf8s/YE1l+RK1x/CJXpaED2HZOtvZF1yk7eRU3LR+uurRja17VT7uSKHWtZzT+r5Lb/fmCaKVDXIoyqsOuxjqvMw694yr8BORK2TlHta9Tlai5aS2mZ5sk3PO2mvp6tw1jVMzh2oB7rxDXxOKJQVEm7bLHWuz+lpHg7peRLNeiJngBYV7qx5IZP7OuppMNT+R9V3mi0WPYpo60ZrDkOrKasKf256OpJdZmqJ5P58J3uH7D9odT9Nda4tte599bQi+nyb5IDHHI5zT88nae6L2WJNuRGfVuOS9PoOBJQYnN3PRIfluoTrnib130Ovcwz9/NzfmfF5IhNOdbJGBbGp/iadw/ZorVueWSy71umKov2OzZ7O4tDP7koKcZOD8Dyiq4WupqwnL+nvu10esf4z+rucuZCFipwTeuUOCTepc3Gdo56+5NAzyf06k6gwvU1fm1nV52ftp6fcSPM/uVZQtv41Q92jf16YcGx7gB27P2eCGR0PAOYf80zOAa6vAGQ872ISs58fa55KPb2IWY+raJYfe470aosNv6H28xvp1T1H5VSJc1qm/myc5zyRrjkmk40NyvGhMtlULzK4b6d8kCKYTs4dqdnTP/iO1qoC3qH91XaTxmRjl2Tw6gqpqfL+jsm5Cn3o+SCPHEucZ7J2vTQ+lTxRfhK/ORZTnasl9XmmmncxE0HmmdT/LmB1gZ0izfPQUl5n8tyPU2V2vclzRibzOk9nH/9ryNa9zi+p50J05pjUpswzqbjf93T9G+n7j68SRhmdnPdR8ZtzUgUx//kbA0r43iS6b+L1O1RgnjrPZMprU/vpPozhNclzOyZJdeyka8zK8QBgnlGZBDIw7VFJB16SV/e9JhfH7CqeQ4fB4/t+ZM9TabYlGOmS3299QY4Pj1lNXuNUSBu05rdMMWWI+vPwgz0vyKDa1y2mA546ZuJItKb5bjqeFdn35W11bQnHUdep59/s2vOSaQ6cvsKpq3i676EW7T+eOrhYo6uekL5h912JyWD/CWs+x54UUz1Eejqtfo56X7sBsjE2uX/ysSMD9uA7uzv0OSZ+d1SHz45u/8n69blutQftMUVcQx1/WB1Pz3uY5t7MjZicOaKvMfE8o8ND0p4uSGrmmXjfnzPZCQfqt68z/hzMJkuu3cv851Qn/UROX5PmP34lfRHTh9Jx/e/WADK7uxODpGZXIG2DruV4E1gtm4PvTNyQHeYcJ02eX49Pc1p9bbvf/UaiVmXT0OHY9Gk86f8/L5PMsQeTjhG1vudmwn8PWTkeAMwzKpNzgOsDkHvSV+4AAABSoTIJAAAAAAiMMAkAAAAACIwwCQAAAAAIjDAJAAAAAAiMAXjmANcHAAAAoNBQmQQAAAAABEaYBAAAAAAERpjEjNHEFQAAALj1ECYBAAAAAIERJgEAAAAAgREmAQAAAACBESYBAAAAAIERJgEAAAAAgd320Oo135rlecOk/vmvbntYwlVmRWISHbsuvUeOyckRswkAAABAQaEyiVlQJGWlKyS8f7PUmS0AAAAACgthEllx8pV2ad5qXvtOSN+Y3rpIllVYbwMAAAAoMIRJZN/IeflgKGZWAAAAABQiwiRmRSR63SwBAAAAKESEScyKUNkiswQAAACgEBEmMYuuyxVGcwUAAAAKEmESAAAAABAYYRKzaIWE29ZLHSO6AgAAAAXnO/996dL/bZbnzT/8wyL5r/8q3AFbCv36vFz/5Kr8v4oyWXb/PfLE42vlfzaslf/x3y7JO5/cNJ8AAAAAkM+oTGJWlZmfAAAAAAoLYRKzo3athKuKRMYuSfu+bmne2i47esbNmwAAAADyHWESs8KeGiQmfUeOyckRQiQAAABQaAiTmEVMDQIAAAAUKsIkZtEiWcZIrgAAAEBBIkwCAAAAAAIjTGJWRKK31lQoAAAAwK2GMIlZYQ/AAwAAAKBQESaRfRWV0lhfZFYAAAAAFCLCJLKibntYuo6a1/6NUqM3jl2SDxjNFQAAAChIhEnMgphEh4ek/cgpiZgtAAAAAArLbQ+tXvOtWZ435eUhGR0t3NhR6NcHAAAA4NZDZRIAAAAAEBhhEgAAAAAQGGESAAAAABAYYXIO0F8SAAAAQKEhTAIAAAAAAiNMAgAAAAACI0wCAAAAAAIjTAIAAAAAAiNMAgAAAAACI0wCAAAAAAIjTAIAAAAAAiNMAgAAAAACI0wCAAAAAAIjTAIAAAAAAiNMAgAAAAACI0wCAAAAAAIjTAIAAAAAAiNMAgAAAAACI0wCAAAAAAIjTAIAAAAAAiNMAgAAAAACI0wCAAAAAAIjTAIAAAAAAiNMAgAAAAACI0wCAAAAAAIjTAIAAAAAAiNMAgAAAAACI0wCAAAAAAIjTAIAAAAAAiNMAgAAAAACI0wCAAAAAAIjTAIAAAAAAiNMAgAAAAACI0wCAAAAAAIjTAIAAAAAAiNMAgAAAAACI0wCAAAAAAIjTAIAAAAAAiNMAgAAAAACI0wCAAAAAAK77aHVa741y/OmvDwko6MRs1aY6raHJVxlViQm0bHr0nvkmJwcMZsAAAAAII9QmZwXRVJWukLC+zdLndkCAAAAAPmEyuR8qKiUluc2ypbSmPTt65ROqpMAAAAA8gyVyfkwcl4+GIqZFQAAAADIP4TJeRKJXjdLAAAAAJB/CJPzJFS2yCwBAAAAQP4hTM6r63KF/pIAAAAA8hBhEgAAAAAQGGFyXq2QcNt6qaswqwAAAACQJ5gaZN6USN32TdJQVSRlZku0v1t29IybNQAAAADIXVQm55kTJAEAAAAgn1CZnC+1m6WrdYXI2CVpP3JGTo5QkQQAAACQP6hMzhN7apCY9B05RpAEAAAAkHcIk/OKqUEAAAAA5CfC5LxaJMsYyRUAAABAHiJMAgAAAAACI0zOk0j0ulkCAAAAgPxDmJwn9gA8AAAAAJCfCJPzoaJSGuuLzAoAAAAA5B/mmZwjddvDEq4yK46xIdm955TcYjNsAgAAACgAVCbnRUyiw0PSfoQgCQAAACA/UZkEAAAAAARGZRIAAAAAEBhhEgAAAAAQ2Lw3c43d/49mKZi39u60fv7LT561fgIAAAAA5g6VSQAAAABAYIRJAAAAAEBghEkAAAAAQGCESQAAAABAYIRJAAAAAEBghEkAAAAAQGA5Eyb/6cmfyb8977ya5F9//D35pxLzJgAAAAAgp+RoZXKRLC0KSWuzCpRmCwAAAAAgd+RMmPzPt38rP3nVvLr+LG/H9NZFsozqJAAAAADknNysTI5/Lh9euG5WAAAAAAC5JmcH4IlcI0wCAAAAQK7K2TAZWrzILAEAAAAAck3OhknbdbkybhYBAAAAADkjx8MkAAAAACAX5XiYDEnrj9cy3yQAAAAA5JjcHYDn1AnpuHhdrhZVSWvzz+Tfnv+Z/Ov6xeZdAAAAAMB8yvlmrkvNTwAAAABA7sjdMFn5sLTes0gkFpGOrv8rP3n1t/K/Tl0zbwIAAAAA5lPOhkl7apDr8vY7/y7/OU6IBAAAAIBckuPNXJkaBAAAAAByUY6HyUWyjJFcAQAAACDn5PwAPAAAAACA3JOzYTJy7bpZAgAAAADkmhwfgAcAAAAAkItyM0yW3CcNDxMmAQAAACBX5UyY/Kcnfyb/9rx5NT8hVXpj7JJ8yGiuAAAAAJBzcrSZ63W5enFYOt45IxGzBQAAAACQO257aPWab83yvIjd/49mKZi39u60fv7LT561fgIAAAAA5k7ODsADAAAAAMhdhEkAAAAAQGDz3swVAAAAAJB/qEwCAAAAAAIjTAIAAAAAAiNMAgAAAAACI0wCAAAAAAIjTAIAAAAAAiNMAgAAAAACI0wCAAAAAAIjTAIAAAAAAiNMAgAAAAACI0wCAAAAAAIjTAIAAAAAAiNMAgAAAAACI0wCAAAAAAIjTAIAAAAAAiNMAgAAAAACI0wCAAAAAAIjTAIAAAAAAiNMAgAAAAACI0wCAAAAAAIjTAIAAAAAAiNMAgAAAAACI0wCAAAAAAIjTAIAAAAAAiNMAgAAAAACI0wCAAAAAAIjTAIAAAAAAiNMAgAAAAACI0wCAAAAAAIjTAIAAAAAAiNMAgAAAAACI0wCAAAAAAIjTAIAAAAAAiNMAgAAAAACI0wCAAAAAAIjTAIAAAAAAhL5/7VTvFF8CXtmAAAAAElFTkSuQmCC;" vertex="1" parent="1">
          <mxGeometry x="277.5" y="620" width="915" height="897" as="geometry" />
        </mxCell>
      </root>
    </mxGraphModel>
  </diagram>
</mxfile>
